<svg width="182" height="181" viewBox="0 0 182 181" fill="none" xmlns="http://www.w3.org/2000/svg">
<g filter="url(#filter0_dii_237_136643)">
<mask id="mask0_237_136643" style="mask-type:alpha" maskUnits="userSpaceOnUse" x="11" y="0" width="160" height="160">
<path d="M115.217 0H66.7827C50.72 0 42.6893 0 34.044 2.73332C24.604 6.16935 17.1693 13.604 13.7333 23.044C11 31.6893 11 39.7213 11 55.7827V104.217C11 120.28 11 128.309 13.7333 136.956C17.1693 146.396 24.604 153.831 34.044 157.265C42.6893 160 50.72 160 66.7827 160H115.217C131.28 160 139.309 160 147.956 157.265C157.396 153.831 164.831 146.396 168.267 136.956C171 128.309 171 120.28 171 104.217V55.7827C171 39.7213 171 31.6893 168.267 23.044C164.831 13.604 157.396 6.16935 147.956 2.73332C139.309 0 131.28 0 115.217 0Z" fill="#C4C4C4"/>
</mask>
<g mask="url(#mask0_237_136643)">
<g clip-path="url(#clip0_237_136643)">
<rect width="160" height="160" transform="translate(11)" fill="url(#paint0_linear_237_136643)"/>
<path opacity="0.3" fill-rule="evenodd" clip-rule="evenodd" d="M10.7662 159.765L20.8642 149.667H11.0019V149H21.3346V109.667H11.0019V109H21.3346V80.3338H11.0019V79.6671H21.3346V51.0003H11.0019V50.3336H21.3346V11.0003H11.0019V10.3336H20.8637L10.7663 0.236175L11.2377 -0.235229L21.3346 9.86174V0.000472754H22.0013V10.3336H61.3346V0.000472754H62.0013V10.3336H90.6686V0.000472754H91.3353V10.3336H120.001V0.000472754H120.667V10.3336H160.001V0.000472754H160.667V9.86369L170.766 -0.235229L171.238 0.236175L161.14 10.3336H171.002V11.0003H160.667V50.3336H171.002V51.0003H160.667V79.6671H171.002V80.3338H160.667V109H171.002V109.667H160.667V149H171.002V149.667H161.14L171.238 159.765L170.766 160.236L160.667 150.137V160H160.001V149.667H120.667V160H120.001V149.667H91.3353V160H90.6686V149.667H62.0013V160H61.3346V149.667H22.0013V160H21.3346V150.139L11.2376 160.236L10.7662 159.765ZM160.001 148.528V109.667H154.054C150.652 116.884 146.047 123.424 140.498 129.026L160.001 148.528ZM140.027 129.497L159.53 149H120.667V143.053C127.885 139.651 134.425 135.046 140.027 129.497ZM140.027 128.554C145.449 123.08 149.961 116.702 153.316 109.667H122.128C121.967 109.835 121.805 110.003 121.642 110.169L140.027 128.554ZM121.17 110.64L139.556 129.026C134.081 134.448 127.703 138.96 120.667 142.315V111.127C120.836 110.966 121.004 110.804 121.17 110.64ZM121.17 109.697C121.18 109.687 121.19 109.677 121.2 109.667H121.14L121.17 109.697ZM120.667 110.137L120.699 110.169C120.688 110.179 120.678 110.189 120.667 110.199V110.137ZM120.001 108.528V86.2865C118.802 91.8432 116.046 96.8209 112.213 100.741L120.001 108.528ZM111.742 101.212L119.53 109H97.2852C102.843 107.802 107.822 105.046 111.742 101.212ZM111.742 100.269C116.78 95.1147 119.912 88.0899 119.999 80.3338H91.8067L111.742 100.269ZM91.3353 80.8052L111.271 100.741C106.116 105.779 99.0914 108.911 91.3353 108.998V80.8052ZM90.6686 79.1957V51.0022C82.9122 51.0894 75.887 54.2216 70.7325 59.2596L90.6686 79.1957ZM70.2611 59.731L90.1972 79.6671H62.0032C62.0905 71.9107 65.2229 64.8855 70.2611 59.731ZM70.2611 58.7882C74.1814 54.9545 79.1602 52.1988 84.7181 51.0003H62.4732L70.2611 58.7882ZM62.0013 51.4712L69.7896 59.2596C65.9557 63.18 63.1998 68.159 62.0013 73.7171V51.4712ZM61.3346 49.8617V49.8002C61.3243 49.8103 61.3139 49.8205 61.3036 49.8307L61.3346 49.8617ZM60.8322 50.3021L60.8637 50.3336H60.8011C60.8115 50.3231 60.8218 50.3126 60.8322 50.3021ZM60.8322 49.3593C60.9983 49.1956 61.1658 49.0334 61.3346 48.8724V17.6857C54.2995 21.041 47.9218 25.5526 42.4474 30.9746L60.8322 49.3593ZM41.976 31.446L60.3607 49.8307C60.1969 49.997 60.0345 50.1647 59.8734 50.3336H28.6867C32.0421 43.2983 36.5538 36.9204 41.976 31.446ZM41.976 30.5031C47.578 24.9542 54.1171 20.3496 61.3346 16.9477V11.0003H22.4732L41.976 30.5031ZM22.0013 11.4712L41.5046 30.9745C35.9555 36.5767 31.3507 43.1159 27.9487 50.3336H22.0013V11.4712ZM61.3346 149H22.4736L41.9762 129.498C47.5782 135.046 54.1171 139.651 61.3346 143.053V149ZM22.0013 148.53L41.5048 129.026C35.9555 123.424 31.3506 116.885 27.9487 109.667H22.0013V148.53ZM61.3346 142.315C54.2995 138.96 47.9219 134.448 42.4476 129.026L60.8325 110.641C60.9985 110.805 61.1659 110.967 61.3346 111.128V142.315ZM41.9762 128.555L60.361 110.17C60.1972 110.004 60.0347 109.836 59.8736 109.667H28.6866C32.0421 116.702 36.5539 123.08 41.9762 128.555ZM61.3346 110.2L61.3039 110.17L61.3346 110.139V110.2ZM60.8325 109.699L60.8642 109.667H60.8013L60.8325 109.699ZM84.7174 109H62.4737L70.2612 101.213C74.1813 105.046 79.1598 107.802 84.7174 109ZM62.0013 108.53L69.7898 100.741C65.9558 96.8208 63.1999 91.8417 62.0013 86.2835V108.53ZM90.6686 108.998C82.9123 108.911 75.8872 105.779 70.7326 100.741L90.6686 80.8052V108.998ZM70.2612 100.27L90.1972 80.3338H62.0032C62.0906 88.0902 65.223 95.1153 70.2612 100.27ZM119.999 79.6671H91.8067L111.742 59.7317C116.78 64.8861 119.912 71.911 119.999 79.6671ZM91.3353 79.1957L111.271 59.2603C106.116 54.2222 99.0915 51.0897 91.3353 51.0022V79.1957ZM120.001 73.7141C118.802 68.1575 116.046 63.1798 112.214 59.2602L120.001 51.4732V73.7141ZM111.742 58.7888L119.531 51.0003H97.2845C102.843 52.1989 107.822 54.9548 111.742 58.7888ZM121.2 50.3336H121.14L121.17 50.3034L121.2 50.3336ZM120.667 49.8637L120.699 49.832L120.667 49.8008V49.8637ZM122.128 50.3336C121.967 50.1651 121.805 49.9979 121.642 49.832L140.027 31.4466C145.449 36.9209 149.961 43.2986 153.316 50.3336H122.128ZM121.17 49.3606L139.556 30.9752C134.081 25.5528 127.703 21.0409 120.667 17.6854V48.8731C120.836 49.0342 121.004 49.1967 121.17 49.3606ZM154.054 50.3336C150.652 43.1161 146.047 36.5772 140.499 30.9752L160.001 11.4732V50.3336H154.054ZM140.027 30.5038L159.531 11.0003H120.667V16.9474C127.885 20.3495 134.425 24.9544 140.027 30.5038ZM27.6387 109H22.0013V89.6772C22.9469 96.4819 24.8754 102.972 27.6387 109ZM59.2513 109H28.373C24.3276 100.278 22.0505 90.5694 22.0021 80.3338H48.0019C48.0858 91.3774 52.3329 101.43 59.2513 109ZM61.3346 109H60.1604C53.1045 101.499 48.7542 91.4242 48.6686 80.3338H61.3346V109ZM62.0013 109.667V110.841C69.5024 117.897 79.5779 122.247 90.6686 122.332V109.667H62.0013ZM91.3353 109.667V122.332C102.425 122.246 112.5 117.896 120.001 110.84V109.667H91.3353ZM121.841 109H120.667V80.3338H133.333C133.247 91.4242 128.897 101.499 121.841 109ZM153.63 109H122.75C129.668 101.43 133.915 91.3774 133.999 80.3338H160C159.952 90.5694 157.675 100.278 153.63 109ZM160.001 109H154.364C157.127 102.974 159.055 96.4848 160.001 89.6817V109ZM48.6686 79.6671H61.3346V51.0003H60.1602C53.1043 58.5012 48.754 68.5765 48.6686 79.6671ZM120.667 79.6671H133.333C133.247 68.5765 128.897 58.5012 121.841 51.0003H120.667V79.6671ZM133.999 79.6671H160C159.952 69.4314 157.675 59.7223 153.629 51.0003H122.75C129.669 58.5705 133.916 68.6234 133.999 79.6671ZM22.0021 79.6671H48.0019C48.0857 68.6234 52.3327 58.5705 59.2511 51.0003H28.3731C24.3276 59.7223 22.0505 69.4314 22.0021 79.6671ZM154.364 51.0003H160.001V70.3189C159.055 63.5157 157.127 57.0269 154.364 51.0003ZM120.001 50.3336V49.1599C112.5 42.1042 102.425 37.754 91.3353 37.6681V50.3336H120.001ZM90.6686 50.3336V37.6681C79.5779 37.7533 69.5024 42.1034 62.0013 49.1593V50.3336H90.6686ZM22.0013 51.0003H27.6388C24.8754 57.0282 22.9469 63.5186 22.0013 70.3234V51.0003ZM62.0013 16.6378V11.0003H81.3244C74.5196 11.9459 68.0292 13.8744 62.0013 16.6378ZM120.001 16.6375C113.973 13.8743 107.483 11.9459 100.678 11.0003H120.001V16.6375ZM62.0013 149H81.3233C74.5189 148.054 68.0289 146.126 62.0013 143.363V149ZM100.679 149H120.001V143.363C113.973 146.126 107.483 148.055 100.679 149ZM62.0013 142.628V111.75C69.5716 118.668 79.6247 122.915 90.6686 122.999V149C80.4326 148.951 70.7234 146.674 62.0013 142.628ZM62.0013 17.3721V48.2502C69.5716 41.3318 79.6247 37.0849 90.6686 37.0014V11.0011C80.4326 11.0494 70.7234 13.3266 62.0013 17.3721ZM91.3353 149C101.57 148.951 111.279 146.674 120.001 142.629V111.75C112.431 118.668 102.378 122.915 91.3353 122.999V149ZM91.3353 37.0014C102.378 37.0856 112.431 41.3326 120.001 48.2508V17.3718C111.279 13.3266 101.57 11.0496 91.3353 11.0011V37.0014Z" fill="white"/>
</g>
<path fill-rule="evenodd" clip-rule="evenodd" d="M86.7398 32.8892H43.072L61.7222 73.1304H86.7398V32.8892Z" fill="white"/>
<path fill-rule="evenodd" clip-rule="evenodd" d="M111.391 32.8892H111.39H86.738L111.754 86.8656C126.493 86.6707 138.381 74.6647 138.381 59.8796C138.381 44.9732 126.297 32.8895 111.391 32.8892Z" fill="white"/>
<path fill-rule="evenodd" clip-rule="evenodd" d="M86.9236 127.111H130.409L111.758 86.8701H86.9236V127.111Z" fill="white"/>
<path fill-rule="evenodd" clip-rule="evenodd" d="M61.7222 73.1302H43.072L68.0898 127.111H86.7398L61.7222 73.1302Z" fill="white"/>
</g>
</g>
<defs>
<filter id="filter0_dii_237_136643" x="0.866993" y="-1" width="180.266" height="181.266" filterUnits="userSpaceOnUse" color-interpolation-filters="sRGB">
<feFlood flood-opacity="0" result="BackgroundImageFix"/>
<feColorMatrix in="SourceAlpha" type="matrix" values="0 0 0 0 0 0 0 0 0 0 0 0 0 0 0 0 0 0 127 0" result="hardAlpha"/>
<feOffset dy="10.133"/>
<feGaussianBlur stdDeviation="5.0665"/>
<feComposite in2="hardAlpha" operator="out"/>
<feColorMatrix type="matrix" values="0 0 0 0 0.0869411 0 0 0 0 0.296924 0 0 0 0 0.296924 0 0 0 0.12 0"/>
<feBlend mode="multiply" in2="BackgroundImageFix" result="effect1_dropShadow_237_136643"/>
<feBlend mode="normal" in="SourceGraphic" in2="effect1_dropShadow_237_136643" result="shape"/>
<feColorMatrix in="SourceAlpha" type="matrix" values="0 0 0 0 0 0 0 0 0 0 0 0 0 0 0 0 0 0 127 0" result="hardAlpha"/>
<feOffset dy="4"/>
<feGaussianBlur stdDeviation="2"/>
<feComposite in2="hardAlpha" operator="arithmetic" k2="-1" k3="1"/>
<feColorMatrix type="matrix" values="0 0 0 0 1 0 0 0 0 1 0 0 0 0 1 0 0 0 0.4 0"/>
<feBlend mode="screen" in2="shape" result="effect2_innerShadow_237_136643"/>
<feColorMatrix in="SourceAlpha" type="matrix" values="0 0 0 0 0 0 0 0 0 0 0 0 0 0 0 0 0 0 127 0" result="hardAlpha"/>
<feOffset dy="-2"/>
<feGaussianBlur stdDeviation="0.5"/>
<feComposite in2="hardAlpha" operator="arithmetic" k2="-1" k3="1"/>
<feColorMatrix type="matrix" values="0 0 0 0 0.0339574 0 0 0 0 0.494421 0 0 0 0 0.523812 0 0 0 0.6 0"/>
<feBlend mode="multiply" in2="effect2_innerShadow_237_136643" result="effect3_innerShadow_237_136643"/>
</filter>
<linearGradient id="paint0_linear_237_136643" x1="80" y1="0" x2="80" y2="160" gradientUnits="userSpaceOnUse">
<stop stop-color="#57A3EA"/>
<stop offset="0.598958" stop-color="#32CCCC"/>
<stop offset="1" stop-color="#27D9CE"/>
</linearGradient>
<clipPath id="clip0_237_136643">
<rect width="160" height="160" fill="white" transform="translate(11)"/>
</clipPath>
</defs>
</svg>
