<svg width="208" height="28" viewBox="0 0 208 28" fill="none" xmlns="http://www.w3.org/2000/svg">
<path d="M126.773 1.04972C126.773 0.72365 126.773 0.560614 126.72 0.432008C126.649 0.260533 126.513 0.124297 126.341 0.0532703C126.213 0 126.05 0 125.724 0C125.398 0 125.235 0 125.106 0.0532703C124.935 0.124297 124.798 0.260533 124.727 0.432008C124.674 0.560614 124.674 0.72365 124.674 1.04972C124.674 1.3758 124.674 1.53883 124.727 1.66744C124.798 1.83891 124.935 1.97515 125.106 2.04618C125.235 2.09945 125.398 2.09945 125.724 2.09945C126.05 2.09945 126.213 2.09945 126.341 2.04618C126.513 1.97515 126.649 1.83891 126.72 1.66744C126.773 1.53883 126.773 1.3758 126.773 1.04972Z" fill="#32CCCC"/>
<path d="M120.475 1.04972C120.475 0.72365 120.475 0.560614 120.421 0.432008C120.35 0.260533 120.214 0.124297 120.043 0.0532703C119.914 0 119.751 0 119.425 0C119.099 0 118.936 0 118.807 0.0532703C118.636 0.124297 118.499 0.260533 118.428 0.432008C118.375 0.560614 118.375 0.72365 118.375 1.04972C118.375 1.3758 118.375 1.53883 118.428 1.66744C118.499 1.83891 118.636 1.97515 118.807 2.04618C118.936 2.09945 119.099 2.09945 119.425 2.09945C119.751 2.09945 119.914 2.09945 120.043 2.04618C120.214 1.97515 120.35 1.83891 120.421 1.66744C120.475 1.53883 120.475 1.3758 120.475 1.04972Z" fill="#32CCCC"/>
<path d="M114.176 1.04972C114.176 0.72365 114.176 0.560614 114.123 0.432008C114.051 0.260533 113.915 0.124297 113.744 0.0532703C113.615 0 113.452 0 113.126 0C112.8 0 112.637 0 112.508 0.0532703C112.337 0.124297 112.201 0.260533 112.13 0.432008C112.076 0.560614 112.076 0.72365 112.076 1.04972C112.076 1.3758 112.076 1.53883 112.13 1.66744C112.201 1.83891 112.337 1.97515 112.508 2.04618C112.637 2.09945 112.8 2.09945 113.126 2.09945C113.452 2.09945 113.615 2.09945 113.744 2.04618C113.915 1.97515 114.051 1.83891 114.123 1.66744C114.176 1.53883 114.176 1.3758 114.176 1.04972Z" fill="#32CCCC"/>
<path d="M107.879 1.04972C107.879 0.72365 107.879 0.560614 107.825 0.432008C107.754 0.260533 107.618 0.124297 107.447 0.0532703C107.318 0 107.155 0 106.829 0C106.503 0 106.34 0 106.211 0.0532703C106.04 0.124297 105.904 0.260533 105.833 0.432008C105.779 0.560614 105.779 0.72365 105.779 1.04972C105.779 1.3758 105.779 1.53883 105.833 1.66744C105.904 1.83891 106.04 1.97515 106.211 2.04618C106.34 2.09945 106.503 2.09945 106.829 2.09945C107.155 2.09945 107.318 2.09945 107.447 2.04618C107.618 1.97515 107.754 1.83891 107.825 1.66744C107.879 1.53883 107.879 1.3758 107.879 1.04972Z" fill="#32CCCC"/>
<path d="M133.072 7.34855C133.072 7.02248 133.072 6.85944 133.019 6.73084C132.948 6.55936 132.812 6.42313 132.64 6.3521C132.511 6.29883 132.348 6.29883 132.022 6.29883C131.696 6.29883 131.533 6.29883 131.405 6.3521C131.233 6.42313 131.097 6.55936 131.026 6.73084C130.973 6.85944 130.973 7.02248 130.973 7.34855C130.973 7.67463 130.973 7.83766 131.026 7.96627C131.097 8.13774 131.233 8.27398 131.405 8.34501C131.533 8.39828 131.696 8.39828 132.022 8.39828C132.348 8.39828 132.511 8.39828 132.64 8.34501C132.812 8.27398 132.948 8.13774 133.019 7.96627C133.072 7.83766 133.072 7.67463 133.072 7.34855Z" fill="#32CCCC"/>
<path d="M126.773 7.34855C126.773 7.02248 126.773 6.85944 126.72 6.73084C126.649 6.55936 126.513 6.42313 126.341 6.3521C126.213 6.29883 126.05 6.29883 125.724 6.29883C125.398 6.29883 125.235 6.29883 125.106 6.3521C124.935 6.42313 124.798 6.55936 124.727 6.73084C124.674 6.85944 124.674 7.02248 124.674 7.34855C124.674 7.67463 124.674 7.83766 124.727 7.96627C124.798 8.13774 124.935 8.27398 125.106 8.34501C125.235 8.39828 125.398 8.39828 125.724 8.39828C126.05 8.39828 126.213 8.39828 126.341 8.34501C126.513 8.27398 126.649 8.13774 126.72 7.96627C126.773 7.83766 126.773 7.67463 126.773 7.34855Z" fill="#32CCCC"/>
<path d="M120.475 7.34855C120.475 7.02248 120.475 6.85944 120.421 6.73084C120.35 6.55936 120.214 6.42313 120.043 6.3521C119.914 6.29883 119.751 6.29883 119.425 6.29883C119.099 6.29883 118.936 6.29883 118.807 6.3521C118.636 6.42313 118.499 6.55936 118.428 6.73084C118.375 6.85944 118.375 7.02248 118.375 7.34855C118.375 7.67463 118.375 7.83766 118.428 7.96627C118.499 8.13774 118.636 8.27398 118.807 8.34501C118.936 8.39828 119.099 8.39828 119.425 8.39828C119.751 8.39828 119.914 8.39828 120.043 8.34501C120.214 8.27398 120.35 8.13774 120.421 7.96627C120.475 7.83766 120.475 7.67463 120.475 7.34855Z" fill="#32CCCC"/>
<path d="M114.176 7.34855C114.176 7.02248 114.176 6.85944 114.123 6.73084C114.051 6.55936 113.915 6.42313 113.744 6.3521C113.615 6.29883 113.452 6.29883 113.126 6.29883C112.8 6.29883 112.637 6.29883 112.508 6.3521C112.337 6.42313 112.201 6.55936 112.13 6.73084C112.076 6.85944 112.076 7.02248 112.076 7.34855C112.076 7.67463 112.076 7.83766 112.13 7.96627C112.201 8.13774 112.337 8.27398 112.508 8.34501C112.637 8.39828 112.8 8.39828 113.126 8.39828C113.452 8.39828 113.615 8.39828 113.744 8.34501C113.915 8.27398 114.051 8.13774 114.123 7.96627C114.176 7.83766 114.176 7.67463 114.176 7.34855Z" fill="#32CCCC"/>
<path d="M139.371 13.6464C139.371 13.3203 139.371 13.1573 139.318 13.0287C139.247 12.8572 139.111 12.721 138.939 12.6499C138.81 12.5967 138.647 12.5967 138.321 12.5967C137.995 12.5967 137.832 12.5967 137.704 12.6499C137.532 12.721 137.396 12.8572 137.325 13.0287C137.272 13.1573 137.272 13.3203 137.272 13.6464C137.272 13.9725 137.272 14.1355 137.325 14.2641C137.396 14.4356 137.532 14.5718 137.704 14.6429C137.832 14.6961 137.995 14.6961 138.321 14.6961C138.647 14.6961 138.81 14.6961 138.939 14.6429C139.111 14.5718 139.247 14.4356 139.318 14.2641C139.371 14.1355 139.371 13.9725 139.371 13.6464Z" fill="#32CCCC"/>
<path d="M133.072 13.6464C133.072 13.3203 133.072 13.1573 133.019 13.0287C132.948 12.8572 132.812 12.721 132.64 12.6499C132.511 12.5967 132.348 12.5967 132.022 12.5967C131.696 12.5967 131.533 12.5967 131.405 12.6499C131.233 12.721 131.097 12.8572 131.026 13.0287C130.973 13.1573 130.973 13.3203 130.973 13.6464C130.973 13.9725 130.973 14.1355 131.026 14.2641C131.097 14.4356 131.233 14.5718 131.405 14.6429C131.533 14.6961 131.696 14.6961 132.022 14.6961C132.348 14.6961 132.511 14.6961 132.64 14.6429C132.812 14.5718 132.948 14.4356 133.019 14.2641C133.072 14.1355 133.072 13.9725 133.072 13.6464Z" fill="#32CCCC"/>
<path d="M126.773 13.6464C126.773 13.3203 126.773 13.1573 126.72 13.0287C126.649 12.8572 126.513 12.721 126.341 12.6499C126.213 12.5967 126.05 12.5967 125.724 12.5967C125.398 12.5967 125.235 12.5967 125.106 12.6499C124.935 12.721 124.798 12.8572 124.727 13.0287C124.674 13.1573 124.674 13.3203 124.674 13.6464C124.674 13.9725 124.674 14.1355 124.727 14.2641C124.798 14.4356 124.935 14.5718 125.106 14.6429C125.235 14.6961 125.398 14.6961 125.724 14.6961C126.05 14.6961 126.213 14.6961 126.341 14.6429C126.513 14.5718 126.649 14.4356 126.72 14.2641C126.773 14.1355 126.773 13.9725 126.773 13.6464Z" fill="#32CCCC"/>
<path d="M120.475 13.6464C120.475 13.3203 120.475 13.1573 120.421 13.0287C120.35 12.8572 120.214 12.721 120.043 12.6499C119.914 12.5967 119.751 12.5967 119.425 12.5967C119.099 12.5967 118.936 12.5967 118.807 12.6499C118.636 12.721 118.499 12.8572 118.428 13.0287C118.375 13.1573 118.375 13.3203 118.375 13.6464C118.375 13.9725 118.375 14.1355 118.428 14.2641C118.499 14.4356 118.636 14.5718 118.807 14.6429C118.936 14.6961 119.099 14.6961 119.425 14.6961C119.751 14.6961 119.914 14.6961 120.043 14.6429C120.214 14.5718 120.35 14.4356 120.421 14.2641C120.475 14.1355 120.475 13.9725 120.475 13.6464Z" fill="#32CCCC"/>
<path d="M145.668 19.9452C145.668 19.6192 145.668 19.4561 145.615 19.3275C145.544 19.156 145.407 19.0198 145.236 18.9488C145.107 18.8955 144.944 18.8955 144.618 18.8955C144.292 18.8955 144.129 18.8955 144.001 18.9488C143.829 19.0198 143.693 19.156 143.622 19.3275C143.569 19.4561 143.569 19.6192 143.569 19.9452C143.569 20.2713 143.569 20.4343 143.622 20.5629C143.693 20.7344 143.829 20.8707 144.001 20.9417C144.129 20.995 144.292 20.995 144.618 20.995C144.944 20.995 145.107 20.995 145.236 20.9417C145.407 20.8707 145.544 20.7344 145.615 20.5629C145.668 20.4343 145.668 20.2713 145.668 19.9452Z" fill="#32CCCC"/>
<path d="M139.371 19.9452C139.371 19.6192 139.371 19.4561 139.318 19.3275C139.247 19.156 139.111 19.0198 138.939 18.9488C138.81 18.8955 138.647 18.8955 138.321 18.8955C137.995 18.8955 137.832 18.8955 137.704 18.9488C137.532 19.0198 137.396 19.156 137.325 19.3275C137.272 19.4561 137.272 19.6192 137.272 19.9452C137.272 20.2713 137.272 20.4343 137.325 20.5629C137.396 20.7344 137.532 20.8707 137.704 20.9417C137.832 20.995 137.995 20.995 138.321 20.995C138.647 20.995 138.81 20.995 138.939 20.9417C139.111 20.8707 139.247 20.7344 139.318 20.5629C139.371 20.4343 139.371 20.2713 139.371 19.9452Z" fill="#32CCCC"/>
<path d="M133.072 19.9452C133.072 19.6192 133.072 19.4561 133.019 19.3275C132.948 19.156 132.812 19.0198 132.64 18.9488C132.511 18.8955 132.348 18.8955 132.022 18.8955C131.696 18.8955 131.533 18.8955 131.405 18.9488C131.233 19.0198 131.097 19.156 131.026 19.3275C130.973 19.4561 130.973 19.6192 130.973 19.9452C130.973 20.2713 130.973 20.4343 131.026 20.5629C131.097 20.7344 131.233 20.8707 131.405 20.9417C131.533 20.995 131.696 20.995 132.022 20.995C132.348 20.995 132.511 20.995 132.64 20.9417C132.812 20.8707 132.948 20.7344 133.019 20.5629C133.072 20.4343 133.072 20.2713 133.072 19.9452Z" fill="#32CCCC"/>
<path d="M126.773 19.9452C126.773 19.6192 126.773 19.4561 126.72 19.3275C126.649 19.156 126.513 19.0198 126.341 18.9488C126.213 18.8955 126.05 18.8955 125.724 18.8955C125.398 18.8955 125.235 18.8955 125.106 18.9488C124.935 19.0198 124.798 19.156 124.727 19.3275C124.674 19.4561 124.674 19.6192 124.674 19.9452C124.674 20.2713 124.674 20.4343 124.727 20.5629C124.798 20.7344 124.935 20.8707 125.106 20.9417C125.235 20.995 125.398 20.995 125.724 20.995C126.05 20.995 126.213 20.995 126.341 20.9417C126.513 20.8707 126.649 20.7344 126.72 20.5629C126.773 20.4343 126.773 20.2713 126.773 19.9452Z" fill="#32CCCC"/>
<path d="M151.967 26.2431C151.967 25.917 151.967 25.754 151.914 25.6254C151.842 25.4539 151.706 25.3177 151.535 25.2466C151.406 25.1934 151.243 25.1934 150.917 25.1934C150.591 25.1934 150.428 25.1934 150.299 25.2466C150.128 25.3177 149.992 25.4539 149.921 25.6254C149.867 25.754 149.867 25.917 149.867 26.2431C149.867 26.5692 149.867 26.7322 149.921 26.8608C149.992 27.0323 150.128 27.1685 150.299 27.2395C150.428 27.2928 150.591 27.2928 150.917 27.2928C151.243 27.2928 151.406 27.2928 151.535 27.2395C151.706 27.1685 151.842 27.0323 151.914 26.8608C151.967 26.7322 151.967 26.5692 151.967 26.2431Z" fill="#32CCCC"/>
<path d="M145.668 26.2431C145.668 25.917 145.668 25.754 145.615 25.6254C145.544 25.4539 145.407 25.3177 145.236 25.2466C145.107 25.1934 144.944 25.1934 144.618 25.1934C144.292 25.1934 144.129 25.1934 144.001 25.2466C143.829 25.3177 143.693 25.4539 143.622 25.6254C143.569 25.754 143.569 25.917 143.569 26.2431C143.569 26.5692 143.569 26.7322 143.622 26.8608C143.693 27.0323 143.829 27.1685 144.001 27.2395C144.129 27.2928 144.292 27.2928 144.618 27.2928C144.944 27.2928 145.107 27.2928 145.236 27.2395C145.407 27.1685 145.544 27.0323 145.615 26.8608C145.668 26.7322 145.668 26.5692 145.668 26.2431Z" fill="#32CCCC"/>
<path d="M139.371 26.2431C139.371 25.917 139.371 25.754 139.318 25.6254C139.247 25.4539 139.111 25.3177 138.939 25.2466C138.81 25.1934 138.647 25.1934 138.321 25.1934C137.995 25.1934 137.832 25.1934 137.704 25.2466C137.532 25.3177 137.396 25.4539 137.325 25.6254C137.272 25.754 137.272 25.917 137.272 26.2431C137.272 26.5692 137.272 26.7322 137.325 26.8608C137.396 27.0323 137.532 27.1685 137.704 27.2395C137.832 27.2928 137.995 27.2928 138.321 27.2928C138.647 27.2928 138.81 27.2928 138.939 27.2395C139.111 27.1685 139.247 27.0323 139.318 26.8608C139.371 26.7322 139.371 26.5692 139.371 26.2431Z" fill="#32CCCC"/>
<path d="M133.072 26.2431C133.072 25.917 133.072 25.754 133.019 25.6254C132.948 25.4539 132.812 25.3177 132.64 25.2466C132.511 25.1934 132.348 25.1934 132.022 25.1934C131.696 25.1934 131.533 25.1934 131.405 25.2466C131.233 25.3177 131.097 25.4539 131.026 25.6254C130.973 25.754 130.973 25.917 130.973 26.2431C130.973 26.5692 130.973 26.7322 131.026 26.8608C131.097 27.0323 131.233 27.1685 131.405 27.2395C131.533 27.2928 131.696 27.2928 132.022 27.2928C132.348 27.2928 132.511 27.2928 132.64 27.2395C132.812 27.1685 132.948 27.0323 133.019 26.8608C133.072 26.7322 133.072 26.5692 133.072 26.2431Z" fill="#32CCCC"/>
<path d="M33.5898 1.04972C33.5898 0.72365 33.5898 0.560614 33.5366 0.432008C33.4655 0.260533 33.3293 0.124297 33.1578 0.0532703C33.0292 0 32.8662 0 32.5401 0C32.214 0 32.051 0 31.9224 0.0532703C31.7509 0.124297 31.6147 0.260533 31.5437 0.432008C31.4904 0.560614 31.4904 0.72365 31.4904 1.04972C31.4904 1.3758 31.4904 1.53883 31.5437 1.66744C31.6147 1.83891 31.7509 1.97515 31.9224 2.04618C32.051 2.09945 32.214 2.09945 32.5401 2.09945C32.8662 2.09945 33.0292 2.09945 33.1578 2.04618C33.3293 1.97515 33.4655 1.83891 33.5366 1.66744C33.5898 1.53883 33.5898 1.3758 33.5898 1.04972Z" fill="#32CCCC"/>
<path d="M27.2928 1.04972C27.2928 0.72365 27.2928 0.560614 27.2395 0.432008C27.1685 0.260533 27.0323 0.124297 26.8608 0.0532703C26.7322 0 26.5692 0 26.2431 0C25.917 0 25.754 0 25.6254 0.0532703C25.4539 0.124297 25.3177 0.260533 25.2466 0.432008C25.1934 0.560614 25.1934 0.72365 25.1934 1.04972C25.1934 1.3758 25.1934 1.53883 25.2466 1.66744C25.3177 1.83891 25.4539 1.97515 25.6254 2.04618C25.754 2.09945 25.917 2.09945 26.2431 2.09945C26.5692 2.09945 26.7322 2.09945 26.8608 2.04618C27.0323 1.97515 27.1685 1.83891 27.2395 1.66744C27.2928 1.53883 27.2928 1.3758 27.2928 1.04972Z" fill="#32CCCC"/>
<path d="M20.9941 1.04972C20.9941 0.72365 20.9941 0.560614 20.9409 0.432008C20.8698 0.260533 20.7336 0.124297 20.5621 0.0532703C20.4335 0 20.2705 0 19.9444 0C19.6183 0 19.4553 0 19.3267 0.0532703C19.1552 0.124297 19.019 0.260533 18.948 0.432008C18.8947 0.560614 18.8947 0.72365 18.8947 1.04972C18.8947 1.3758 18.8947 1.53883 18.948 1.66744C19.019 1.83891 19.1552 1.97515 19.3267 2.04618C19.4553 2.09945 19.6183 2.09945 19.9444 2.09945C20.2705 2.09945 20.4335 2.09945 20.5621 2.04618C20.7336 1.97515 20.8698 1.83891 20.9409 1.66744C20.9941 1.53883 20.9941 1.3758 20.9941 1.04972Z" fill="#32CCCC"/>
<path d="M14.6953 1.04972C14.6953 0.72365 14.6953 0.560614 14.642 0.432008C14.571 0.260533 14.4348 0.124297 14.2633 0.0532703C14.1347 0 13.9717 0 13.6456 0C13.3195 0 13.1565 0 13.0279 0.0532703C12.8564 0.124297 12.7202 0.260533 12.6491 0.432008C12.5959 0.560614 12.5959 0.72365 12.5959 1.04972C12.5959 1.3758 12.5959 1.53883 12.6491 1.66744C12.7202 1.83891 12.8564 1.97515 13.0279 2.04618C13.1565 2.09945 13.3195 2.09945 13.6456 2.09945C13.9717 2.09945 14.1347 2.09945 14.2633 2.04618C14.4348 1.97515 14.571 1.83891 14.642 1.66744C14.6953 1.53883 14.6953 1.3758 14.6953 1.04972Z" fill="#32CCCC"/>
<path d="M8.39844 1.04972C8.39844 0.72365 8.39844 0.560614 8.34517 0.432008C8.27414 0.260533 8.1379 0.124297 7.96643 0.0532703C7.83782 0 7.67479 0 7.34871 0C7.02264 0 6.8596 0 6.731 0.0532703C6.55952 0.124297 6.42329 0.260533 6.35226 0.432008C6.29899 0.560614 6.29899 0.72365 6.29899 1.04972C6.29899 1.3758 6.29899 1.53883 6.35226 1.66744C6.42329 1.83891 6.55952 1.97515 6.731 2.04618C6.8596 2.09945 7.02264 2.09945 7.34871 2.09945C7.67479 2.09945 7.83782 2.09945 7.96643 2.04618C8.1379 1.97515 8.27414 1.83891 8.34517 1.66744C8.39844 1.53883 8.39844 1.3758 8.39844 1.04972Z" fill="#32CCCC"/>
<path d="M39.8887 7.34855C39.8887 7.02248 39.8887 6.85944 39.8354 6.73084C39.7644 6.55936 39.6281 6.42313 39.4567 6.3521C39.3281 6.29883 39.165 6.29883 38.8389 6.29883C38.5129 6.29883 38.3498 6.29883 38.2212 6.3521C38.0498 6.42313 37.9135 6.55936 37.8425 6.73084C37.7892 6.85944 37.7892 7.02248 37.7892 7.34855C37.7892 7.67463 37.7892 7.83766 37.8425 7.96627C37.9135 8.13774 38.0498 8.27398 38.2212 8.34501C38.3498 8.39828 38.5129 8.39828 38.8389 8.39828C39.165 8.39828 39.3281 8.39828 39.4567 8.34501C39.6281 8.27398 39.7644 8.13774 39.8354 7.96627C39.8887 7.83766 39.8887 7.67463 39.8887 7.34855Z" fill="#32CCCC"/>
<path d="M33.5898 7.34855C33.5898 7.02248 33.5898 6.85944 33.5366 6.73084C33.4655 6.55936 33.3293 6.42313 33.1578 6.3521C33.0292 6.29883 32.8662 6.29883 32.5401 6.29883C32.214 6.29883 32.051 6.29883 31.9224 6.3521C31.7509 6.42313 31.6147 6.55936 31.5437 6.73084C31.4904 6.85944 31.4904 7.02248 31.4904 7.34855C31.4904 7.67463 31.4904 7.83766 31.5437 7.96627C31.6147 8.13774 31.7509 8.27398 31.9224 8.34501C32.051 8.39828 32.214 8.39828 32.5401 8.39828C32.8662 8.39828 33.0292 8.39828 33.1578 8.34501C33.3293 8.27398 33.4655 8.13774 33.5366 7.96627C33.5898 7.83766 33.5898 7.67463 33.5898 7.34855Z" fill="#32CCCC"/>
<path d="M27.2928 7.34855C27.2928 7.02248 27.2928 6.85944 27.2395 6.73084C27.1685 6.55936 27.0323 6.42313 26.8608 6.3521C26.7322 6.29883 26.5692 6.29883 26.2431 6.29883C25.917 6.29883 25.754 6.29883 25.6254 6.3521C25.4539 6.42313 25.3177 6.55936 25.2466 6.73084C25.1934 6.85944 25.1934 7.02248 25.1934 7.34855C25.1934 7.67463 25.1934 7.83766 25.2466 7.96627C25.3177 8.13774 25.4539 8.27398 25.6254 8.34501C25.754 8.39828 25.917 8.39828 26.2431 8.39828C26.5692 8.39828 26.7322 8.39828 26.8608 8.34501C27.0323 8.27398 27.1685 8.13774 27.2395 7.96627C27.2928 7.83766 27.2928 7.67463 27.2928 7.34855Z" fill="#32CCCC"/>
<path d="M20.9941 7.34855C20.9941 7.02248 20.9941 6.85944 20.9409 6.73084C20.8698 6.55936 20.7336 6.42313 20.5621 6.3521C20.4335 6.29883 20.2705 6.29883 19.9444 6.29883C19.6183 6.29883 19.4553 6.29883 19.3267 6.3521C19.1552 6.42313 19.019 6.55936 18.948 6.73084C18.8947 6.85944 18.8947 7.02248 18.8947 7.34855C18.8947 7.67463 18.8947 7.83766 18.948 7.96627C19.019 8.13774 19.1552 8.27398 19.3267 8.34501C19.4553 8.39828 19.6183 8.39828 19.9444 8.39828C20.2705 8.39828 20.4335 8.39828 20.5621 8.34501C20.7336 8.27398 20.8698 8.13774 20.9409 7.96627C20.9941 7.83766 20.9941 7.67463 20.9941 7.34855Z" fill="#32CCCC"/>
<path d="M14.6953 7.34855C14.6953 7.02248 14.6953 6.85944 14.642 6.73084C14.571 6.55936 14.4348 6.42313 14.2633 6.3521C14.1347 6.29883 13.9717 6.29883 13.6456 6.29883C13.3195 6.29883 13.1565 6.29883 13.0279 6.3521C12.8564 6.42313 12.7202 6.55936 12.6491 6.73084C12.5959 6.85944 12.5959 7.02248 12.5959 7.34855C12.5959 7.67463 12.5959 7.83766 12.6491 7.96627C12.7202 8.13774 12.8564 8.27398 13.0279 8.34501C13.1565 8.39828 13.3195 8.39828 13.6456 8.39828C13.9717 8.39828 14.1347 8.39828 14.2633 8.34501C14.4348 8.27398 14.571 8.13774 14.642 7.96627C14.6953 7.83766 14.6953 7.67463 14.6953 7.34855Z" fill="#32CCCC"/>
<path d="M8.39844 7.34855C8.39844 7.02248 8.39844 6.85944 8.34517 6.73084C8.27414 6.55936 8.1379 6.42313 7.96643 6.3521C7.83782 6.29883 7.67479 6.29883 7.34871 6.29883C7.02264 6.29883 6.8596 6.29883 6.731 6.3521C6.55952 6.42313 6.42329 6.55936 6.35226 6.73084C6.29899 6.85944 6.29899 7.02248 6.29899 7.34855C6.29899 7.67463 6.29899 7.83766 6.35226 7.96627C6.42329 8.13774 6.55952 8.27398 6.731 8.34501C6.8596 8.39828 7.02264 8.39828 7.34871 8.39828C7.67479 8.39828 7.83782 8.39828 7.96643 8.34501C8.1379 8.27398 8.27414 8.13774 8.34517 7.96627C8.39844 7.83766 8.39844 7.67463 8.39844 7.34855Z" fill="#32CCCC"/>
<path d="M2.09944 7.34855C2.09944 7.02248 2.09944 6.85944 2.04617 6.73084C1.97514 6.55936 1.83891 6.42313 1.66743 6.3521C1.53883 6.29883 1.37579 6.29883 1.04972 6.29883C0.723644 6.29883 0.560608 6.29883 0.432002 6.3521C0.260527 6.42313 0.124291 6.55936 0.0532644 6.73084C-5.96046e-06 6.85944 -5.96046e-06 7.02248 -5.96046e-06 7.34855C-5.96046e-06 7.67463 -5.96046e-06 7.83766 0.0532644 7.96627C0.124291 8.13774 0.260527 8.27398 0.432002 8.34501C0.560608 8.39828 0.723644 8.39828 1.04972 8.39828C1.37579 8.39828 1.53883 8.39828 1.66743 8.34501C1.83891 8.27398 1.97514 8.13774 2.04617 7.96627C2.09944 7.83766 2.09944 7.67463 2.09944 7.34855Z" fill="#32CCCC"/>
<path d="M39.8887 13.6464C39.8887 13.3203 39.8887 13.1573 39.8354 13.0287C39.7644 12.8572 39.6281 12.721 39.4567 12.6499C39.3281 12.5967 39.165 12.5967 38.8389 12.5967C38.5129 12.5967 38.3498 12.5967 38.2212 12.6499C38.0498 12.721 37.9135 12.8572 37.8425 13.0287C37.7892 13.1573 37.7892 13.3203 37.7892 13.6464C37.7892 13.9725 37.7892 14.1355 37.8425 14.2641C37.9135 14.4356 38.0498 14.5718 38.2212 14.6429C38.3498 14.6961 38.5129 14.6961 38.8389 14.6961C39.165 14.6961 39.3281 14.6961 39.4567 14.6429C39.6281 14.5718 39.7644 14.4356 39.8354 14.2641C39.8887 14.1355 39.8887 13.9725 39.8887 13.6464Z" fill="#32CCCC"/>
<path d="M33.5898 13.6464C33.5898 13.3203 33.5898 13.1573 33.5366 13.0287C33.4655 12.8572 33.3293 12.721 33.1578 12.6499C33.0292 12.5967 32.8662 12.5967 32.5401 12.5967C32.214 12.5967 32.051 12.5967 31.9224 12.6499C31.7509 12.721 31.6147 12.8572 31.5437 13.0287C31.4904 13.1573 31.4904 13.3203 31.4904 13.6464C31.4904 13.9725 31.4904 14.1355 31.5437 14.2641C31.6147 14.4356 31.7509 14.5718 31.9224 14.6429C32.051 14.6961 32.214 14.6961 32.5401 14.6961C32.8662 14.6961 33.0292 14.6961 33.1578 14.6429C33.3293 14.5718 33.4655 14.4356 33.5366 14.2641C33.5898 14.1355 33.5898 13.9725 33.5898 13.6464Z" fill="#32CCCC"/>
<path d="M27.2928 13.6464C27.2928 13.3203 27.2928 13.1573 27.2395 13.0287C27.1685 12.8572 27.0323 12.721 26.8608 12.6499C26.7322 12.5967 26.5692 12.5967 26.2431 12.5967C25.917 12.5967 25.754 12.5967 25.6254 12.6499C25.4539 12.721 25.3177 12.8572 25.2466 13.0287C25.1934 13.1573 25.1934 13.3203 25.1934 13.6464C25.1934 13.9725 25.1934 14.1355 25.2466 14.2641C25.3177 14.4356 25.4539 14.5718 25.6254 14.6429C25.754 14.6961 25.917 14.6961 26.2431 14.6961C26.5692 14.6961 26.7322 14.6961 26.8608 14.6429C27.0323 14.5718 27.1685 14.4356 27.2395 14.2641C27.2928 14.1355 27.2928 13.9725 27.2928 13.6464Z" fill="#32CCCC"/>
<path d="M14.6953 13.6464C14.6953 13.3203 14.6953 13.1573 14.642 13.0287C14.571 12.8572 14.4348 12.721 14.2633 12.6499C14.1347 12.5967 13.9717 12.5967 13.6456 12.5967C13.3195 12.5967 13.1565 12.5967 13.0279 12.6499C12.8564 12.721 12.7202 12.8572 12.6491 13.0287C12.5959 13.1573 12.5959 13.3203 12.5959 13.6464C12.5959 13.9725 12.5959 14.1355 12.6491 14.2641C12.7202 14.4356 12.8564 14.5718 13.0279 14.6429C13.1565 14.6961 13.3195 14.6961 13.6456 14.6961C13.9717 14.6961 14.1347 14.6961 14.2633 14.6429C14.4348 14.5718 14.571 14.4356 14.642 14.2641C14.6953 14.1355 14.6953 13.9725 14.6953 13.6464Z" fill="#32CCCC"/>
<path d="M8.39844 13.6464C8.39844 13.3203 8.39844 13.1573 8.34517 13.0287C8.27414 12.8572 8.1379 12.721 7.96643 12.6499C7.83782 12.5967 7.67479 12.5967 7.34871 12.5967C7.02264 12.5967 6.8596 12.5967 6.731 12.6499C6.55952 12.721 6.42329 12.8572 6.35226 13.0287C6.29899 13.1573 6.29899 13.3203 6.29899 13.6464C6.29899 13.9725 6.29899 14.1355 6.35226 14.2641C6.42329 14.4356 6.55952 14.5718 6.731 14.6429C6.8596 14.6961 7.02264 14.6961 7.34871 14.6961C7.67479 14.6961 7.83782 14.6961 7.96643 14.6429C8.1379 14.5718 8.27414 14.4356 8.34517 14.2641C8.39844 14.1355 8.39844 13.9725 8.39844 13.6464Z" fill="#32CCCC"/>
<path d="M2.09944 13.6464C2.09944 13.3203 2.09944 13.1573 2.04617 13.0287C1.97514 12.8572 1.83891 12.721 1.66743 12.6499C1.53883 12.5967 1.37579 12.5967 1.04972 12.5967C0.723644 12.5967 0.560608 12.5967 0.432002 12.6499C0.260527 12.721 0.124291 12.8572 0.0532644 13.0287C-5.96046e-06 13.1573 -5.96046e-06 13.3203 -5.96046e-06 13.6464C-5.96046e-06 13.9725 -5.96046e-06 14.1355 0.0532644 14.2641C0.124291 14.4356 0.260527 14.5718 0.432002 14.6429C0.560608 14.6961 0.723644 14.6961 1.04972 14.6961C1.37579 14.6961 1.53883 14.6961 1.66743 14.6429C1.83891 14.5718 1.97514 14.4356 2.04617 14.2641C2.09944 14.1355 2.09944 13.9725 2.09944 13.6464Z" fill="#32CCCC"/>
<path d="M39.8887 19.9452C39.8887 19.6192 39.8887 19.4561 39.8354 19.3275C39.7644 19.156 39.6281 19.0198 39.4567 18.9488C39.3281 18.8955 39.165 18.8955 38.8389 18.8955C38.5129 18.8955 38.3498 18.8955 38.2212 18.9488C38.0498 19.0198 37.9135 19.156 37.8425 19.3275C37.7892 19.4561 37.7892 19.6192 37.7892 19.9452C37.7892 20.2713 37.7892 20.4343 37.8425 20.5629C37.9135 20.7344 38.0498 20.8707 38.2212 20.9417C38.3498 20.995 38.5129 20.995 38.8389 20.995C39.165 20.995 39.3281 20.995 39.4567 20.9417C39.6281 20.8707 39.7644 20.7344 39.8354 20.5629C39.8887 20.4343 39.8887 20.2713 39.8887 19.9452Z" fill="#32CCCC"/>
<path d="M33.5898 19.9452C33.5898 19.6192 33.5898 19.4561 33.5366 19.3275C33.4655 19.156 33.3293 19.0198 33.1578 18.9488C33.0292 18.8955 32.8662 18.8955 32.5401 18.8955C32.214 18.8955 32.051 18.8955 31.9224 18.9488C31.7509 19.0198 31.6147 19.156 31.5437 19.3275C31.4904 19.4561 31.4904 19.6192 31.4904 19.9452C31.4904 20.2713 31.4904 20.4343 31.5437 20.5629C31.6147 20.7344 31.7509 20.8707 31.9224 20.9417C32.051 20.995 32.214 20.995 32.5401 20.995C32.8662 20.995 33.0292 20.995 33.1578 20.9417C33.3293 20.8707 33.4655 20.7344 33.5366 20.5629C33.5898 20.4343 33.5898 20.2713 33.5898 19.9452Z" fill="#32CCCC"/>
<path d="M27.2928 19.9452C27.2928 19.6192 27.2928 19.4561 27.2395 19.3275C27.1685 19.156 27.0323 19.0198 26.8608 18.9488C26.7322 18.8955 26.5692 18.8955 26.2431 18.8955C25.917 18.8955 25.754 18.8955 25.6254 18.9488C25.4539 19.0198 25.3177 19.156 25.2466 19.3275C25.1934 19.4561 25.1934 19.6192 25.1934 19.9452C25.1934 20.2713 25.1934 20.4343 25.2466 20.5629C25.3177 20.7344 25.4539 20.8707 25.6254 20.9417C25.754 20.995 25.917 20.995 26.2431 20.995C26.5692 20.995 26.7322 20.995 26.8608 20.9417C27.0323 20.8707 27.1685 20.7344 27.2395 20.5629C27.2928 20.4343 27.2928 20.2713 27.2928 19.9452Z" fill="#32CCCC"/>
<path d="M20.9941 19.9452C20.9941 19.6192 20.9941 19.4561 20.9409 19.3275C20.8698 19.156 20.7336 19.0198 20.5621 18.9488C20.4335 18.8955 20.2705 18.8955 19.9444 18.8955C19.6183 18.8955 19.4553 18.8955 19.3267 18.9488C19.1552 19.0198 19.019 19.156 18.948 19.3275C18.8947 19.4561 18.8947 19.6192 18.8947 19.9452C18.8947 20.2713 18.8947 20.4343 18.948 20.5629C19.019 20.7344 19.1552 20.8707 19.3267 20.9417C19.4553 20.995 19.6183 20.995 19.9444 20.995C20.2705 20.995 20.4335 20.995 20.5621 20.9417C20.7336 20.8707 20.8698 20.7344 20.9409 20.5629C20.9941 20.4343 20.9941 20.2713 20.9941 19.9452Z" fill="#32CCCC"/>
<path d="M14.6953 19.9452C14.6953 19.6192 14.6953 19.4561 14.642 19.3275C14.571 19.156 14.4348 19.0198 14.2633 18.9488C14.1347 18.8955 13.9717 18.8955 13.6456 18.8955C13.3195 18.8955 13.1565 18.8955 13.0279 18.9488C12.8564 19.0198 12.7202 19.156 12.6491 19.3275C12.5959 19.4561 12.5959 19.6192 12.5959 19.9452C12.5959 20.2713 12.5959 20.4343 12.6491 20.5629C12.7202 20.7344 12.8564 20.8707 13.0279 20.9417C13.1565 20.995 13.3195 20.995 13.6456 20.995C13.9717 20.995 14.1347 20.995 14.2633 20.9417C14.4348 20.8707 14.571 20.7344 14.642 20.5629C14.6953 20.4343 14.6953 20.2713 14.6953 19.9452Z" fill="#32CCCC"/>
<path d="M8.39844 19.9452C8.39844 19.6192 8.39844 19.4561 8.34517 19.3275C8.27414 19.156 8.1379 19.0198 7.96643 18.9488C7.83782 18.8955 7.67479 18.8955 7.34871 18.8955C7.02264 18.8955 6.8596 18.8955 6.731 18.9488C6.55952 19.0198 6.42329 19.156 6.35226 19.3275C6.29899 19.4561 6.29899 19.6192 6.29899 19.9452C6.29899 20.2713 6.29899 20.4343 6.35226 20.5629C6.42329 20.7344 6.55952 20.8707 6.731 20.9417C6.8596 20.995 7.02264 20.995 7.34871 20.995C7.67479 20.995 7.83782 20.995 7.96643 20.9417C8.1379 20.8707 8.27414 20.7344 8.34517 20.5629C8.39844 20.4343 8.39844 20.2713 8.39844 19.9452Z" fill="#32CCCC"/>
<path d="M2.09944 19.9452C2.09944 19.6192 2.09944 19.4561 2.04617 19.3275C1.97514 19.156 1.83891 19.0198 1.66743 18.9488C1.53883 18.8955 1.37579 18.8955 1.04972 18.8955C0.723644 18.8955 0.560608 18.8955 0.432002 18.9488C0.260527 19.0198 0.124291 19.156 0.0532644 19.3275C-5.96046e-06 19.4561 -5.96046e-06 19.6192 -5.96046e-06 19.9452C-5.96046e-06 20.2713 -5.96046e-06 20.4343 0.0532644 20.5629C0.124291 20.7344 0.260527 20.8707 0.432002 20.9417C0.560608 20.995 0.723644 20.995 1.04972 20.995C1.37579 20.995 1.53883 20.995 1.66743 20.9417C1.83891 20.8707 1.97514 20.7344 2.04617 20.5629C2.09944 20.4343 2.09944 20.2713 2.09944 19.9452Z" fill="#32CCCC"/>
<path d="M33.5898 26.2431C33.5898 25.917 33.5898 25.754 33.5366 25.6254C33.4655 25.4539 33.3293 25.3177 33.1578 25.2466C33.0292 25.1934 32.8662 25.1934 32.5401 25.1934C32.214 25.1934 32.051 25.1934 31.9224 25.2466C31.7509 25.3177 31.6147 25.4539 31.5437 25.6254C31.4904 25.754 31.4904 25.917 31.4904 26.2431C31.4904 26.5692 31.4904 26.7322 31.5437 26.8608C31.6147 27.0323 31.7509 27.1685 31.9224 27.2395C32.051 27.2928 32.214 27.2928 32.5401 27.2928C32.8662 27.2928 33.0292 27.2928 33.1578 27.2395C33.3293 27.1685 33.4655 27.0323 33.5366 26.8608C33.5898 26.7322 33.5898 26.5692 33.5898 26.2431Z" fill="#32CCCC"/>
<path d="M27.2928 26.2431C27.2928 25.917 27.2928 25.754 27.2395 25.6254C27.1685 25.4539 27.0323 25.3177 26.8608 25.2466C26.7322 25.1934 26.5692 25.1934 26.2431 25.1934C25.917 25.1934 25.754 25.1934 25.6254 25.2466C25.4539 25.3177 25.3177 25.4539 25.2466 25.6254C25.1934 25.754 25.1934 25.917 25.1934 26.2431C25.1934 26.5692 25.1934 26.7322 25.2466 26.8608C25.3177 27.0323 25.4539 27.1685 25.6254 27.2395C25.754 27.2928 25.917 27.2928 26.2431 27.2928C26.5692 27.2928 26.7322 27.2928 26.8608 27.2395C27.0323 27.1685 27.1685 27.0323 27.2395 26.8608C27.2928 26.7322 27.2928 26.5692 27.2928 26.2431Z" fill="#32CCCC"/>
<path d="M20.9941 26.2431C20.9941 25.917 20.9941 25.754 20.9409 25.6254C20.8698 25.4539 20.7336 25.3177 20.5621 25.2466C20.4335 25.1934 20.2705 25.1934 19.9444 25.1934C19.6183 25.1934 19.4553 25.1934 19.3267 25.2466C19.1552 25.3177 19.019 25.4539 18.948 25.6254C18.8947 25.754 18.8947 25.917 18.8947 26.2431C18.8947 26.5692 18.8947 26.7322 18.948 26.8608C19.019 27.0323 19.1552 27.1685 19.3267 27.2395C19.4553 27.2928 19.6183 27.2928 19.9444 27.2928C20.2705 27.2928 20.4335 27.2928 20.5621 27.2395C20.7336 27.1685 20.8698 27.0323 20.9409 26.8608C20.9941 26.7322 20.9941 26.5692 20.9941 26.2431Z" fill="#32CCCC"/>
<path d="M14.6953 26.2431C14.6953 25.917 14.6953 25.754 14.642 25.6254C14.571 25.4539 14.4348 25.3177 14.2633 25.2466C14.1347 25.1934 13.9717 25.1934 13.6456 25.1934C13.3195 25.1934 13.1565 25.1934 13.0279 25.2466C12.8564 25.3177 12.7202 25.4539 12.6491 25.6254C12.5959 25.754 12.5959 25.917 12.5959 26.2431C12.5959 26.5692 12.5959 26.7322 12.6491 26.8608C12.7202 27.0323 12.8564 27.1685 13.0279 27.2395C13.1565 27.2928 13.3195 27.2928 13.6456 27.2928C13.9717 27.2928 14.1347 27.2928 14.2633 27.2395C14.4348 27.1685 14.571 27.0323 14.642 26.8608C14.6953 26.7322 14.6953 26.5692 14.6953 26.2431Z" fill="#32CCCC"/>
<path d="M8.39844 26.2431C8.39844 25.917 8.39844 25.754 8.34517 25.6254C8.27414 25.4539 8.1379 25.3177 7.96643 25.2466C7.83782 25.1934 7.67479 25.1934 7.34871 25.1934C7.02264 25.1934 6.8596 25.1934 6.731 25.2466C6.55952 25.3177 6.42329 25.4539 6.35226 25.6254C6.29899 25.754 6.29899 25.917 6.29899 26.2431C6.29899 26.5692 6.29899 26.7322 6.35226 26.8608C6.42329 27.0323 6.55952 27.1685 6.731 27.2395C6.8596 27.2928 7.02264 27.2928 7.34871 27.2928C7.67479 27.2928 7.83782 27.2928 7.96643 27.2395C8.1379 27.1685 8.27414 27.0323 8.34517 26.8608C8.39844 26.7322 8.39844 26.5692 8.39844 26.2431Z" fill="#32CCCC"/>
<path d="M186.861 1.04972C186.861 0.72365 186.861 0.560614 186.915 0.432008C186.986 0.260533 187.122 0.124297 187.293 0.0532703C187.422 0 187.585 0 187.911 0C188.237 0 188.4 0 188.529 0.0532703C188.7 0.124297 188.836 0.260533 188.908 0.432008C188.961 0.560614 188.961 0.72365 188.961 1.04972C188.961 1.3758 188.961 1.53883 188.908 1.66744C188.836 1.83891 188.7 1.97515 188.529 2.04618C188.4 2.09945 188.237 2.09945 187.911 2.09945C187.585 2.09945 187.422 2.09945 187.293 2.04618C187.122 1.97515 186.986 1.83891 186.915 1.66744C186.861 1.53883 186.861 1.3758 186.861 1.04972Z" fill="#32CCCC"/>
<path d="M167.967 7.34855C167.967 7.02248 167.967 6.85944 168.02 6.73084C168.091 6.55936 168.227 6.42313 168.399 6.3521C168.527 6.29883 168.69 6.29883 169.017 6.29883C169.343 6.29883 169.506 6.29883 169.634 6.3521C169.806 6.42313 169.942 6.55936 170.013 6.73084C170.066 6.85944 170.066 7.02248 170.066 7.34855C170.066 7.67463 170.066 7.83766 170.013 7.96627C169.942 8.13774 169.806 8.27398 169.634 8.34501C169.506 8.39828 169.343 8.39828 169.017 8.39828C168.69 8.39828 168.527 8.39828 168.399 8.34501C168.227 8.27398 168.091 8.13774 168.02 7.96627C167.967 7.83766 167.967 7.67463 167.967 7.34855Z" fill="#32CCCC"/>
<path d="M174.264 7.34855C174.264 7.02248 174.264 6.85944 174.317 6.73084C174.388 6.55936 174.524 6.42313 174.696 6.3521C174.824 6.29883 174.987 6.29883 175.313 6.29883C175.639 6.29883 175.803 6.29883 175.931 6.3521C176.103 6.42313 176.239 6.55936 176.31 6.73084C176.363 6.85944 176.363 7.02248 176.363 7.34855C176.363 7.67463 176.363 7.83766 176.31 7.96627C176.239 8.13774 176.103 8.27398 175.931 8.34501C175.803 8.39828 175.639 8.39828 175.313 8.39828C174.987 8.39828 174.824 8.39828 174.696 8.34501C174.524 8.27398 174.388 8.13774 174.317 7.96627C174.264 7.83766 174.264 7.67463 174.264 7.34855Z" fill="#32CCCC"/>
<path d="M180.563 7.34855C180.563 7.02248 180.563 6.85944 180.616 6.73084C180.687 6.55936 180.823 6.42313 180.995 6.3521C181.123 6.29883 181.286 6.29883 181.612 6.29883C181.938 6.29883 182.101 6.29883 182.23 6.3521C182.402 6.42313 182.538 6.55936 182.609 6.73084C182.662 6.85944 182.662 7.02248 182.662 7.34855C182.662 7.67463 182.662 7.83766 182.609 7.96627C182.538 8.13774 182.402 8.27398 182.23 8.34501C182.101 8.39828 181.938 8.39828 181.612 8.39828C181.286 8.39828 181.123 8.39828 180.995 8.34501C180.823 8.27398 180.687 8.13774 180.616 7.96627C180.563 7.83766 180.563 7.67463 180.563 7.34855Z" fill="#32CCCC"/>
<path d="M186.861 7.34855C186.861 7.02248 186.861 6.85944 186.915 6.73084C186.986 6.55936 187.122 6.42313 187.293 6.3521C187.422 6.29883 187.585 6.29883 187.911 6.29883C188.237 6.29883 188.4 6.29883 188.529 6.3521C188.7 6.42313 188.836 6.55936 188.908 6.73084C188.961 6.85944 188.961 7.02248 188.961 7.34855C188.961 7.67463 188.961 7.83766 188.908 7.96627C188.836 8.13774 188.7 8.27398 188.529 8.34501C188.4 8.39828 188.237 8.39828 187.911 8.39828C187.585 8.39828 187.422 8.39828 187.293 8.34501C187.122 8.27398 186.986 8.13774 186.915 7.96627C186.861 7.83766 186.861 7.67463 186.861 7.34855Z" fill="#32CCCC"/>
<path d="M193.16 7.34855C193.16 7.02248 193.16 6.85944 193.213 6.73084C193.284 6.55936 193.421 6.42313 193.592 6.3521C193.721 6.29883 193.884 6.29883 194.21 6.29883C194.536 6.29883 194.699 6.29883 194.828 6.3521C194.999 6.42313 195.135 6.55936 195.206 6.73084C195.26 6.85944 195.26 7.02248 195.26 7.34855C195.26 7.67463 195.26 7.83766 195.206 7.96627C195.135 8.13774 194.999 8.27398 194.828 8.34501C194.699 8.39828 194.536 8.39828 194.21 8.39828C193.884 8.39828 193.721 8.39828 193.592 8.34501C193.421 8.27398 193.284 8.13774 193.213 7.96627C193.16 7.83766 193.16 7.67463 193.16 7.34855Z" fill="#32CCCC"/>
<path d="M174.264 13.6464C174.264 13.3203 174.264 13.1573 174.317 13.0287C174.388 12.8572 174.524 12.721 174.696 12.6499C174.824 12.5967 174.987 12.5967 175.313 12.5967C175.639 12.5967 175.803 12.5967 175.931 12.6499C176.103 12.721 176.239 12.8572 176.31 13.0287C176.363 13.1573 176.363 13.3203 176.363 13.6464C176.363 13.9725 176.363 14.1355 176.31 14.2641C176.239 14.4356 176.103 14.5718 175.931 14.6429C175.803 14.6961 175.639 14.6961 175.313 14.6961C174.987 14.6961 174.824 14.6961 174.696 14.6429C174.524 14.5718 174.388 14.4356 174.317 14.2641C174.264 14.1355 174.264 13.9725 174.264 13.6464Z" fill="#32CCCC"/>
<path d="M180.563 13.6464C180.563 13.3203 180.563 13.1573 180.616 13.0287C180.687 12.8572 180.823 12.721 180.995 12.6499C181.123 12.5967 181.286 12.5967 181.612 12.5967C181.938 12.5967 182.101 12.5967 182.23 12.6499C182.402 12.721 182.538 12.8572 182.609 13.0287C182.662 13.1573 182.662 13.3203 182.662 13.6464C182.662 13.9725 182.662 14.1355 182.609 14.2641C182.538 14.4356 182.402 14.5718 182.23 14.6429C182.101 14.6961 181.938 14.6961 181.612 14.6961C181.286 14.6961 181.123 14.6961 180.995 14.6429C180.823 14.5718 180.687 14.4356 180.616 14.2641C180.563 14.1355 180.563 13.9725 180.563 13.6464Z" fill="#32CCCC"/>
<path d="M186.861 13.6464C186.861 13.3203 186.861 13.1573 186.915 13.0287C186.986 12.8572 187.122 12.721 187.293 12.6499C187.422 12.5967 187.585 12.5967 187.911 12.5967C188.237 12.5967 188.4 12.5967 188.529 12.6499C188.7 12.721 188.836 12.8572 188.908 13.0287C188.961 13.1573 188.961 13.3203 188.961 13.6464C188.961 13.9725 188.961 14.1355 188.908 14.2641C188.836 14.4356 188.7 14.5718 188.529 14.6429C188.4 14.6961 188.237 14.6961 187.911 14.6961C187.585 14.6961 187.422 14.6961 187.293 14.6429C187.122 14.5718 186.986 14.4356 186.915 14.2641C186.861 14.1355 186.861 13.9725 186.861 13.6464Z" fill="#32CCCC"/>
<path d="M193.16 13.6464C193.16 13.3203 193.16 13.1573 193.213 13.0287C193.284 12.8572 193.421 12.721 193.592 12.6499C193.721 12.5967 193.884 12.5967 194.21 12.5967C194.536 12.5967 194.699 12.5967 194.828 12.6499C194.999 12.721 195.135 12.8572 195.206 13.0287C195.26 13.1573 195.26 13.3203 195.26 13.6464C195.26 13.9725 195.26 14.1355 195.206 14.2641C195.135 14.4356 194.999 14.5718 194.828 14.6429C194.699 14.6961 194.536 14.6961 194.21 14.6961C193.884 14.6961 193.721 14.6961 193.592 14.6429C193.421 14.5718 193.284 14.4356 193.213 14.2641C193.16 14.1355 193.16 13.9725 193.16 13.6464Z" fill="#32CCCC"/>
<path d="M199.457 13.6464C199.457 13.3203 199.457 13.1573 199.51 13.0287C199.581 12.8572 199.718 12.721 199.889 12.6499C200.018 12.5967 200.181 12.5967 200.507 12.5967C200.833 12.5967 200.996 12.5967 201.124 12.6499C201.296 12.721 201.432 12.8572 201.503 13.0287C201.556 13.1573 201.556 13.3203 201.556 13.6464C201.556 13.9725 201.556 14.1355 201.503 14.2641C201.432 14.4356 201.296 14.5718 201.124 14.6429C200.996 14.6961 200.833 14.6961 200.507 14.6961C200.181 14.6961 200.018 14.6961 199.889 14.6429C199.718 14.5718 199.581 14.4356 199.51 14.2641C199.457 14.1355 199.457 13.9725 199.457 13.6464Z" fill="#32CCCC"/>
<path d="M180.563 19.9452C180.563 19.6192 180.563 19.4561 180.616 19.3275C180.687 19.156 180.823 19.0198 180.995 18.9488C181.123 18.8955 181.286 18.8955 181.612 18.8955C181.938 18.8955 182.101 18.8955 182.23 18.9488C182.402 19.0198 182.538 19.156 182.609 19.3275C182.662 19.4561 182.662 19.6192 182.662 19.9452C182.662 20.2713 182.662 20.4343 182.609 20.5629C182.538 20.7344 182.402 20.8707 182.23 20.9417C182.101 20.995 181.938 20.995 181.612 20.995C181.286 20.995 181.123 20.995 180.995 20.9417C180.823 20.8707 180.687 20.7344 180.616 20.5629C180.563 20.4343 180.563 20.2713 180.563 19.9452Z" fill="#32CCCC"/>
<path d="M186.861 19.9452C186.861 19.6192 186.861 19.4561 186.915 19.3275C186.986 19.156 187.122 19.0198 187.293 18.9488C187.422 18.8955 187.585 18.8955 187.911 18.8955C188.237 18.8955 188.4 18.8955 188.529 18.9488C188.7 19.0198 188.836 19.156 188.908 19.3275C188.961 19.4561 188.961 19.6192 188.961 19.9452C188.961 20.2713 188.961 20.4343 188.908 20.5629C188.836 20.7344 188.7 20.8707 188.529 20.9417C188.4 20.995 188.237 20.995 187.911 20.995C187.585 20.995 187.422 20.995 187.293 20.9417C187.122 20.8707 186.986 20.7344 186.915 20.5629C186.861 20.4343 186.861 20.2713 186.861 19.9452Z" fill="#32CCCC"/>
<path d="M193.16 19.9452C193.16 19.6192 193.16 19.4561 193.213 19.3275C193.284 19.156 193.421 19.0198 193.592 18.9488C193.721 18.8955 193.884 18.8955 194.21 18.8955C194.536 18.8955 194.699 18.8955 194.828 18.9488C194.999 19.0198 195.135 19.156 195.206 19.3275C195.26 19.4561 195.26 19.6192 195.26 19.9452C195.26 20.2713 195.26 20.4343 195.206 20.5629C195.135 20.7344 194.999 20.8707 194.828 20.9417C194.699 20.995 194.536 20.995 194.21 20.995C193.884 20.995 193.721 20.995 193.592 20.9417C193.421 20.8707 193.284 20.7344 193.213 20.5629C193.16 20.4343 193.16 20.2713 193.16 19.9452Z" fill="#32CCCC"/>
<path d="M199.457 19.9452C199.457 19.6192 199.457 19.4561 199.51 19.3275C199.581 19.156 199.718 19.0198 199.889 18.9488C200.018 18.8955 200.181 18.8955 200.507 18.8955C200.833 18.8955 200.996 18.8955 201.124 18.9488C201.296 19.0198 201.432 19.156 201.503 19.3275C201.556 19.4561 201.556 19.6192 201.556 19.9452C201.556 20.2713 201.556 20.4343 201.503 20.5629C201.432 20.7344 201.296 20.8707 201.124 20.9417C200.996 20.995 200.833 20.995 200.507 20.995C200.181 20.995 200.018 20.995 199.889 20.9417C199.718 20.8707 199.581 20.7344 199.51 20.5629C199.457 20.4343 199.457 20.2713 199.457 19.9452Z" fill="#32CCCC"/>
<path d="M205.756 19.9452C205.756 19.6192 205.756 19.4561 205.809 19.3275C205.88 19.156 206.017 19.0198 206.188 18.9488C206.317 18.8955 206.48 18.8955 206.806 18.8955C207.132 18.8955 207.295 18.8955 207.423 18.9488C207.595 19.0198 207.731 19.156 207.802 19.3275C207.855 19.4561 207.855 19.6192 207.855 19.9452C207.855 20.2713 207.855 20.4343 207.802 20.5629C207.731 20.7344 207.595 20.8707 207.423 20.9417C207.295 20.995 207.132 20.995 206.806 20.995C206.48 20.995 206.317 20.995 206.188 20.9417C206.017 20.8707 205.88 20.7344 205.809 20.5629C205.756 20.4343 205.756 20.2713 205.756 19.9452Z" fill="#32CCCC"/>
<path d="M186.861 26.2431C186.861 25.917 186.861 25.754 186.915 25.6254C186.986 25.4539 187.122 25.3177 187.293 25.2466C187.422 25.1934 187.585 25.1934 187.911 25.1934C188.237 25.1934 188.4 25.1934 188.529 25.2466C188.7 25.3177 188.836 25.4539 188.908 25.6254C188.961 25.754 188.961 25.917 188.961 26.2431C188.961 26.5692 188.961 26.7322 188.908 26.8608C188.836 27.0323 188.7 27.1685 188.529 27.2395C188.4 27.2928 188.237 27.2928 187.911 27.2928C187.585 27.2928 187.422 27.2928 187.293 27.2395C187.122 27.1685 186.986 27.0323 186.915 26.8608C186.861 26.7322 186.861 26.5692 186.861 26.2431Z" fill="#32CCCC"/>
<path d="M68.7853 1.04972C68.7853 0.72365 68.7853 0.560614 68.8386 0.432008C68.9096 0.260533 69.0459 0.124297 69.2173 0.0532703C69.3459 0 69.509 0 69.835 0C70.1611 0 70.3242 0 70.4528 0.0532703C70.6242 0.124297 70.7605 0.260533 70.8315 0.432008C70.8848 0.560614 70.8848 0.72365 70.8848 1.04972C70.8848 1.3758 70.8848 1.53883 70.8315 1.66744C70.7605 1.83891 70.6242 1.97515 70.4528 2.04618C70.3242 2.09945 70.1611 2.09945 69.835 2.09945C69.509 2.09945 69.3459 2.09945 69.2173 2.04618C69.0459 1.97515 68.9096 1.83891 68.8386 1.66744C68.7853 1.53883 68.7853 1.3758 68.7853 1.04972Z" fill="#32CCCC"/>
<path d="M49.8906 7.34855C49.8906 7.02248 49.8906 6.85944 49.9439 6.73084C50.0149 6.55936 50.1512 6.42313 50.3226 6.3521C50.4512 6.29883 50.6143 6.29883 50.9403 6.29883C51.2664 6.29883 51.4295 6.29883 51.5581 6.3521C51.7295 6.42313 51.8658 6.55936 51.9368 6.73084C51.9901 6.85944 51.9901 7.02248 51.9901 7.34855C51.9901 7.67463 51.9901 7.83766 51.9368 7.96627C51.8658 8.13774 51.7295 8.27398 51.5581 8.34501C51.4295 8.39828 51.2664 8.39828 50.9403 8.39828C50.6143 8.39828 50.4512 8.39828 50.3226 8.34501C50.1512 8.27398 50.0149 8.13774 49.9439 7.96627C49.8906 7.83766 49.8906 7.67463 49.8906 7.34855Z" fill="#32CCCC"/>
<path d="M56.1895 7.34855C56.1895 7.02248 56.1895 6.85944 56.2427 6.73084C56.3138 6.55936 56.45 6.42313 56.6215 6.3521C56.7501 6.29883 56.9131 6.29883 57.2392 6.29883C57.5653 6.29883 57.7283 6.29883 57.8569 6.3521C58.0284 6.42313 58.1646 6.55936 58.2356 6.73084C58.2889 6.85944 58.2889 7.02248 58.2889 7.34855C58.2889 7.67463 58.2889 7.83766 58.2356 7.96627C58.1646 8.13774 58.0284 8.27398 57.8569 8.34501C57.7283 8.39828 57.5653 8.39828 57.2392 8.39828C56.9131 8.39828 56.7501 8.39828 56.6215 8.34501C56.45 8.27398 56.3138 8.13774 56.2427 7.96627C56.1895 7.83766 56.1895 7.67463 56.1895 7.34855Z" fill="#32CCCC"/>
<path d="M62.4865 7.34855C62.4865 7.02248 62.4865 6.85944 62.5398 6.73084C62.6108 6.55936 62.747 6.42313 62.9185 6.3521C63.0471 6.29883 63.2101 6.29883 63.5362 6.29883C63.8623 6.29883 64.0253 6.29883 64.1539 6.3521C64.3254 6.42313 64.4616 6.55936 64.5327 6.73084C64.5859 6.85944 64.5859 7.02248 64.5859 7.34855C64.5859 7.67463 64.5859 7.83766 64.5327 7.96627C64.4616 8.13774 64.3254 8.27398 64.1539 8.34501C64.0253 8.39828 63.8623 8.39828 63.5362 8.39828C63.2101 8.39828 63.0471 8.39828 62.9185 8.34501C62.747 8.27398 62.6108 8.13774 62.5398 7.96627C62.4865 7.83766 62.4865 7.67463 62.4865 7.34855Z" fill="#32CCCC"/>
<path d="M68.7853 7.34855C68.7853 7.02248 68.7853 6.85944 68.8386 6.73084C68.9096 6.55936 69.0459 6.42313 69.2173 6.3521C69.3459 6.29883 69.509 6.29883 69.835 6.29883C70.1611 6.29883 70.3242 6.29883 70.4528 6.3521C70.6242 6.42313 70.7605 6.55936 70.8315 6.73084C70.8848 6.85944 70.8848 7.02248 70.8848 7.34855C70.8848 7.67463 70.8848 7.83766 70.8315 7.96627C70.7605 8.13774 70.6242 8.27398 70.4528 8.34501C70.3242 8.39828 70.1611 8.39828 69.835 8.39828C69.509 8.39828 69.3459 8.39828 69.2173 8.34501C69.0459 8.27398 68.9096 8.13774 68.8386 7.96627C68.7853 7.83766 68.7853 7.67463 68.7853 7.34855Z" fill="#32CCCC"/>
<path d="M75.084 7.34855C75.084 7.02248 75.084 6.85944 75.1373 6.73084C75.2083 6.55936 75.3445 6.42313 75.516 6.3521C75.6446 6.29883 75.8076 6.29883 76.1337 6.29883C76.4598 6.29883 76.6228 6.29883 76.7514 6.3521C76.9229 6.42313 77.0591 6.55936 77.1302 6.73084C77.1834 6.85944 77.1834 7.02248 77.1834 7.34855C77.1834 7.67463 77.1834 7.83766 77.1302 7.96627C77.0591 8.13774 76.9229 8.27398 76.7514 8.34501C76.6228 8.39828 76.4598 8.39828 76.1337 8.39828C75.8076 8.39828 75.6446 8.39828 75.516 8.34501C75.3445 8.27398 75.2083 8.13774 75.1373 7.96627C75.084 7.83766 75.084 7.67463 75.084 7.34855Z" fill="#32CCCC"/>
<path d="M56.1895 13.6464C56.1895 13.3203 56.1895 13.1573 56.2427 13.0287C56.3138 12.8572 56.45 12.721 56.6215 12.6499C56.7501 12.5967 56.9131 12.5967 57.2392 12.5967C57.5653 12.5967 57.7283 12.5967 57.8569 12.6499C58.0284 12.721 58.1646 12.8572 58.2356 13.0287C58.2889 13.1573 58.2889 13.3203 58.2889 13.6464C58.2889 13.9725 58.2889 14.1355 58.2356 14.2641C58.1646 14.4356 58.0284 14.5718 57.8569 14.6429C57.7283 14.6961 57.5653 14.6961 57.2392 14.6961C56.9131 14.6961 56.7501 14.6961 56.6215 14.6429C56.45 14.5718 56.3138 14.4356 56.2427 14.2641C56.1895 14.1355 56.1895 13.9725 56.1895 13.6464Z" fill="#32CCCC"/>
<path d="M62.4865 13.6464C62.4865 13.3203 62.4865 13.1573 62.5398 13.0287C62.6108 12.8572 62.747 12.721 62.9185 12.6499C63.0471 12.5967 63.2101 12.5967 63.5362 12.5967C63.8623 12.5967 64.0253 12.5967 64.1539 12.6499C64.3254 12.721 64.4616 12.8572 64.5327 13.0287C64.5859 13.1573 64.5859 13.3203 64.5859 13.6464C64.5859 13.9725 64.5859 14.1355 64.5327 14.2641C64.4616 14.4356 64.3254 14.5718 64.1539 14.6429C64.0253 14.6961 63.8623 14.6961 63.5362 14.6961C63.2101 14.6961 63.0471 14.6961 62.9185 14.6429C62.747 14.5718 62.6108 14.4356 62.5398 14.2641C62.4865 14.1355 62.4865 13.9725 62.4865 13.6464Z" fill="#32CCCC"/>
<path d="M68.7853 13.6464C68.7853 13.3203 68.7853 13.1573 68.8386 13.0287C68.9096 12.8572 69.0459 12.721 69.2173 12.6499C69.3459 12.5967 69.509 12.5967 69.835 12.5967C70.1611 12.5967 70.3242 12.5967 70.4528 12.6499C70.6242 12.721 70.7605 12.8572 70.8315 13.0287C70.8848 13.1573 70.8848 13.3203 70.8848 13.6464C70.8848 13.9725 70.8848 14.1355 70.8315 14.2641C70.7605 14.4356 70.6242 14.5718 70.4528 14.6429C70.3242 14.6961 70.1611 14.6961 69.835 14.6961C69.509 14.6961 69.3459 14.6961 69.2173 14.6429C69.0459 14.5718 68.9096 14.4356 68.8386 14.2641C68.7853 14.1355 68.7853 13.9725 68.7853 13.6464Z" fill="#32CCCC"/>
<path d="M75.084 13.6464C75.084 13.3203 75.084 13.1573 75.1373 13.0287C75.2083 12.8572 75.3445 12.721 75.516 12.6499C75.6446 12.5967 75.8076 12.5967 76.1337 12.5967C76.4598 12.5967 76.6228 12.5967 76.7514 12.6499C76.9229 12.721 77.0591 12.8572 77.1302 13.0287C77.1834 13.1573 77.1834 13.3203 77.1834 13.6464C77.1834 13.9725 77.1834 14.1355 77.1302 14.2641C77.0591 14.4356 76.9229 14.5718 76.7514 14.6429C76.6228 14.6961 76.4598 14.6961 76.1337 14.6961C75.8076 14.6961 75.6446 14.6961 75.516 14.6429C75.3445 14.5718 75.2083 14.4356 75.1373 14.2641C75.084 14.1355 75.084 13.9725 75.084 13.6464Z" fill="#32CCCC"/>
<path d="M81.3828 13.6464C81.3828 13.3203 81.3828 13.1573 81.4361 13.0287C81.5071 12.8572 81.6433 12.721 81.8148 12.6499C81.9434 12.5967 82.1065 12.5967 82.4325 12.5967C82.7586 12.5967 82.9216 12.5967 83.0503 12.6499C83.2217 12.721 83.358 12.8572 83.429 13.0287C83.4823 13.1573 83.4823 13.3203 83.4823 13.6464C83.4823 13.9725 83.4823 14.1355 83.429 14.2641C83.358 14.4356 83.2217 14.5718 83.0503 14.6429C82.9216 14.6961 82.7586 14.6961 82.4325 14.6961C82.1065 14.6961 81.9434 14.6961 81.8148 14.6429C81.6433 14.5718 81.5071 14.4356 81.4361 14.2641C81.3828 14.1355 81.3828 13.9725 81.3828 13.6464Z" fill="#32CCCC"/>
<path d="M62.4865 19.9452C62.4865 19.6192 62.4865 19.4561 62.5398 19.3275C62.6108 19.156 62.747 19.0198 62.9185 18.9488C63.0471 18.8955 63.2101 18.8955 63.5362 18.8955C63.8623 18.8955 64.0253 18.8955 64.1539 18.9488C64.3254 19.0198 64.4616 19.156 64.5327 19.3275C64.5859 19.4561 64.5859 19.6192 64.5859 19.9452C64.5859 20.2713 64.5859 20.4343 64.5327 20.5629C64.4616 20.7344 64.3254 20.8707 64.1539 20.9417C64.0253 20.995 63.8623 20.995 63.5362 20.995C63.2101 20.995 63.0471 20.995 62.9185 20.9417C62.747 20.8707 62.6108 20.7344 62.5398 20.5629C62.4865 20.4343 62.4865 20.2713 62.4865 19.9452Z" fill="#32CCCC"/>
<path d="M68.7853 19.9452C68.7853 19.6192 68.7853 19.4561 68.8386 19.3275C68.9096 19.156 69.0459 19.0198 69.2173 18.9488C69.3459 18.8955 69.509 18.8955 69.835 18.8955C70.1611 18.8955 70.3242 18.8955 70.4528 18.9488C70.6242 19.0198 70.7605 19.156 70.8315 19.3275C70.8848 19.4561 70.8848 19.6192 70.8848 19.9452C70.8848 20.2713 70.8848 20.4343 70.8315 20.5629C70.7605 20.7344 70.6242 20.8707 70.4528 20.9417C70.3242 20.995 70.1611 20.995 69.835 20.995C69.509 20.995 69.3459 20.995 69.2173 20.9417C69.0459 20.8707 68.9096 20.7344 68.8386 20.5629C68.7853 20.4343 68.7853 20.2713 68.7853 19.9452Z" fill="#32CCCC"/>
<path d="M75.084 19.9452C75.084 19.6192 75.084 19.4561 75.1373 19.3275C75.2083 19.156 75.3445 19.0198 75.516 18.9488C75.6446 18.8955 75.8076 18.8955 76.1337 18.8955C76.4598 18.8955 76.6228 18.8955 76.7514 18.9488C76.9229 19.0198 77.0591 19.156 77.1302 19.3275C77.1834 19.4561 77.1834 19.6192 77.1834 19.9452C77.1834 20.2713 77.1834 20.4343 77.1302 20.5629C77.0591 20.7344 76.9229 20.8707 76.7514 20.9417C76.6228 20.995 76.4598 20.995 76.1337 20.995C75.8076 20.995 75.6446 20.995 75.516 20.9417C75.3445 20.8707 75.2083 20.7344 75.1373 20.5629C75.084 20.4343 75.084 20.2713 75.084 19.9452Z" fill="#32CCCC"/>
<path d="M81.3828 19.9452C81.3828 19.6192 81.3828 19.4561 81.4361 19.3275C81.5071 19.156 81.6433 19.0198 81.8148 18.9488C81.9434 18.8955 82.1065 18.8955 82.4325 18.8955C82.7586 18.8955 82.9216 18.8955 83.0503 18.9488C83.2217 19.0198 83.358 19.156 83.429 19.3275C83.4823 19.4561 83.4823 19.6192 83.4823 19.9452C83.4823 20.2713 83.4823 20.4343 83.429 20.5629C83.358 20.7344 83.2217 20.8707 83.0503 20.9417C82.9216 20.995 82.7586 20.995 82.4325 20.995C82.1065 20.995 81.9434 20.995 81.8148 20.9417C81.6433 20.8707 81.5071 20.7344 81.4361 20.5629C81.3828 20.4343 81.3828 20.2713 81.3828 19.9452Z" fill="#32CCCC"/>
<path d="M87.6799 19.9452C87.6799 19.6192 87.6799 19.4561 87.7331 19.3275C87.8042 19.156 87.9404 19.0198 88.1119 18.9488C88.2405 18.8955 88.4035 18.8955 88.7296 18.8955C89.0557 18.8955 89.2187 18.8955 89.3473 18.9488C89.5188 19.0198 89.655 19.156 89.726 19.3275C89.7793 19.4561 89.7793 19.6192 89.7793 19.9452C89.7793 20.2713 89.7793 20.4343 89.726 20.5629C89.655 20.7344 89.5188 20.8707 89.3473 20.9417C89.2187 20.995 89.0557 20.995 88.7296 20.995C88.4035 20.995 88.2405 20.995 88.1119 20.9417C87.9404 20.8707 87.8042 20.7344 87.7331 20.5629C87.6799 20.4343 87.6799 20.2713 87.6799 19.9452Z" fill="#32CCCC"/>
<path d="M68.7853 26.2431C68.7853 25.917 68.7853 25.754 68.8386 25.6254C68.9096 25.4539 69.0459 25.3177 69.2173 25.2466C69.3459 25.1934 69.509 25.1934 69.835 25.1934C70.1611 25.1934 70.3242 25.1934 70.4528 25.2466C70.6242 25.3177 70.7605 25.4539 70.8315 25.6254C70.8848 25.754 70.8848 25.917 70.8848 26.2431C70.8848 26.5692 70.8848 26.7322 70.8315 26.8608C70.7605 27.0323 70.6242 27.1685 70.4528 27.2395C70.3242 27.2928 70.1611 27.2928 69.835 27.2928C69.509 27.2928 69.3459 27.2928 69.2173 27.2395C69.0459 27.1685 68.9096 27.0323 68.8386 26.8608C68.7853 26.7322 68.7853 26.5692 68.7853 26.2431Z" fill="#32CCCC"/>
</svg>
