<svg width="144" height="24" viewBox="0 0 144 24" fill="none" xmlns="http://www.w3.org/2000/svg">
<g clip-path="url(#clip0_238_148310)">
<path d="M125.884 2.15918C126.901 2.15918 127.835 2.35645 128.687 2.75043C129.537 3.14403 130.301 3.73279 130.978 4.51657C131.652 5.29653 132.158 6.17 132.495 7.13601C132.831 8.09954 133 9.15274 133 10.2944C133 12.5873 132.326 14.5084 130.979 16.0575C130.301 16.8365 129.537 17.4219 128.687 17.8127C127.835 18.2043 126.901 18.4004 125.884 18.4004C124.399 18.4004 123.102 17.9612 121.995 17.083C121.257 16.4976 120.655 15.7718 120.192 14.9065V23.9988H116.496V2.45395H120.192V5.65287C120.655 4.78757 121.257 4.06215 121.995 3.47662C122.548 3.03778 123.15 2.70805 123.8 2.48836C124.449 2.26903 125.144 2.15918 125.884 2.15918H125.884ZM124.851 14.9467C126.064 14.9467 127.089 14.5017 127.925 13.612C128.345 13.165 128.66 12.6655 128.87 12.1149C129.081 11.5626 129.186 10.9556 129.186 10.2946C129.186 9.62252 129.081 9.00763 128.87 8.45094C128.66 7.89641 128.345 7.39507 127.925 6.94788C127.505 6.50089 127.039 6.1662 126.529 5.9448C126.02 5.72376 125.46 5.61316 124.851 5.61316C123.497 5.61316 122.382 6.0552 121.506 6.93893C120.63 7.82267 120.191 8.94151 120.191 10.2946C120.191 11.6279 120.63 12.7372 121.506 13.6209C122.382 14.5046 123.497 14.9467 124.851 14.9467Z" fill="#040404"/>
<path d="M107.323 2.15918C108.257 2.15918 109.108 2.28216 109.878 2.5279C110.653 2.77551 111.34 3.14688 111.939 3.64196C112.547 4.1437 113.003 4.75659 113.307 5.47955C113.609 6.19414 113.76 7.01363 113.76 7.93727V18.1057H110.064V15.2943C109.636 16.1098 109.1 16.766 108.456 17.2621C107.473 18.0209 106.249 18.4002 104.785 18.4002C104.103 18.4002 103.474 18.2969 102.899 18.0908C102.321 17.8839 101.802 17.5729 101.34 17.1596C100.874 16.7427 100.524 16.2598 100.291 15.7106C100.058 15.1643 99.9414 14.5567 99.9414 13.8891C99.9414 12.3143 100.505 11.1287 101.633 10.3322C102.18 9.946 102.798 9.634 103.485 9.39763C104.168 9.16264 104.926 8.99951 105.757 8.90864C106.647 8.90864 107.793 8.61407 108.684 8.61407C109.169 8.57111 109.525 8.44837 109.751 8.24663C109.959 8.06074 110.064 7.79056 110.064 7.43631C110.064 6.80649 109.822 6.30512 109.339 5.93302C109.089 5.73972 108.798 5.59433 108.467 5.49683C108.13 5.39725 107.748 5.34766 107.322 5.34766C106.462 5.34766 105.739 5.56375 105.153 5.99553C104.867 6.20706 104.631 6.46801 104.447 6.77759C104.261 7.09155 104.126 7.45797 104.044 7.87665L103.984 8.18071L100.336 7.30478L100.39 7.02695C100.535 6.28101 100.803 5.61031 101.193 5.01583C101.583 4.42174 102.094 3.90421 102.726 3.46482C103.352 3.02905 104.051 2.70177 104.822 2.48379C105.587 2.26751 106.421 2.15918 107.323 2.15918ZM105.788 15.3005C106.39 15.3005 106.944 15.2005 107.449 15.0009C107.954 14.8016 108.414 14.5019 108.828 14.1023C109.242 13.7028 109.553 13.2711 109.758 12.808C109.962 12.3483 110.064 11.854 110.064 11.3258V11.1613C110.005 11.1938 109.942 11.2243 109.875 11.253C109.565 11.3866 109.169 11.4799 108.687 11.5325L105.824 11.8865C105.133 11.977 104.586 12.1783 104.186 12.4891C104.001 12.632 103.864 12.7989 103.774 12.9884C103.683 13.181 103.637 13.4027 103.637 13.6536C103.637 14.1487 103.821 14.543 104.188 14.8364C104.575 15.1456 105.109 15.3005 105.788 15.3005Z" fill="#040404"/>
<path d="M85.5424 2.45312H98.4128V7.98377L87.4725 14.7691H98.4128V18.1051H85.2441V12.5752L96.2132 5.78907H85.2441V2.45312H85.5424Z" fill="#040404"/>
<path d="M76.4607 15.9975L81.0196 2.45508H84.8055C82.3798 9.63734 79.954 16.82 77.5212 24H73.7341L75.7412 18.107H73.4946C71.7163 12.8894 69.9375 7.67155 68.1562 2.45508H72.1547L76.4607 15.9975Z" fill="#040404"/>
<path d="M61.3129 2.15918C62.2468 2.15918 63.0987 2.28216 63.868 2.5279C64.6432 2.77551 65.3306 3.14688 65.9298 3.64196C66.5368 4.1437 66.9931 4.75659 67.2974 5.47955C67.5994 6.19414 67.7499 7.01363 67.7499 7.93727V18.1057H64.0546V15.2943C63.6263 16.1098 63.09 16.766 62.4467 17.2621C61.4628 18.0209 60.2388 18.4002 58.775 18.4002C58.0933 18.4002 57.4645 18.2969 56.8891 18.0908C56.3119 17.8839 55.7922 17.5729 55.3306 17.1596C54.8646 16.7427 54.5146 16.2598 54.2808 15.7106C54.0482 15.1643 53.9316 14.5567 53.9316 13.8891C53.9316 12.3143 54.4956 11.1287 55.6228 10.3322C56.1699 9.946 56.788 9.634 57.4754 9.39763C58.1585 9.16264 58.9158 8.99951 59.7468 8.90864C60.6377 8.90864 61.783 8.61407 62.6743 8.61407C63.1592 8.57111 63.5153 8.44837 63.7413 8.24663C63.9497 8.06074 64.0544 7.79056 64.0544 7.43631C64.0544 6.80649 63.8125 6.30512 63.3297 5.93302C63.0791 5.73972 62.7882 5.59433 62.4574 5.49683C62.1201 5.39725 61.7382 5.34766 61.3129 5.34766C60.4527 5.34766 59.7294 5.56375 59.144 5.99553C58.8569 6.20706 58.6211 6.46801 58.4375 6.77759C58.2511 7.09155 58.1167 7.45797 58.0348 7.87665L57.9749 8.18071L54.3262 7.30478L54.3804 7.02695C54.5253 6.28101 54.7934 5.61031 55.1834 5.01583C55.5733 4.42174 56.0845 3.90421 56.7162 3.46482C57.3426 3.02905 58.0418 2.70177 58.8129 2.48379C59.5779 2.26751 60.4115 2.15918 61.3131 2.15918H61.3129ZM59.7784 15.3005C60.38 15.3005 60.9338 15.2005 61.4394 15.0009C61.9445 14.8016 62.4047 14.5019 62.8183 14.1023C63.2323 13.7028 63.5425 13.2711 63.7483 12.808C63.9523 12.3483 64.0546 11.854 64.0546 11.3258V11.1613C63.9951 11.1938 63.9321 11.2243 63.8655 11.253C63.5549 11.3866 63.1586 11.4799 62.6771 11.5325L59.8146 11.8865C59.1228 11.977 58.5761 12.1783 58.176 12.4891C57.9916 12.632 57.854 12.7989 57.7641 12.9884C57.6727 13.181 57.6269 13.4027 57.6269 13.6536C57.6269 14.1487 57.8111 14.543 58.1782 14.8364C58.5654 15.1456 59.099 15.3005 59.7784 15.3005Z" fill="#040404"/>
<path d="M45.4075 2.15918C46.4245 2.15918 47.3586 2.35645 48.2105 2.75043C49.0605 3.14403 49.8247 3.73279 50.5021 4.51657C51.1761 5.29653 51.6819 6.17 52.019 7.13601C52.3549 8.09954 52.5234 9.15274 52.5234 10.2944C52.5234 12.5873 51.8496 14.5084 50.5021 16.0575C49.8243 16.8365 49.0603 17.4219 48.2105 17.8127C47.3586 18.2043 46.4243 18.4004 45.4075 18.4004C43.9223 18.4004 42.6255 17.9612 41.5186 17.083C40.7804 16.4976 40.1788 15.7718 39.715 14.9065V23.9988H36.0195V2.45395H39.715V5.65287C40.1788 4.78757 40.7802 4.06215 41.5186 3.47662C42.0717 3.03778 42.6739 2.70805 43.3237 2.48836C43.9727 2.26903 44.6675 2.15918 45.4075 2.15918ZM44.3746 14.9467C45.5873 14.9467 46.6125 14.5017 47.4482 13.612C47.8684 13.165 48.1839 12.6655 48.3939 12.1149C48.6045 11.5626 48.7098 10.9556 48.7098 10.2946C48.7098 9.62252 48.6045 9.00763 48.3939 8.45094C48.1841 7.89641 47.8686 7.39507 47.4482 6.94788C47.0285 6.50089 46.5627 6.1662 46.0523 5.9448C45.5433 5.72376 44.9839 5.61316 44.3746 5.61316C43.0207 5.61316 41.9053 6.0552 41.0293 6.93893C40.153 7.82267 39.715 8.94151 39.715 10.2946C39.715 11.6279 40.1532 12.7372 41.0293 13.6209C41.9053 14.5046 43.0207 14.9467 44.3746 14.9467Z" fill="#040404"/>
<path d="M136.857 7.08692H135.909V3.29392H134.49V2.45312H138.283V3.29392H136.857V7.08692ZM143.832 2.45312V7.08692H142.937V3.88953L141.638 7.08692H140.901L139.602 3.88953V7.08692H138.707V2.45312H139.947L141.299 5.75639L142.645 2.45312H143.832Z" fill="#040404"/>
<path fill-rule="evenodd" clip-rule="evenodd" d="M11.14 0.00195312H0L4.75778 10.2513H11.14V0.00195312Z" fill="#32CCCC"/>
<path fill-rule="evenodd" clip-rule="evenodd" d="M17.4297 0.000178225H11.1406L17.5223 13.7478C21.2823 13.6983 24.3153 10.6403 24.3153 6.87446C24.3153 3.07784 21.2327 0.000178172 17.4299 0L17.4297 0.000178225Z" fill="#32CCCC"/>
<path fill-rule="evenodd" clip-rule="evenodd" d="M11.1855 23.9994H22.279L17.5212 13.75H11.1855V23.9994Z" fill="#32CCCC"/>
<path fill-rule="evenodd" clip-rule="evenodd" d="M4.75778 10.25H0L6.38209 23.9989H11.14L4.75778 10.25Z" fill="#32CCCC"/>
</g>
<defs>
<clipPath id="clip0_238_148310">
<rect width="143.832" height="24" fill="white"/>
</clipPath>
</defs>
</svg>
