<svg width="180" height="30" viewBox="0 0 180 30" fill="none" xmlns="http://www.w3.org/2000/svg">
<g clip-path="url(#clip0_237_134542)">
<path d="M157.356 2.69922C158.627 2.69922 159.795 2.94581 160.86 3.43828C161.922 3.93029 162.878 4.66623 163.724 5.64596C164.566 6.6209 165.199 7.71275 165.62 8.92026C166.04 10.1247 166.251 11.4412 166.251 12.8683C166.251 15.7344 165.408 18.1357 163.724 20.0721C162.877 21.0459 161.922 21.7776 160.86 22.2661C159.795 22.7556 158.627 23.0008 157.356 23.0008C155.5 23.0008 153.879 22.4517 152.495 21.354C151.572 20.6222 150.82 19.715 150.24 18.6334V29.9987H145.621V3.06769H150.24V7.06633C150.82 5.98471 151.572 5.07794 152.495 4.34602C153.187 3.79747 153.939 3.3853 154.751 3.1107C155.562 2.83653 156.431 2.69922 157.357 2.69922H157.356ZM156.065 18.6836C157.581 18.6836 158.862 18.1273 159.907 17.0152C160.432 16.4565 160.826 15.8321 161.089 15.1439C161.352 14.4535 161.484 13.6948 161.484 12.8685C161.484 12.0284 161.352 11.2598 161.089 10.5639C160.827 9.87076 160.432 9.24408 159.907 8.6851C159.382 8.12635 158.8 7.708 158.162 7.43124C157.526 7.15495 156.827 7.01669 156.065 7.01669C154.372 7.01669 152.978 7.56925 151.883 8.67391C150.788 9.77858 150.24 11.1771 150.24 12.8685C150.24 14.5352 150.788 15.9217 151.883 17.0264C152.978 18.131 154.372 18.6836 156.065 18.6836Z" fill="#040404"/>
<path d="M134.152 2.69922C135.32 2.69922 136.385 2.85294 137.347 3.16011C138.315 3.46964 139.174 3.93385 139.923 4.5527C140.682 5.17986 141.253 5.94598 141.633 6.84968C142.01 7.74291 142.199 8.76728 142.199 9.92183V22.6323H137.579V19.1181C137.044 20.1374 136.374 20.9578 135.569 21.5779C134.34 22.5264 132.81 23.0006 130.98 23.0006C130.128 23.0006 129.342 22.8714 128.623 22.6138C127.901 22.3552 127.251 21.9664 126.674 21.4497C126.092 20.9286 125.654 20.325 125.362 19.6385C125.071 18.9556 124.926 18.1961 124.926 17.3617C124.926 15.3931 125.631 13.9111 127.04 12.9155C127.724 12.4327 128.496 12.0427 129.356 11.7473C130.209 11.4535 131.156 11.2496 132.195 11.136C133.308 11.136 134.74 10.7678 135.854 10.7678C136.46 10.7141 136.905 10.5607 137.188 10.3085C137.448 10.0762 137.579 9.73844 137.579 9.29563C137.579 8.50836 137.277 7.88164 136.673 7.41651C136.36 7.17489 135.996 6.99316 135.583 6.87128C135.161 6.74681 134.684 6.68482 134.152 6.68482C133.077 6.68482 132.173 6.95493 131.441 7.49466C131.082 7.75907 130.787 8.08525 130.558 8.47223C130.325 8.86468 130.157 9.3227 130.054 9.84606L129.98 10.2261L125.419 9.13122L125.486 8.78393C125.668 7.8515 126.003 7.01313 126.49 6.27003C126.978 5.52742 127.617 4.88051 128.406 4.33127C129.189 3.78656 130.063 3.37746 131.027 3.10498C131.983 2.83463 133.026 2.69922 134.152 2.69922ZM132.234 19.1258C132.986 19.1258 133.679 19.0008 134.311 18.7514C134.942 18.5022 135.517 18.1276 136.034 17.6282C136.552 17.1288 136.94 16.5891 137.197 16.0103C137.452 15.4357 137.58 14.8178 137.58 14.1575V13.9519C137.505 13.9925 137.427 14.0306 137.343 14.0665C136.955 14.2335 136.46 14.3501 135.858 14.4159L132.28 14.8584C131.415 14.9714 130.732 15.2231 130.231 15.6116C130 15.7903 129.828 15.9989 129.716 16.2357C129.602 16.4765 129.545 16.7537 129.545 17.0672C129.545 17.6861 129.775 18.179 130.234 18.5458C130.718 18.9323 131.385 19.1258 132.234 19.1258Z" fill="#040404"/>
<path d="M106.927 3.06641H123.016V9.97972L109.34 18.4614H123.016V22.6313H106.555V15.719L120.266 7.23634H106.555V3.06641H106.927Z" fill="#040404"/>
<path d="M95.5759 19.9964L101.274 3.06836H106.007C102.975 12.0462 99.9425 21.0246 96.9015 29.9995H92.1676L94.6764 22.6333H91.8682C89.6454 16.1112 87.4218 9.58895 85.1953 3.06836H90.1934L95.5759 19.9964Z" fill="#040404"/>
<path d="M76.6406 2.69922C77.8081 2.69922 78.8729 2.85294 79.8346 3.16011C80.8035 3.46964 81.6628 3.93385 82.4118 4.5527C83.1705 5.17986 83.7408 5.94598 84.1213 6.84968C84.4988 7.74291 84.6869 8.76728 84.6869 9.92183V22.6323H80.0678V19.1181C79.5324 20.1374 78.862 20.9578 78.0579 21.5779C76.828 22.5264 75.298 23.0006 73.4683 23.0006C72.6161 23.0006 71.8302 22.8714 71.1109 22.6138C70.3894 22.3552 69.7397 21.9664 69.1627 21.4497C68.5802 20.9286 68.1428 20.325 67.8505 19.6385C67.5598 18.9556 67.4141 18.1961 67.4141 17.3617C67.4141 15.3931 68.119 13.9111 69.5281 12.9155C70.2119 12.4327 70.9845 12.0427 71.8438 11.7473C72.6977 11.4535 73.6443 11.2496 74.6831 11.136C75.7967 11.136 77.2283 10.7678 78.3424 10.7678C78.9485 10.7141 79.3936 10.5607 79.6762 10.3085C79.9367 10.0762 80.0676 9.73844 80.0676 9.29563C80.0676 8.50836 79.7652 7.88164 79.1616 7.41651C78.8483 7.17489 78.4847 6.99316 78.0713 6.87128C77.6497 6.74681 77.1723 6.68482 76.6406 6.68482C75.5654 6.68482 74.6612 6.95493 73.9296 7.49466C73.5707 7.75907 73.2759 8.08525 73.0464 8.47223C72.8134 8.86468 72.6454 9.3227 72.543 9.84606L72.4682 10.2261L67.9073 9.13122L67.975 8.78393C68.1562 7.8515 68.4913 7.01313 68.9788 6.27003C69.4661 5.52742 70.1051 4.88051 70.8948 4.33127C71.6777 3.78656 72.5517 3.37746 73.5156 3.10498C74.4719 2.83463 75.5139 2.69922 76.6409 2.69922H76.6406ZM74.7225 19.1258C75.4745 19.1258 76.1667 19.0008 76.7988 18.7514C77.4301 18.5022 78.0054 18.1276 78.5224 17.6282C79.0399 17.1288 79.4276 16.5891 79.6849 16.0103C79.9399 15.4357 80.0678 14.8178 80.0678 14.1575V13.9519C79.9934 13.9925 79.9146 14.0306 79.8313 14.0665C79.4432 14.2335 78.9477 14.3501 78.3459 14.4159L74.7678 14.8584C73.903 14.9714 73.2197 15.2231 72.7195 15.6116C72.489 15.7903 72.317 15.9989 72.2047 16.2357C72.0904 16.4765 72.0332 16.7537 72.0332 17.0672C72.0332 17.6861 72.2634 18.179 72.7222 18.5458C73.2063 18.9323 73.8733 19.1258 74.7225 19.1258Z" fill="#040404"/>
<path d="M56.7584 2.69922C58.0296 2.69922 59.1973 2.94581 60.2621 3.43828C61.3247 3.93029 62.2799 4.66623 63.1266 5.64596C63.9691 6.6209 64.6014 7.71275 65.0227 8.92026C65.4426 10.1247 65.6533 11.4412 65.6533 12.8683C65.6533 15.7344 64.8111 18.1357 63.1266 20.0721C62.2794 21.0459 61.3244 21.7776 60.2621 22.2661C59.1973 22.7556 58.0294 23.0008 56.7584 23.0008C54.9019 23.0008 53.2809 22.4517 51.8973 21.354C50.9746 20.6222 50.2225 19.715 49.6428 18.6334V29.9987H45.0234V3.06769H49.6428V7.06633C50.2225 5.98471 50.9743 5.07794 51.8973 4.34602C52.5886 3.79747 53.3414 3.3853 54.1536 3.1107C54.9648 2.83653 55.8333 2.69922 56.7584 2.69922ZM55.4673 18.6836C56.9832 18.6836 58.2646 18.1273 59.3093 17.0152C59.8345 16.4565 60.2289 15.8321 60.4914 15.1439C60.7546 14.4535 60.8862 13.6948 60.8862 12.8685C60.8862 12.0284 60.7546 11.2598 60.4914 10.5639C60.2291 9.87076 59.8348 9.24408 59.3093 8.6851C58.7846 8.12635 58.2024 7.708 57.5644 7.43124C56.9281 7.15495 56.2289 7.01669 55.4673 7.01669C53.7749 7.01669 52.3807 7.56925 51.2856 8.67391C50.1903 9.77858 49.6428 11.1771 49.6428 12.8685C49.6428 14.5352 50.1906 15.9217 51.2856 17.0264C52.3807 18.131 53.7749 18.6836 55.4673 18.6836Z" fill="#040404"/>
<path d="M171.072 8.85865H169.887V4.1174H168.113V3.06641H172.854V4.1174H171.072V8.85865ZM179.791 3.06641V8.85865H178.672V4.86191L177.048 8.85865H176.127L174.503 4.86191V8.85865H173.384V3.06641H174.934L176.625 7.19549L178.307 3.06641H179.791Z" fill="#040404"/>
<path fill-rule="evenodd" clip-rule="evenodd" d="M13.925 0.00195312H0L5.94722 12.8136H13.925V0.00195312Z" fill="#32CCCC"/>
<path fill-rule="evenodd" clip-rule="evenodd" d="M21.7872 0.000222781H13.9258L21.9029 17.1847C26.6028 17.1229 30.3941 13.3003 30.3941 8.59308C30.3941 3.8473 26.5409 0.000222715 21.7874 0L21.7872 0.000222781Z" fill="#32CCCC"/>
<path fill-rule="evenodd" clip-rule="evenodd" d="M13.9824 29.9993H27.8492L21.902 17.1875H13.9824V29.9993Z" fill="#32CCCC"/>
<path fill-rule="evenodd" clip-rule="evenodd" d="M5.94722 12.8125H0L7.97761 29.9986H13.925L5.94722 12.8125Z" fill="#32CCCC"/>
</g>
<defs>
<clipPath id="clip0_237_134542">
<rect width="179.791" height="30" fill="white"/>
</clipPath>
</defs>
</svg>
