<svg width="197" height="28" viewBox="0 0 197 28" fill="none" xmlns="http://www.w3.org/2000/svg">
<path d="M190.59 1.04972C190.59 0.72365 190.59 0.560614 190.537 0.432008C190.466 0.260533 190.329 0.124297 190.158 0.0532703C190.029 0 189.866 0 189.54 0C189.214 0 189.051 0 188.922 0.0532703C188.751 0.124297 188.615 0.260533 188.544 0.432008C188.49 0.560614 188.49 0.72365 188.49 1.04972C188.49 1.3758 188.49 1.53883 188.544 1.66744C188.615 1.83891 188.751 1.97515 188.922 2.04618C189.051 2.09945 189.214 2.09945 189.54 2.09945C189.866 2.09945 190.029 2.09945 190.158 2.04618C190.329 1.97515 190.466 1.83891 190.537 1.66744C190.59 1.53883 190.59 1.3758 190.59 1.04972Z" fill="#32CCCC"/>
<path d="M184.293 1.04972C184.293 0.72365 184.293 0.560614 184.24 0.432008C184.169 0.260533 184.032 0.124297 183.861 0.0532703C183.732 0 183.569 0 183.243 0C182.917 0 182.754 0 182.625 0.0532703C182.454 0.124297 182.318 0.260533 182.247 0.432008C182.193 0.560614 182.193 0.72365 182.193 1.04972C182.193 1.3758 182.193 1.53883 182.247 1.66744C182.318 1.83891 182.454 1.97515 182.625 2.04618C182.754 2.09945 182.917 2.09945 183.243 2.09945C183.569 2.09945 183.732 2.09945 183.861 2.04618C184.032 1.97515 184.169 1.83891 184.24 1.66744C184.293 1.53883 184.293 1.3758 184.293 1.04972Z" fill="#32CCCC"/>
<path d="M177.994 1.04972C177.994 0.72365 177.994 0.560614 177.941 0.432008C177.87 0.260533 177.734 0.124297 177.562 0.0532703C177.434 0 177.27 0 176.944 0C176.618 0 176.455 0 176.327 0.0532703C176.155 0.124297 176.019 0.260533 175.948 0.432008C175.895 0.560614 175.895 0.72365 175.895 1.04972C175.895 1.3758 175.895 1.53883 175.948 1.66744C176.019 1.83891 176.155 1.97515 176.327 2.04618C176.455 2.09945 176.618 2.09945 176.944 2.09945C177.27 2.09945 177.434 2.09945 177.562 2.04618C177.734 1.97515 177.87 1.83891 177.941 1.66744C177.994 1.53883 177.994 1.3758 177.994 1.04972Z" fill="#32CCCC"/>
<path d="M171.695 1.04972C171.695 0.72365 171.695 0.560614 171.642 0.432008C171.571 0.260533 171.435 0.124297 171.263 0.0532703C171.135 0 170.972 0 170.646 0C170.32 0 170.156 0 170.028 0.0532703C169.856 0.124297 169.72 0.260533 169.649 0.432008C169.596 0.560614 169.596 0.72365 169.596 1.04972C169.596 1.3758 169.596 1.53883 169.649 1.66744C169.72 1.83891 169.856 1.97515 170.028 2.04618C170.156 2.09945 170.32 2.09945 170.646 2.09945C170.972 2.09945 171.135 2.09945 171.263 2.04618C171.435 1.97515 171.571 1.83891 171.642 1.66744C171.695 1.53883 171.695 1.3758 171.695 1.04972Z" fill="#32CCCC"/>
<path d="M165.398 1.04972C165.398 0.72365 165.398 0.560614 165.345 0.432008C165.274 0.260533 165.138 0.124297 164.966 0.0532703C164.838 0 164.675 0 164.349 0C164.023 0 163.86 0 163.731 0.0532703C163.56 0.124297 163.423 0.260533 163.352 0.432008C163.299 0.560614 163.299 0.72365 163.299 1.04972C163.299 1.3758 163.299 1.53883 163.352 1.66744C163.423 1.83891 163.56 1.97515 163.731 2.04618C163.86 2.09945 164.023 2.09945 164.349 2.09945C164.675 2.09945 164.838 2.09945 164.966 2.04618C165.138 1.97515 165.274 1.83891 165.345 1.66744C165.398 1.53883 165.398 1.3758 165.398 1.04972Z" fill="#32CCCC"/>
<path d="M196.889 7.34855C196.889 7.02248 196.889 6.85944 196.835 6.73084C196.764 6.55936 196.628 6.42313 196.457 6.3521C196.328 6.29883 196.165 6.29883 195.839 6.29883C195.513 6.29883 195.35 6.29883 195.221 6.3521C195.05 6.42313 194.914 6.55936 194.842 6.73084C194.789 6.85944 194.789 7.02248 194.789 7.34855C194.789 7.67463 194.789 7.83766 194.842 7.96627C194.914 8.13774 195.05 8.27398 195.221 8.34501C195.35 8.39828 195.513 8.39828 195.839 8.39828C196.165 8.39828 196.328 8.39828 196.457 8.34501C196.628 8.27398 196.764 8.13774 196.835 7.96627C196.889 7.83766 196.889 7.67463 196.889 7.34855Z" fill="#32CCCC"/>
<path d="M190.59 7.34855C190.59 7.02248 190.59 6.85944 190.537 6.73084C190.466 6.55936 190.329 6.42313 190.158 6.3521C190.029 6.29883 189.866 6.29883 189.54 6.29883C189.214 6.29883 189.051 6.29883 188.922 6.3521C188.751 6.42313 188.615 6.55936 188.544 6.73084C188.49 6.85944 188.49 7.02248 188.49 7.34855C188.49 7.67463 188.49 7.83766 188.544 7.96627C188.615 8.13774 188.751 8.27398 188.922 8.34501C189.051 8.39828 189.214 8.39828 189.54 8.39828C189.866 8.39828 190.029 8.39828 190.158 8.34501C190.329 8.27398 190.466 8.13774 190.537 7.96627C190.59 7.83766 190.59 7.67463 190.59 7.34855Z" fill="#32CCCC"/>
<path d="M177.994 7.34855C177.994 7.02248 177.994 6.85944 177.941 6.73084C177.87 6.55936 177.734 6.42313 177.562 6.3521C177.434 6.29883 177.27 6.29883 176.944 6.29883C176.618 6.29883 176.455 6.29883 176.327 6.3521C176.155 6.42313 176.019 6.55936 175.948 6.73084C175.895 6.85944 175.895 7.02248 175.895 7.34855C175.895 7.67463 175.895 7.83766 175.948 7.96627C176.019 8.13774 176.155 8.27398 176.327 8.34501C176.455 8.39828 176.618 8.39828 176.944 8.39828C177.27 8.39828 177.434 8.39828 177.562 8.34501C177.734 8.27398 177.87 8.13774 177.941 7.96627C177.994 7.83766 177.994 7.67463 177.994 7.34855Z" fill="#32CCCC"/>
<path d="M165.398 7.34855C165.398 7.02248 165.398 6.85944 165.345 6.73084C165.274 6.55936 165.138 6.42313 164.966 6.3521C164.838 6.29883 164.675 6.29883 164.349 6.29883C164.023 6.29883 163.86 6.29883 163.731 6.3521C163.56 6.42313 163.423 6.55936 163.352 6.73084C163.299 6.85944 163.299 7.02248 163.299 7.34855C163.299 7.67463 163.299 7.83766 163.352 7.96627C163.423 8.13774 163.56 8.27398 163.731 8.34501C163.86 8.39828 164.023 8.39828 164.349 8.39828C164.675 8.39828 164.838 8.39828 164.966 8.34501C165.138 8.27398 165.274 8.13774 165.345 7.96627C165.398 7.83766 165.398 7.67463 165.398 7.34855Z" fill="#32CCCC"/>
<path d="M159.099 7.34855C159.099 7.02248 159.099 6.85944 159.046 6.73084C158.975 6.55936 158.839 6.42313 158.667 6.3521C158.539 6.29883 158.376 6.29883 158.05 6.29883C157.724 6.29883 157.561 6.29883 157.432 6.3521C157.261 6.42313 157.124 6.55936 157.053 6.73084C157 6.85944 157 7.02248 157 7.34855C157 7.67463 157 7.83766 157.053 7.96627C157.124 8.13774 157.261 8.27398 157.432 8.34501C157.561 8.39828 157.724 8.39828 158.05 8.39828C158.376 8.39828 158.539 8.39828 158.667 8.34501C158.839 8.27398 158.975 8.13774 159.046 7.96627C159.099 7.83766 159.099 7.67463 159.099 7.34855Z" fill="#32CCCC"/>
<path d="M196.889 13.6464C196.889 13.3203 196.889 13.1573 196.835 13.0287C196.764 12.8572 196.628 12.721 196.457 12.6499C196.328 12.5967 196.165 12.5967 195.839 12.5967C195.513 12.5967 195.35 12.5967 195.221 12.6499C195.05 12.721 194.914 12.8572 194.842 13.0287C194.789 13.1573 194.789 13.3203 194.789 13.6464C194.789 13.9725 194.789 14.1355 194.842 14.2641C194.914 14.4356 195.05 14.5718 195.221 14.6429C195.35 14.6961 195.513 14.6961 195.839 14.6961C196.165 14.6961 196.328 14.6961 196.457 14.6429C196.628 14.5718 196.764 14.4356 196.835 14.2641C196.889 14.1355 196.889 13.9725 196.889 13.6464Z" fill="#32CCCC"/>
<path d="M190.59 13.6464C190.59 13.3203 190.59 13.1573 190.537 13.0287C190.466 12.8572 190.329 12.721 190.158 12.6499C190.029 12.5967 189.866 12.5967 189.54 12.5967C189.214 12.5967 189.051 12.5967 188.922 12.6499C188.751 12.721 188.615 12.8572 188.544 13.0287C188.49 13.1573 188.49 13.3203 188.49 13.6464C188.49 13.9725 188.49 14.1355 188.544 14.2641C188.615 14.4356 188.751 14.5718 188.922 14.6429C189.051 14.6961 189.214 14.6961 189.54 14.6961C189.866 14.6961 190.029 14.6961 190.158 14.6429C190.329 14.5718 190.466 14.4356 190.537 14.2641C190.59 14.1355 190.59 13.9725 190.59 13.6464Z" fill="#32CCCC"/>
<path d="M184.293 13.6464C184.293 13.3203 184.293 13.1573 184.24 13.0287C184.169 12.8572 184.032 12.721 183.861 12.6499C183.732 12.5967 183.569 12.5967 183.243 12.5967C182.917 12.5967 182.754 12.5967 182.625 12.6499C182.454 12.721 182.318 12.8572 182.247 13.0287C182.193 13.1573 182.193 13.3203 182.193 13.6464C182.193 13.9725 182.193 14.1355 182.247 14.2641C182.318 14.4356 182.454 14.5718 182.625 14.6429C182.754 14.6961 182.917 14.6961 183.243 14.6961C183.569 14.6961 183.732 14.6961 183.861 14.6429C184.032 14.5718 184.169 14.4356 184.24 14.2641C184.293 14.1355 184.293 13.9725 184.293 13.6464Z" fill="#32CCCC"/>
<path d="M177.994 13.6464C177.994 13.3203 177.994 13.1573 177.941 13.0287C177.87 12.8572 177.734 12.721 177.562 12.6499C177.434 12.5967 177.27 12.5967 176.944 12.5967C176.618 12.5967 176.455 12.5967 176.327 12.6499C176.155 12.721 176.019 12.8572 175.948 13.0287C175.895 13.1573 175.895 13.3203 175.895 13.6464C175.895 13.9725 175.895 14.1355 175.948 14.2641C176.019 14.4356 176.155 14.5718 176.327 14.6429C176.455 14.6961 176.618 14.6961 176.944 14.6961C177.27 14.6961 177.434 14.6961 177.562 14.6429C177.734 14.5718 177.87 14.4356 177.941 14.2641C177.994 14.1355 177.994 13.9725 177.994 13.6464Z" fill="#32CCCC"/>
<path d="M165.398 13.6464C165.398 13.3203 165.398 13.1573 165.345 13.0287C165.274 12.8572 165.138 12.721 164.966 12.6499C164.838 12.5967 164.675 12.5967 164.349 12.5967C164.023 12.5967 163.86 12.5967 163.731 12.6499C163.56 12.721 163.423 12.8572 163.352 13.0287C163.299 13.1573 163.299 13.3203 163.299 13.6464C163.299 13.9725 163.299 14.1355 163.352 14.2641C163.423 14.4356 163.56 14.5718 163.731 14.6429C163.86 14.6961 164.023 14.6961 164.349 14.6961C164.675 14.6961 164.838 14.6961 164.966 14.6429C165.138 14.5718 165.274 14.4356 165.345 14.2641C165.398 14.1355 165.398 13.9725 165.398 13.6464Z" fill="#32CCCC"/>
<path d="M159.099 13.6464C159.099 13.3203 159.099 13.1573 159.046 13.0287C158.975 12.8572 158.839 12.721 158.667 12.6499C158.539 12.5967 158.376 12.5967 158.05 12.5967C157.724 12.5967 157.561 12.5967 157.432 12.6499C157.261 12.721 157.124 12.8572 157.053 13.0287C157 13.1573 157 13.3203 157 13.6464C157 13.9725 157 14.1355 157.053 14.2641C157.124 14.4356 157.261 14.5718 157.432 14.6429C157.561 14.6961 157.724 14.6961 158.05 14.6961C158.376 14.6961 158.539 14.6961 158.667 14.6429C158.839 14.5718 158.975 14.4356 159.046 14.2641C159.099 14.1355 159.099 13.9725 159.099 13.6464Z" fill="#32CCCC"/>
<path d="M196.889 19.9452C196.889 19.6192 196.889 19.4561 196.835 19.3275C196.764 19.156 196.628 19.0198 196.457 18.9488C196.328 18.8955 196.165 18.8955 195.839 18.8955C195.513 18.8955 195.35 18.8955 195.221 18.9488C195.05 19.0198 194.914 19.156 194.842 19.3275C194.789 19.4561 194.789 19.6192 194.789 19.9452C194.789 20.2713 194.789 20.4343 194.842 20.5629C194.914 20.7344 195.05 20.8707 195.221 20.9417C195.35 20.995 195.513 20.995 195.839 20.995C196.165 20.995 196.328 20.995 196.457 20.9417C196.628 20.8707 196.764 20.7344 196.835 20.5629C196.889 20.4343 196.889 20.2713 196.889 19.9452Z" fill="#32CCCC"/>
<path d="M190.59 19.9452C190.59 19.6192 190.59 19.4561 190.537 19.3275C190.466 19.156 190.329 19.0198 190.158 18.9488C190.029 18.8955 189.866 18.8955 189.54 18.8955C189.214 18.8955 189.051 18.8955 188.922 18.9488C188.751 19.0198 188.615 19.156 188.544 19.3275C188.49 19.4561 188.49 19.6192 188.49 19.9452C188.49 20.2713 188.49 20.4343 188.544 20.5629C188.615 20.7344 188.751 20.8707 188.922 20.9417C189.051 20.995 189.214 20.995 189.54 20.995C189.866 20.995 190.029 20.995 190.158 20.9417C190.329 20.8707 190.466 20.7344 190.537 20.5629C190.59 20.4343 190.59 20.2713 190.59 19.9452Z" fill="#32CCCC"/>
<path d="M165.398 19.9452C165.398 19.6192 165.398 19.4561 165.345 19.3275C165.274 19.156 165.138 19.0198 164.966 18.9488C164.838 18.8955 164.675 18.8955 164.349 18.8955C164.023 18.8955 163.86 18.8955 163.731 18.9488C163.56 19.0198 163.423 19.156 163.352 19.3275C163.299 19.4561 163.299 19.6192 163.299 19.9452C163.299 20.2713 163.299 20.4343 163.352 20.5629C163.423 20.7344 163.56 20.8707 163.731 20.9417C163.86 20.995 164.023 20.995 164.349 20.995C164.675 20.995 164.838 20.995 164.966 20.9417C165.138 20.8707 165.274 20.7344 165.345 20.5629C165.398 20.4343 165.398 20.2713 165.398 19.9452Z" fill="#32CCCC"/>
<path d="M159.099 19.9452C159.099 19.6192 159.099 19.4561 159.046 19.3275C158.975 19.156 158.839 19.0198 158.667 18.9488C158.539 18.8955 158.376 18.8955 158.05 18.8955C157.724 18.8955 157.561 18.8955 157.432 18.9488C157.261 19.0198 157.124 19.156 157.053 19.3275C157 19.4561 157 19.6192 157 19.9452C157 20.2713 157 20.4343 157.053 20.5629C157.124 20.7344 157.261 20.8707 157.432 20.9417C157.561 20.995 157.724 20.995 158.05 20.995C158.376 20.995 158.539 20.995 158.667 20.9417C158.839 20.8707 158.975 20.7344 159.046 20.5629C159.099 20.4343 159.099 20.2713 159.099 19.9452Z" fill="#32CCCC"/>
<path d="M190.59 26.2431C190.59 25.917 190.59 25.754 190.537 25.6254C190.466 25.4539 190.329 25.3177 190.158 25.2466C190.029 25.1934 189.866 25.1934 189.54 25.1934C189.214 25.1934 189.051 25.1934 188.922 25.2466C188.751 25.3177 188.615 25.4539 188.544 25.6254C188.49 25.754 188.49 25.917 188.49 26.2431C188.49 26.5692 188.49 26.7322 188.544 26.8608C188.615 27.0323 188.751 27.1685 188.922 27.2395C189.051 27.2928 189.214 27.2928 189.54 27.2928C189.866 27.2928 190.029 27.2928 190.158 27.2395C190.329 27.1685 190.466 27.0323 190.537 26.8608C190.59 26.7322 190.59 26.5692 190.59 26.2431Z" fill="#32CCCC"/>
<path d="M184.293 26.2431C184.293 25.917 184.293 25.754 184.24 25.6254C184.169 25.4539 184.032 25.3177 183.861 25.2466C183.732 25.1934 183.569 25.1934 183.243 25.1934C182.917 25.1934 182.754 25.1934 182.625 25.2466C182.454 25.3177 182.318 25.4539 182.247 25.6254C182.193 25.754 182.193 25.917 182.193 26.2431C182.193 26.5692 182.193 26.7322 182.247 26.8608C182.318 27.0323 182.454 27.1685 182.625 27.2395C182.754 27.2928 182.917 27.2928 183.243 27.2928C183.569 27.2928 183.732 27.2928 183.861 27.2395C184.032 27.1685 184.169 27.0323 184.24 26.8608C184.293 26.7322 184.293 26.5692 184.293 26.2431Z" fill="#32CCCC"/>
<path d="M177.994 26.2431C177.994 25.917 177.994 25.754 177.941 25.6254C177.87 25.4539 177.734 25.3177 177.562 25.2466C177.434 25.1934 177.27 25.1934 176.944 25.1934C176.618 25.1934 176.455 25.1934 176.327 25.2466C176.155 25.3177 176.019 25.4539 175.948 25.6254C175.895 25.754 175.895 25.917 175.895 26.2431C175.895 26.5692 175.895 26.7322 175.948 26.8608C176.019 27.0323 176.155 27.1685 176.327 27.2395C176.455 27.2928 176.618 27.2928 176.944 27.2928C177.27 27.2928 177.434 27.2928 177.562 27.2395C177.734 27.1685 177.87 27.0323 177.941 26.8608C177.994 26.7322 177.994 26.5692 177.994 26.2431Z" fill="#32CCCC"/>
<path d="M171.695 26.2431C171.695 25.917 171.695 25.754 171.642 25.6254C171.571 25.4539 171.435 25.3177 171.263 25.2466C171.135 25.1934 170.972 25.1934 170.646 25.1934C170.32 25.1934 170.156 25.1934 170.028 25.2466C169.856 25.3177 169.72 25.4539 169.649 25.6254C169.596 25.754 169.596 25.917 169.596 26.2431C169.596 26.5692 169.596 26.7322 169.649 26.8608C169.72 27.0323 169.856 27.1685 170.028 27.2395C170.156 27.2928 170.32 27.2928 170.646 27.2928C170.972 27.2928 171.135 27.2928 171.263 27.2395C171.435 27.1685 171.571 27.0323 171.642 26.8608C171.695 26.7322 171.695 26.5692 171.695 26.2431Z" fill="#32CCCC"/>
<path d="M165.398 26.2431C165.398 25.917 165.398 25.754 165.345 25.6254C165.274 25.4539 165.138 25.3177 164.966 25.2466C164.838 25.1934 164.675 25.1934 164.349 25.1934C164.023 25.1934 163.86 25.1934 163.731 25.2466C163.56 25.3177 163.423 25.4539 163.352 25.6254C163.299 25.754 163.299 25.917 163.299 26.2431C163.299 26.5692 163.299 26.7322 163.352 26.8608C163.423 27.0323 163.56 27.1685 163.731 27.2395C163.86 27.2928 164.023 27.2928 164.349 27.2928C164.675 27.2928 164.838 27.2928 164.966 27.2395C165.138 27.1685 165.274 27.0323 165.345 26.8608C165.398 26.7322 165.398 26.5692 165.398 26.2431Z" fill="#32CCCC"/>
<path d="M115.469 1.04972C115.469 0.72365 115.469 0.560614 115.415 0.432008C115.344 0.260533 115.208 0.124297 115.037 0.0532703C114.908 0 114.745 0 114.419 0C114.093 0 113.93 0 113.801 0.0532703C113.63 0.124297 113.494 0.260533 113.423 0.432008C113.369 0.560614 113.369 0.72365 113.369 1.04972C113.369 1.3758 113.369 1.53883 113.423 1.66744C113.494 1.83891 113.63 1.97515 113.801 2.04618C113.93 2.09945 114.093 2.09945 114.419 2.09945C114.745 2.09945 114.908 2.09945 115.037 2.04618C115.208 1.97515 115.344 1.83891 115.415 1.66744C115.469 1.53883 115.469 1.3758 115.469 1.04972Z" fill="#32CCCC"/>
<path d="M109.17 1.04972C109.17 0.72365 109.17 0.560614 109.117 0.432008C109.046 0.260533 108.909 0.124297 108.738 0.0532703C108.609 0 108.446 0 108.12 0C107.794 0 107.631 0 107.502 0.0532703C107.331 0.124297 107.195 0.260533 107.124 0.432008C107.07 0.560614 107.07 0.72365 107.07 1.04972C107.07 1.3758 107.07 1.53883 107.124 1.66744C107.195 1.83891 107.331 1.97515 107.502 2.04618C107.631 2.09945 107.794 2.09945 108.12 2.09945C108.446 2.09945 108.609 2.09945 108.738 2.04618C108.909 1.97515 109.046 1.83891 109.117 1.66744C109.17 1.53883 109.17 1.3758 109.17 1.04972Z" fill="#32CCCC"/>
<path d="M102.871 1.04972C102.871 0.72365 102.871 0.560614 102.818 0.432008C102.747 0.260533 102.611 0.124297 102.439 0.0532703C102.31 0 102.147 0 101.821 0C101.495 0 101.332 0 101.204 0.0532703C101.032 0.124297 100.896 0.260533 100.825 0.432008C100.772 0.560614 100.772 0.72365 100.772 1.04972C100.772 1.3758 100.772 1.53883 100.825 1.66744C100.896 1.83891 101.032 1.97515 101.204 2.04618C101.332 2.09945 101.495 2.09945 101.821 2.09945C102.147 2.09945 102.31 2.09945 102.439 2.04618C102.611 1.97515 102.747 1.83891 102.818 1.66744C102.871 1.53883 102.871 1.3758 102.871 1.04972Z" fill="#32CCCC"/>
<path d="M96.5741 1.04972C96.5741 0.72365 96.5741 0.560614 96.5208 0.432008C96.4498 0.260533 96.3135 0.124297 96.142 0.0532703C96.0134 0 95.8504 0 95.5243 0C95.1983 0 95.0352 0 94.9066 0.0532703C94.7351 0.124297 94.5989 0.260533 94.5279 0.432008C94.4746 0.560614 94.4746 0.72365 94.4746 1.04972C94.4746 1.3758 94.4746 1.53883 94.5279 1.66744C94.5989 1.83891 94.7351 1.97515 94.9066 2.04618C95.0352 2.09945 95.1983 2.09945 95.5243 2.09945C95.8504 2.09945 96.0134 2.09945 96.142 2.04618C96.3135 1.97515 96.4498 1.83891 96.5208 1.66744C96.5741 1.53883 96.5741 1.3758 96.5741 1.04972Z" fill="#32CCCC"/>
<path d="M121.767 7.34855C121.767 7.02248 121.767 6.85944 121.714 6.73084C121.643 6.55936 121.507 6.42313 121.335 6.3521C121.207 6.29883 121.044 6.29883 120.718 6.29883C120.392 6.29883 120.229 6.29883 120.1 6.3521C119.929 6.42313 119.792 6.55936 119.721 6.73084C119.668 6.85944 119.668 7.02248 119.668 7.34855C119.668 7.67463 119.668 7.83766 119.721 7.96627C119.792 8.13774 119.929 8.27398 120.1 8.34501C120.229 8.39828 120.392 8.39828 120.718 8.39828C121.044 8.39828 121.207 8.39828 121.335 8.34501C121.507 8.27398 121.643 8.13774 121.714 7.96627C121.767 7.83766 121.767 7.67463 121.767 7.34855Z" fill="#32CCCC"/>
<path d="M115.469 7.34855C115.469 7.02248 115.469 6.85944 115.415 6.73084C115.344 6.55936 115.208 6.42313 115.037 6.3521C114.908 6.29883 114.745 6.29883 114.419 6.29883C114.093 6.29883 113.93 6.29883 113.801 6.3521C113.63 6.42313 113.494 6.55936 113.423 6.73084C113.369 6.85944 113.369 7.02248 113.369 7.34855C113.369 7.67463 113.369 7.83766 113.423 7.96627C113.494 8.13774 113.63 8.27398 113.801 8.34501C113.93 8.39828 114.093 8.39828 114.419 8.39828C114.745 8.39828 114.908 8.39828 115.037 8.34501C115.208 8.27398 115.344 8.13774 115.415 7.96627C115.469 7.83766 115.469 7.67463 115.469 7.34855Z" fill="#32CCCC"/>
<path d="M109.17 7.34855C109.17 7.02248 109.17 6.85944 109.117 6.73084C109.046 6.55936 108.909 6.42313 108.738 6.3521C108.609 6.29883 108.446 6.29883 108.12 6.29883C107.794 6.29883 107.631 6.29883 107.502 6.3521C107.331 6.42313 107.195 6.55936 107.124 6.73084C107.07 6.85944 107.07 7.02248 107.07 7.34855C107.07 7.67463 107.07 7.83766 107.124 7.96627C107.195 8.13774 107.331 8.27398 107.502 8.34501C107.631 8.39828 107.794 8.39828 108.12 8.39828C108.446 8.39828 108.609 8.39828 108.738 8.34501C108.909 8.27398 109.046 8.13774 109.117 7.96627C109.17 7.83766 109.17 7.67463 109.17 7.34855Z" fill="#32CCCC"/>
<path d="M102.871 7.34855C102.871 7.02248 102.871 6.85944 102.818 6.73084C102.747 6.55936 102.611 6.42313 102.439 6.3521C102.31 6.29883 102.147 6.29883 101.821 6.29883C101.495 6.29883 101.332 6.29883 101.204 6.3521C101.032 6.42313 100.896 6.55936 100.825 6.73084C100.772 6.85944 100.772 7.02248 100.772 7.34855C100.772 7.67463 100.772 7.83766 100.825 7.96627C100.896 8.13774 101.032 8.27398 101.204 8.34501C101.332 8.39828 101.495 8.39828 101.821 8.39828C102.147 8.39828 102.31 8.39828 102.439 8.34501C102.611 8.27398 102.747 8.13774 102.818 7.96627C102.871 7.83766 102.871 7.67463 102.871 7.34855Z" fill="#32CCCC"/>
<path d="M128.066 13.6464C128.066 13.3203 128.066 13.1573 128.013 13.0287C127.942 12.8572 127.806 12.721 127.634 12.6499C127.506 12.5967 127.343 12.5967 127.017 12.5967C126.691 12.5967 126.528 12.5967 126.399 12.6499C126.227 12.721 126.091 12.8572 126.02 13.0287C125.967 13.1573 125.967 13.3203 125.967 13.6464C125.967 13.9725 125.967 14.1355 126.02 14.2641C126.091 14.4356 126.227 14.5718 126.399 14.6429C126.528 14.6961 126.691 14.6961 127.017 14.6961C127.343 14.6961 127.506 14.6961 127.634 14.6429C127.806 14.5718 127.942 14.4356 128.013 14.2641C128.066 14.1355 128.066 13.9725 128.066 13.6464Z" fill="#32CCCC"/>
<path d="M121.767 13.6464C121.767 13.3203 121.767 13.1573 121.714 13.0287C121.643 12.8572 121.507 12.721 121.335 12.6499C121.207 12.5967 121.044 12.5967 120.718 12.5967C120.392 12.5967 120.229 12.5967 120.1 12.6499C119.929 12.721 119.792 12.8572 119.721 13.0287C119.668 13.1573 119.668 13.3203 119.668 13.6464C119.668 13.9725 119.668 14.1355 119.721 14.2641C119.792 14.4356 119.929 14.5718 120.1 14.6429C120.229 14.6961 120.392 14.6961 120.718 14.6961C121.044 14.6961 121.207 14.6961 121.335 14.6429C121.507 14.5718 121.643 14.4356 121.714 14.2641C121.767 14.1355 121.767 13.9725 121.767 13.6464Z" fill="#32CCCC"/>
<path d="M115.469 13.6464C115.469 13.3203 115.469 13.1573 115.415 13.0287C115.344 12.8572 115.208 12.721 115.037 12.6499C114.908 12.5967 114.745 12.5967 114.419 12.5967C114.093 12.5967 113.93 12.5967 113.801 12.6499C113.63 12.721 113.494 12.8572 113.423 13.0287C113.369 13.1573 113.369 13.3203 113.369 13.6464C113.369 13.9725 113.369 14.1355 113.423 14.2641C113.494 14.4356 113.63 14.5718 113.801 14.6429C113.93 14.6961 114.093 14.6961 114.419 14.6961C114.745 14.6961 114.908 14.6961 115.037 14.6429C115.208 14.5718 115.344 14.4356 115.415 14.2641C115.469 14.1355 115.469 13.9725 115.469 13.6464Z" fill="#32CCCC"/>
<path d="M109.17 13.6464C109.17 13.3203 109.17 13.1573 109.117 13.0287C109.046 12.8572 108.909 12.721 108.738 12.6499C108.609 12.5967 108.446 12.5967 108.12 12.5967C107.794 12.5967 107.631 12.5967 107.502 12.6499C107.331 12.721 107.195 12.8572 107.124 13.0287C107.07 13.1573 107.07 13.3203 107.07 13.6464C107.07 13.9725 107.07 14.1355 107.124 14.2641C107.195 14.4356 107.331 14.5718 107.502 14.6429C107.631 14.6961 107.794 14.6961 108.12 14.6961C108.446 14.6961 108.609 14.6961 108.738 14.6429C108.909 14.5718 109.046 14.4356 109.117 14.2641C109.17 14.1355 109.17 13.9725 109.17 13.6464Z" fill="#32CCCC"/>
<path d="M134.363 19.9452C134.363 19.6192 134.363 19.4561 134.31 19.3275C134.239 19.156 134.103 19.0198 133.931 18.9488C133.803 18.8955 133.64 18.8955 133.314 18.8955C132.987 18.8955 132.824 18.8955 132.696 18.9488C132.524 19.0198 132.388 19.156 132.317 19.3275C132.264 19.4561 132.264 19.6192 132.264 19.9452C132.264 20.2713 132.264 20.4343 132.317 20.5629C132.388 20.7344 132.524 20.8707 132.696 20.9417C132.824 20.995 132.987 20.995 133.314 20.995C133.64 20.995 133.803 20.995 133.931 20.9417C134.103 20.8707 134.239 20.7344 134.31 20.5629C134.363 20.4343 134.363 20.2713 134.363 19.9452Z" fill="#32CCCC"/>
<path d="M128.066 19.9452C128.066 19.6192 128.066 19.4561 128.013 19.3275C127.942 19.156 127.806 19.0198 127.634 18.9488C127.506 18.8955 127.343 18.8955 127.017 18.8955C126.691 18.8955 126.528 18.8955 126.399 18.9488C126.227 19.0198 126.091 19.156 126.02 19.3275C125.967 19.4561 125.967 19.6192 125.967 19.9452C125.967 20.2713 125.967 20.4343 126.02 20.5629C126.091 20.7344 126.227 20.8707 126.399 20.9417C126.528 20.995 126.691 20.995 127.017 20.995C127.343 20.995 127.506 20.995 127.634 20.9417C127.806 20.8707 127.942 20.7344 128.013 20.5629C128.066 20.4343 128.066 20.2713 128.066 19.9452Z" fill="#32CCCC"/>
<path d="M121.767 19.9452C121.767 19.6192 121.767 19.4561 121.714 19.3275C121.643 19.156 121.507 19.0198 121.335 18.9488C121.207 18.8955 121.044 18.8955 120.718 18.8955C120.392 18.8955 120.229 18.8955 120.1 18.9488C119.929 19.0198 119.792 19.156 119.721 19.3275C119.668 19.4561 119.668 19.6192 119.668 19.9452C119.668 20.2713 119.668 20.4343 119.721 20.5629C119.792 20.7344 119.929 20.8707 120.1 20.9417C120.229 20.995 120.392 20.995 120.718 20.995C121.044 20.995 121.207 20.995 121.335 20.9417C121.507 20.8707 121.643 20.7344 121.714 20.5629C121.767 20.4343 121.767 20.2713 121.767 19.9452Z" fill="#32CCCC"/>
<path d="M115.469 19.9452C115.469 19.6192 115.469 19.4561 115.415 19.3275C115.344 19.156 115.208 19.0198 115.037 18.9488C114.908 18.8955 114.745 18.8955 114.419 18.8955C114.093 18.8955 113.93 18.8955 113.801 18.9488C113.63 19.0198 113.494 19.156 113.423 19.3275C113.369 19.4561 113.369 19.6192 113.369 19.9452C113.369 20.2713 113.369 20.4343 113.423 20.5629C113.494 20.7344 113.63 20.8707 113.801 20.9417C113.93 20.995 114.093 20.995 114.419 20.995C114.745 20.995 114.908 20.995 115.037 20.9417C115.208 20.8707 115.344 20.7344 115.415 20.5629C115.469 20.4343 115.469 20.2713 115.469 19.9452Z" fill="#32CCCC"/>
<path d="M140.662 26.2431C140.662 25.917 140.662 25.754 140.609 25.6254C140.538 25.4539 140.402 25.3177 140.23 25.2466C140.101 25.1934 139.938 25.1934 139.612 25.1934C139.286 25.1934 139.123 25.1934 138.995 25.2466C138.823 25.3177 138.687 25.4539 138.616 25.6254C138.563 25.754 138.563 25.917 138.563 26.2431C138.563 26.5692 138.563 26.7322 138.616 26.8608C138.687 27.0323 138.823 27.1685 138.995 27.2395C139.123 27.2928 139.286 27.2928 139.612 27.2928C139.938 27.2928 140.101 27.2928 140.23 27.2395C140.402 27.1685 140.538 27.0323 140.609 26.8608C140.662 26.7322 140.662 26.5692 140.662 26.2431Z" fill="#32CCCC"/>
<path d="M134.363 26.2431C134.363 25.917 134.363 25.754 134.31 25.6254C134.239 25.4539 134.103 25.3177 133.931 25.2466C133.803 25.1934 133.64 25.1934 133.314 25.1934C132.987 25.1934 132.824 25.1934 132.696 25.2466C132.524 25.3177 132.388 25.4539 132.317 25.6254C132.264 25.754 132.264 25.917 132.264 26.2431C132.264 26.5692 132.264 26.7322 132.317 26.8608C132.388 27.0323 132.524 27.1685 132.696 27.2395C132.824 27.2928 132.987 27.2928 133.314 27.2928C133.64 27.2928 133.803 27.2928 133.931 27.2395C134.103 27.1685 134.239 27.0323 134.31 26.8608C134.363 26.7322 134.363 26.5692 134.363 26.2431Z" fill="#32CCCC"/>
<path d="M128.066 26.2431C128.066 25.917 128.066 25.754 128.013 25.6254C127.942 25.4539 127.806 25.3177 127.634 25.2466C127.506 25.1934 127.343 25.1934 127.017 25.1934C126.691 25.1934 126.528 25.1934 126.399 25.2466C126.227 25.3177 126.091 25.4539 126.02 25.6254C125.967 25.754 125.967 25.917 125.967 26.2431C125.967 26.5692 125.967 26.7322 126.02 26.8608C126.091 27.0323 126.227 27.1685 126.399 27.2395C126.528 27.2928 126.691 27.2928 127.017 27.2928C127.343 27.2928 127.506 27.2928 127.634 27.2395C127.806 27.1685 127.942 27.0323 128.013 26.8608C128.066 26.7322 128.066 26.5692 128.066 26.2431Z" fill="#32CCCC"/>
<path d="M121.767 26.2431C121.767 25.917 121.767 25.754 121.714 25.6254C121.643 25.4539 121.507 25.3177 121.335 25.2466C121.207 25.1934 121.044 25.1934 120.718 25.1934C120.392 25.1934 120.229 25.1934 120.1 25.2466C119.929 25.3177 119.792 25.4539 119.721 25.6254C119.668 25.754 119.668 25.917 119.668 26.2431C119.668 26.5692 119.668 26.7322 119.721 26.8608C119.792 27.0323 119.929 27.1685 120.1 27.2395C120.229 27.2928 120.392 27.2928 120.718 27.2928C121.044 27.2928 121.207 27.2928 121.335 27.2395C121.507 27.1685 121.643 27.0323 121.714 26.8608C121.767 26.7322 121.767 26.5692 121.767 26.2431Z" fill="#32CCCC"/>
<path d="M77.6795 1.04972C77.6795 0.72365 77.6795 0.560614 77.6262 0.432008C77.5552 0.260533 77.419 0.124297 77.2475 0.0532703C77.1189 0 76.9559 0 76.6298 0C76.3037 0 76.1407 0 76.0121 0.0532703C75.8406 0.124297 75.7044 0.260533 75.6333 0.432008C75.5801 0.560614 75.5801 0.72365 75.5801 1.04972C75.5801 1.3758 75.5801 1.53883 75.6333 1.66744C75.7044 1.83891 75.8406 1.97515 76.0121 2.04618C76.1407 2.09945 76.3037 2.09945 76.6298 2.09945C76.9559 2.09945 77.1189 2.09945 77.2475 2.04618C77.419 1.97515 77.5552 1.83891 77.6262 1.66744C77.6795 1.53883 77.6795 1.3758 77.6795 1.04972Z" fill="#32CCCC"/>
<path d="M71.3809 1.04972C71.3809 0.72365 71.3809 0.560614 71.3276 0.432008C71.2566 0.260533 71.1203 0.124297 70.9489 0.0532703C70.8202 0 70.6572 0 70.3311 0C70.0051 0 69.842 0 69.7134 0.0532703C69.5419 0.124297 69.4057 0.260533 69.3347 0.432008C69.2814 0.560614 69.2814 0.72365 69.2814 1.04972C69.2814 1.3758 69.2814 1.53883 69.3347 1.66744C69.4057 1.83891 69.5419 1.97515 69.7134 2.04618C69.842 2.09945 70.0051 2.09945 70.3311 2.09945C70.6572 2.09945 70.8202 2.09945 70.9489 2.04618C71.1203 1.97515 71.2566 1.83891 71.3276 1.66744C71.3809 1.53883 71.3809 1.3758 71.3809 1.04972Z" fill="#32CCCC"/>
<path d="M65.082 1.04972C65.082 0.72365 65.082 0.560614 65.0288 0.432008C64.9577 0.260533 64.8215 0.124297 64.65 0.0532703C64.5214 0 64.3584 0 64.0323 0C63.7062 0 63.5432 0 63.4146 0.0532703C63.2431 0.124297 63.1069 0.260533 63.0359 0.432008C62.9826 0.560614 62.9826 0.72365 62.9826 1.04972C62.9826 1.3758 62.9826 1.53883 63.0359 1.66744C63.1069 1.83891 63.2431 1.97515 63.4146 2.04618C63.5432 2.09945 63.7062 2.09945 64.0323 2.09945C64.3584 2.09945 64.5214 2.09945 64.65 2.04618C64.8215 1.97515 64.9577 1.83891 65.0288 1.66744C65.082 1.53883 65.082 1.3758 65.082 1.04972Z" fill="#32CCCC"/>
<path d="M58.7852 1.04972C58.7852 0.72365 58.7852 0.560614 58.7319 0.432008C58.6609 0.260533 58.5246 0.124297 58.3531 0.0532703C58.2245 0 58.0615 0 57.7354 0C57.4094 0 57.2463 0 57.1177 0.0532703C56.9462 0.124297 56.81 0.260533 56.739 0.432008C56.6857 0.560614 56.6857 0.72365 56.6857 1.04972C56.6857 1.3758 56.6857 1.53883 56.739 1.66744C56.81 1.83891 56.9462 1.97515 57.1177 2.04618C57.2463 2.09945 57.4094 2.09945 57.7354 2.09945C58.0615 2.09945 58.2245 2.09945 58.3531 2.04618C58.5246 1.97515 58.6609 1.83891 58.7319 1.66744C58.7852 1.53883 58.7852 1.3758 58.7852 1.04972Z" fill="#32CCCC"/>
<path d="M52.4862 1.04972C52.4862 0.72365 52.4862 0.560614 52.4329 0.432008C52.3619 0.260533 52.2256 0.124297 52.0542 0.0532703C51.9255 0 51.7625 0 51.4364 0C51.1104 0 50.9473 0 50.8187 0.0532703C50.6472 0.124297 50.511 0.260533 50.44 0.432008C50.3867 0.560614 50.3867 0.72365 50.3867 1.04972C50.3867 1.3758 50.3867 1.53883 50.44 1.66744C50.511 1.83891 50.6472 1.97515 50.8187 2.04618C50.9473 2.09945 51.1104 2.09945 51.4364 2.09945C51.7625 2.09945 51.9255 2.09945 52.0542 2.04618C52.2256 1.97515 52.3619 1.83891 52.4329 1.66744C52.4862 1.53883 52.4862 1.3758 52.4862 1.04972Z" fill="#32CCCC"/>
<path d="M77.6795 7.34855C77.6795 7.02248 77.6795 6.85944 77.6262 6.73084C77.5552 6.55936 77.419 6.42313 77.2475 6.3521C77.1189 6.29883 76.9559 6.29883 76.6298 6.29883C76.3037 6.29883 76.1407 6.29883 76.0121 6.3521C75.8406 6.42313 75.7044 6.55936 75.6333 6.73084C75.5801 6.85944 75.5801 7.02248 75.5801 7.34855C75.5801 7.67463 75.5801 7.83766 75.6333 7.96627C75.7044 8.13774 75.8406 8.27398 76.0121 8.34501C76.1407 8.39828 76.3037 8.39828 76.6298 8.39828C76.9559 8.39828 77.1189 8.39828 77.2475 8.34501C77.419 8.27398 77.5552 8.13774 77.6262 7.96627C77.6795 7.83766 77.6795 7.67463 77.6795 7.34855Z" fill="#32CCCC"/>
<path d="M71.3809 7.34855C71.3809 7.02248 71.3809 6.85944 71.3276 6.73084C71.2566 6.55936 71.1203 6.42313 70.9489 6.3521C70.8202 6.29883 70.6572 6.29883 70.3311 6.29883C70.0051 6.29883 69.842 6.29883 69.7134 6.3521C69.5419 6.42313 69.4057 6.55936 69.3347 6.73084C69.2814 6.85944 69.2814 7.02248 69.2814 7.34855C69.2814 7.67463 69.2814 7.83766 69.3347 7.96627C69.4057 8.13774 69.5419 8.27398 69.7134 8.34501C69.842 8.39828 70.0051 8.39828 70.3311 8.39828C70.6572 8.39828 70.8202 8.39828 70.9489 8.34501C71.1203 8.27398 71.2566 8.13774 71.3276 7.96627C71.3809 7.83766 71.3809 7.67463 71.3809 7.34855Z" fill="#32CCCC"/>
<path d="M65.082 7.34855C65.082 7.02248 65.082 6.85944 65.0288 6.73084C64.9577 6.55936 64.8215 6.42313 64.65 6.3521C64.5214 6.29883 64.3584 6.29883 64.0323 6.29883C63.7062 6.29883 63.5432 6.29883 63.4146 6.3521C63.2431 6.42313 63.1069 6.55936 63.0359 6.73084C62.9826 6.85944 62.9826 7.02248 62.9826 7.34855C62.9826 7.67463 62.9826 7.83766 63.0359 7.96627C63.1069 8.13774 63.2431 8.27398 63.4146 8.34501C63.5432 8.39828 63.7062 8.39828 64.0323 8.39828C64.3584 8.39828 64.5214 8.39828 64.65 8.34501C64.8215 8.27398 64.9577 8.13774 65.0288 7.96627C65.082 7.83766 65.082 7.67463 65.082 7.34855Z" fill="#32CCCC"/>
<path d="M58.7852 7.34855C58.7852 7.02248 58.7852 6.85944 58.7319 6.73084C58.6609 6.55936 58.5246 6.42313 58.3531 6.3521C58.2245 6.29883 58.0615 6.29883 57.7354 6.29883C57.4094 6.29883 57.2463 6.29883 57.1177 6.3521C56.9462 6.42313 56.81 6.55936 56.739 6.73084C56.6857 6.85944 56.6857 7.02248 56.6857 7.34855C56.6857 7.67463 56.6857 7.83766 56.739 7.96627C56.81 8.13774 56.9462 8.27398 57.1177 8.34501C57.2463 8.39828 57.4094 8.39828 57.7354 8.39828C58.0615 8.39828 58.2245 8.39828 58.3531 8.34501C58.5246 8.27398 58.6609 8.13774 58.7319 7.96627C58.7852 7.83766 58.7852 7.67463 58.7852 7.34855Z" fill="#32CCCC"/>
<path d="M52.4862 7.34855C52.4862 7.02248 52.4862 6.85944 52.4329 6.73084C52.3619 6.55936 52.2256 6.42313 52.0542 6.3521C51.9255 6.29883 51.7625 6.29883 51.4364 6.29883C51.1104 6.29883 50.9473 6.29883 50.8187 6.3521C50.6472 6.42313 50.511 6.55936 50.44 6.73084C50.3867 6.85944 50.3867 7.02248 50.3867 7.34855C50.3867 7.67463 50.3867 7.83766 50.44 7.96627C50.511 8.13774 50.6472 8.27398 50.8187 8.34501C50.9473 8.39828 51.1104 8.39828 51.4364 8.39828C51.7625 8.39828 51.9255 8.39828 52.0542 8.34501C52.2256 8.27398 52.3619 8.13774 52.4329 7.96627C52.4862 7.83766 52.4862 7.67463 52.4862 7.34855Z" fill="#32CCCC"/>
<path d="M77.6795 13.6464C77.6795 13.3203 77.6795 13.1573 77.6262 13.0287C77.5552 12.8572 77.419 12.721 77.2475 12.6499C77.1189 12.5967 76.9559 12.5967 76.6298 12.5967C76.3037 12.5967 76.1407 12.5967 76.0121 12.6499C75.8406 12.721 75.7044 12.8572 75.6333 13.0287C75.5801 13.1573 75.5801 13.3203 75.5801 13.6464C75.5801 13.9725 75.5801 14.1355 75.6333 14.2641C75.7044 14.4356 75.8406 14.5718 76.0121 14.6429C76.1407 14.6961 76.3037 14.6961 76.6298 14.6961C76.9559 14.6961 77.1189 14.6961 77.2475 14.6429C77.419 14.5718 77.5552 14.4356 77.6262 14.2641C77.6795 14.1355 77.6795 13.9725 77.6795 13.6464Z" fill="#32CCCC"/>
<path d="M71.3809 13.6464C71.3809 13.3203 71.3809 13.1573 71.3276 13.0287C71.2566 12.8572 71.1203 12.721 70.9489 12.6499C70.8202 12.5967 70.6572 12.5967 70.3311 12.5967C70.0051 12.5967 69.842 12.5967 69.7134 12.6499C69.5419 12.721 69.4057 12.8572 69.3347 13.0287C69.2814 13.1573 69.2814 13.3203 69.2814 13.6464C69.2814 13.9725 69.2814 14.1355 69.3347 14.2641C69.4057 14.4356 69.5419 14.5718 69.7134 14.6429C69.842 14.6961 70.0051 14.6961 70.3311 14.6961C70.6572 14.6961 70.8202 14.6961 70.9489 14.6429C71.1203 14.5718 71.2566 14.4356 71.3276 14.2641C71.3809 14.1355 71.3809 13.9725 71.3809 13.6464Z" fill="#32CCCC"/>
<path d="M65.082 13.6464C65.082 13.3203 65.082 13.1573 65.0288 13.0287C64.9577 12.8572 64.8215 12.721 64.65 12.6499C64.5214 12.5967 64.3584 12.5967 64.0323 12.5967C63.7062 12.5967 63.5432 12.5967 63.4146 12.6499C63.2431 12.721 63.1069 12.8572 63.0359 13.0287C62.9826 13.1573 62.9826 13.3203 62.9826 13.6464C62.9826 13.9725 62.9826 14.1355 63.0359 14.2641C63.1069 14.4356 63.2431 14.5718 63.4146 14.6429C63.5432 14.6961 63.7062 14.6961 64.0323 14.6961C64.3584 14.6961 64.5214 14.6961 64.65 14.6429C64.8215 14.5718 64.9577 14.4356 65.0288 14.2641C65.082 14.1355 65.082 13.9725 65.082 13.6464Z" fill="#32CCCC"/>
<path d="M71.3809 19.9452C71.3809 19.6192 71.3809 19.4561 71.3276 19.3275C71.2566 19.156 71.1203 19.0198 70.9489 18.9488C70.8202 18.8955 70.6572 18.8955 70.3311 18.8955C70.0051 18.8955 69.842 18.8955 69.7134 18.9488C69.5419 19.0198 69.4057 19.156 69.3347 19.3275C69.2814 19.4561 69.2814 19.6192 69.2814 19.9452C69.2814 20.2713 69.2814 20.4343 69.3347 20.5629C69.4057 20.7344 69.5419 20.8707 69.7134 20.9417C69.842 20.995 70.0051 20.995 70.3311 20.995C70.6572 20.995 70.8202 20.995 70.9489 20.9417C71.1203 20.8707 71.2566 20.7344 71.3276 20.5629C71.3809 20.4343 71.3809 20.2713 71.3809 19.9452Z" fill="#32CCCC"/>
<path d="M65.082 19.9452C65.082 19.6192 65.082 19.4561 65.0288 19.3275C64.9577 19.156 64.8215 19.0198 64.65 18.9488C64.5214 18.8955 64.3584 18.8955 64.0323 18.8955C63.7062 18.8955 63.5432 18.8955 63.4146 18.9488C63.2431 19.0198 63.1069 19.156 63.0359 19.3275C62.9826 19.4561 62.9826 19.6192 62.9826 19.9452C62.9826 20.2713 62.9826 20.4343 63.0359 20.5629C63.1069 20.7344 63.2431 20.8707 63.4146 20.9417C63.5432 20.995 63.7062 20.995 64.0323 20.995C64.3584 20.995 64.5214 20.995 64.65 20.9417C64.8215 20.8707 64.9577 20.7344 65.0288 20.5629C65.082 20.4343 65.082 20.2713 65.082 19.9452Z" fill="#32CCCC"/>
<path d="M58.7852 19.9452C58.7852 19.6192 58.7852 19.4561 58.7319 19.3275C58.6609 19.156 58.5246 19.0198 58.3531 18.9488C58.2245 18.8955 58.0615 18.8955 57.7354 18.8955C57.4094 18.8955 57.2463 18.8955 57.1177 18.9488C56.9462 19.0198 56.81 19.156 56.739 19.3275C56.6857 19.4561 56.6857 19.6192 56.6857 19.9452C56.6857 20.2713 56.6857 20.4343 56.739 20.5629C56.81 20.7344 56.9462 20.8707 57.1177 20.9417C57.2463 20.995 57.4094 20.995 57.7354 20.995C58.0615 20.995 58.2245 20.995 58.3531 20.9417C58.5246 20.8707 58.6609 20.7344 58.7319 20.5629C58.7852 20.4343 58.7852 20.2713 58.7852 19.9452Z" fill="#32CCCC"/>
<path d="M77.6795 26.2431C77.6795 25.917 77.6795 25.754 77.6262 25.6254C77.5552 25.4539 77.419 25.3177 77.2475 25.2466C77.1189 25.1934 76.9559 25.1934 76.6298 25.1934C76.3037 25.1934 76.1407 25.1934 76.0121 25.2466C75.8406 25.3177 75.7044 25.4539 75.6333 25.6254C75.5801 25.754 75.5801 25.917 75.5801 26.2431C75.5801 26.5692 75.5801 26.7322 75.6333 26.8608C75.7044 27.0323 75.8406 27.1685 76.0121 27.2395C76.1407 27.2928 76.3037 27.2928 76.6298 27.2928C76.9559 27.2928 77.1189 27.2928 77.2475 27.2395C77.419 27.1685 77.5552 27.0323 77.6262 26.8608C77.6795 26.7322 77.6795 26.5692 77.6795 26.2431Z" fill="#32CCCC"/>
<path d="M71.3809 26.2431C71.3809 25.917 71.3809 25.754 71.3276 25.6254C71.2566 25.4539 71.1203 25.3177 70.9489 25.2466C70.8202 25.1934 70.6572 25.1934 70.3311 25.1934C70.0051 25.1934 69.842 25.1934 69.7134 25.2466C69.5419 25.3177 69.4057 25.4539 69.3347 25.6254C69.2814 25.754 69.2814 25.917 69.2814 26.2431C69.2814 26.5692 69.2814 26.7322 69.3347 26.8608C69.4057 27.0323 69.5419 27.1685 69.7134 27.2395C69.842 27.2928 70.0051 27.2928 70.3311 27.2928C70.6572 27.2928 70.8202 27.2928 70.9489 27.2395C71.1203 27.1685 71.2566 27.0323 71.3276 26.8608C71.3809 26.7322 71.3809 26.5692 71.3809 26.2431Z" fill="#32CCCC"/>
<path d="M65.082 26.2431C65.082 25.917 65.082 25.754 65.0288 25.6254C64.9577 25.4539 64.8215 25.3177 64.65 25.2466C64.5214 25.1934 64.3584 25.1934 64.0323 25.1934C63.7062 25.1934 63.5432 25.1934 63.4146 25.2466C63.2431 25.3177 63.1069 25.4539 63.0359 25.6254C62.9826 25.754 62.9826 25.917 62.9826 26.2431C62.9826 26.5692 62.9826 26.7322 63.0359 26.8608C63.1069 27.0323 63.2431 27.1685 63.4146 27.2395C63.5432 27.2928 63.7062 27.2928 64.0323 27.2928C64.3584 27.2928 64.5214 27.2928 64.65 27.2395C64.8215 27.1685 64.9577 27.0323 65.0288 26.8608C65.082 26.7322 65.082 26.5692 65.082 26.2431Z" fill="#32CCCC"/>
<path d="M58.7852 26.2431C58.7852 25.917 58.7852 25.754 58.7319 25.6254C58.6609 25.4539 58.5246 25.3177 58.3531 25.2466C58.2245 25.1934 58.0615 25.1934 57.7354 25.1934C57.4094 25.1934 57.2463 25.1934 57.1177 25.2466C56.9462 25.3177 56.81 25.4539 56.739 25.6254C56.6857 25.754 56.6857 25.917 56.6857 26.2431C56.6857 26.5692 56.6857 26.7322 56.739 26.8608C56.81 27.0323 56.9462 27.1685 57.1177 27.2395C57.2463 27.2928 57.4094 27.2928 57.7354 27.2928C58.0615 27.2928 58.2245 27.2928 58.3531 27.2395C58.5246 27.1685 58.6609 27.0323 58.7319 26.8608C58.7852 26.7322 58.7852 26.5692 58.7852 26.2431Z" fill="#32CCCC"/>
<path d="M52.4862 26.2431C52.4862 25.917 52.4862 25.754 52.4329 25.6254C52.3619 25.4539 52.2256 25.3177 52.0542 25.2466C51.9255 25.1934 51.7625 25.1934 51.4364 25.1934C51.1104 25.1934 50.9473 25.1934 50.8187 25.2466C50.6472 25.3177 50.511 25.4539 50.44 25.6254C50.3867 25.754 50.3867 25.917 50.3867 26.2431C50.3867 26.5692 50.3867 26.7322 50.44 26.8608C50.511 27.0323 50.6472 27.1685 50.8187 27.2395C50.9473 27.2928 51.1104 27.2928 51.4364 27.2928C51.7625 27.2928 51.9255 27.2928 52.0542 27.2395C52.2256 27.1685 52.3619 27.0323 52.4329 26.8608C52.4862 26.7322 52.4862 26.5692 52.4862 26.2431Z" fill="#32CCCC"/>
<path d="M33.5898 1.04972C33.5898 0.72365 33.5898 0.560614 33.5366 0.432008C33.4655 0.260533 33.3293 0.124297 33.1578 0.0532703C33.0292 0 32.8662 0 32.5401 0C32.214 0 32.051 0 31.9224 0.0532703C31.7509 0.124297 31.6147 0.260533 31.5437 0.432008C31.4904 0.560614 31.4904 0.72365 31.4904 1.04972C31.4904 1.3758 31.4904 1.53883 31.5437 1.66744C31.6147 1.83891 31.7509 1.97515 31.9224 2.04618C32.051 2.09945 32.214 2.09945 32.5401 2.09945C32.8662 2.09945 33.0292 2.09945 33.1578 2.04618C33.3293 1.97515 33.4655 1.83891 33.5366 1.66744C33.5898 1.53883 33.5898 1.3758 33.5898 1.04972Z" fill="#32CCCC"/>
<path d="M27.2928 1.04972C27.2928 0.72365 27.2928 0.560614 27.2395 0.432008C27.1685 0.260533 27.0323 0.124297 26.8608 0.0532703C26.7322 0 26.5692 0 26.2431 0C25.917 0 25.754 0 25.6254 0.0532703C25.4539 0.124297 25.3177 0.260533 25.2466 0.432008C25.1934 0.560614 25.1934 0.72365 25.1934 1.04972C25.1934 1.3758 25.1934 1.53883 25.2466 1.66744C25.3177 1.83891 25.4539 1.97515 25.6254 2.04618C25.754 2.09945 25.917 2.09945 26.2431 2.09945C26.5692 2.09945 26.7322 2.09945 26.8608 2.04618C27.0323 1.97515 27.1685 1.83891 27.2395 1.66744C27.2928 1.53883 27.2928 1.3758 27.2928 1.04972Z" fill="#32CCCC"/>
<path d="M20.9941 1.04972C20.9941 0.72365 20.9941 0.560614 20.9409 0.432008C20.8698 0.260533 20.7336 0.124297 20.5621 0.0532703C20.4335 0 20.2705 0 19.9444 0C19.6183 0 19.4553 0 19.3267 0.0532703C19.1552 0.124297 19.019 0.260533 18.948 0.432008C18.8947 0.560614 18.8947 0.72365 18.8947 1.04972C18.8947 1.3758 18.8947 1.53883 18.948 1.66744C19.019 1.83891 19.1552 1.97515 19.3267 2.04618C19.4553 2.09945 19.6183 2.09945 19.9444 2.09945C20.2705 2.09945 20.4335 2.09945 20.5621 2.04618C20.7336 1.97515 20.8698 1.83891 20.9409 1.66744C20.9941 1.53883 20.9941 1.3758 20.9941 1.04972Z" fill="#32CCCC"/>
<path d="M14.6953 1.04972C14.6953 0.72365 14.6953 0.560614 14.642 0.432008C14.571 0.260533 14.4348 0.124297 14.2633 0.0532703C14.1347 0 13.9717 0 13.6456 0C13.3195 0 13.1565 0 13.0279 0.0532703C12.8564 0.124297 12.7202 0.260533 12.6491 0.432008C12.5959 0.560614 12.5959 0.72365 12.5959 1.04972C12.5959 1.3758 12.5959 1.53883 12.6491 1.66744C12.7202 1.83891 12.8564 1.97515 13.0279 2.04618C13.1565 2.09945 13.3195 2.09945 13.6456 2.09945C13.9717 2.09945 14.1347 2.09945 14.2633 2.04618C14.4348 1.97515 14.571 1.83891 14.642 1.66744C14.6953 1.53883 14.6953 1.3758 14.6953 1.04972Z" fill="#32CCCC"/>
<path d="M8.39844 1.04972C8.39844 0.72365 8.39844 0.560614 8.34517 0.432008C8.27414 0.260533 8.1379 0.124297 7.96643 0.0532703C7.83782 0 7.67479 0 7.34871 0C7.02264 0 6.8596 0 6.731 0.0532703C6.55952 0.124297 6.42329 0.260533 6.35226 0.432008C6.29899 0.560614 6.29899 0.72365 6.29899 1.04972C6.29899 1.3758 6.29899 1.53883 6.35226 1.66744C6.42329 1.83891 6.55952 1.97515 6.731 2.04618C6.8596 2.09945 7.02264 2.09945 7.34871 2.09945C7.67479 2.09945 7.83782 2.09945 7.96643 2.04618C8.1379 1.97515 8.27414 1.83891 8.34517 1.66744C8.39844 1.53883 8.39844 1.3758 8.39844 1.04972Z" fill="#32CCCC"/>
<path d="M39.8887 7.34855C39.8887 7.02248 39.8887 6.85944 39.8354 6.73084C39.7644 6.55936 39.6281 6.42313 39.4567 6.3521C39.3281 6.29883 39.165 6.29883 38.8389 6.29883C38.5129 6.29883 38.3498 6.29883 38.2212 6.3521C38.0498 6.42313 37.9135 6.55936 37.8425 6.73084C37.7892 6.85944 37.7892 7.02248 37.7892 7.34855C37.7892 7.67463 37.7892 7.83766 37.8425 7.96627C37.9135 8.13774 38.0498 8.27398 38.2212 8.34501C38.3498 8.39828 38.5129 8.39828 38.8389 8.39828C39.165 8.39828 39.3281 8.39828 39.4567 8.34501C39.6281 8.27398 39.7644 8.13774 39.8354 7.96627C39.8887 7.83766 39.8887 7.67463 39.8887 7.34855Z" fill="#32CCCC"/>
<path d="M33.5898 7.34855C33.5898 7.02248 33.5898 6.85944 33.5366 6.73084C33.4655 6.55936 33.3293 6.42313 33.1578 6.3521C33.0292 6.29883 32.8662 6.29883 32.5401 6.29883C32.214 6.29883 32.051 6.29883 31.9224 6.3521C31.7509 6.42313 31.6147 6.55936 31.5437 6.73084C31.4904 6.85944 31.4904 7.02248 31.4904 7.34855C31.4904 7.67463 31.4904 7.83766 31.5437 7.96627C31.6147 8.13774 31.7509 8.27398 31.9224 8.34501C32.051 8.39828 32.214 8.39828 32.5401 8.39828C32.8662 8.39828 33.0292 8.39828 33.1578 8.34501C33.3293 8.27398 33.4655 8.13774 33.5366 7.96627C33.5898 7.83766 33.5898 7.67463 33.5898 7.34855Z" fill="#32CCCC"/>
<path d="M27.2928 7.34855C27.2928 7.02248 27.2928 6.85944 27.2395 6.73084C27.1685 6.55936 27.0323 6.42313 26.8608 6.3521C26.7322 6.29883 26.5692 6.29883 26.2431 6.29883C25.917 6.29883 25.754 6.29883 25.6254 6.3521C25.4539 6.42313 25.3177 6.55936 25.2466 6.73084C25.1934 6.85944 25.1934 7.02248 25.1934 7.34855C25.1934 7.67463 25.1934 7.83766 25.2466 7.96627C25.3177 8.13774 25.4539 8.27398 25.6254 8.34501C25.754 8.39828 25.917 8.39828 26.2431 8.39828C26.5692 8.39828 26.7322 8.39828 26.8608 8.34501C27.0323 8.27398 27.1685 8.13774 27.2395 7.96627C27.2928 7.83766 27.2928 7.67463 27.2928 7.34855Z" fill="#32CCCC"/>
<path d="M20.9941 7.34855C20.9941 7.02248 20.9941 6.85944 20.9409 6.73084C20.8698 6.55936 20.7336 6.42313 20.5621 6.3521C20.4335 6.29883 20.2705 6.29883 19.9444 6.29883C19.6183 6.29883 19.4553 6.29883 19.3267 6.3521C19.1552 6.42313 19.019 6.55936 18.948 6.73084C18.8947 6.85944 18.8947 7.02248 18.8947 7.34855C18.8947 7.67463 18.8947 7.83766 18.948 7.96627C19.019 8.13774 19.1552 8.27398 19.3267 8.34501C19.4553 8.39828 19.6183 8.39828 19.9444 8.39828C20.2705 8.39828 20.4335 8.39828 20.5621 8.34501C20.7336 8.27398 20.8698 8.13774 20.9409 7.96627C20.9941 7.83766 20.9941 7.67463 20.9941 7.34855Z" fill="#32CCCC"/>
<path d="M14.6953 7.34855C14.6953 7.02248 14.6953 6.85944 14.642 6.73084C14.571 6.55936 14.4348 6.42313 14.2633 6.3521C14.1347 6.29883 13.9717 6.29883 13.6456 6.29883C13.3195 6.29883 13.1565 6.29883 13.0279 6.3521C12.8564 6.42313 12.7202 6.55936 12.6491 6.73084C12.5959 6.85944 12.5959 7.02248 12.5959 7.34855C12.5959 7.67463 12.5959 7.83766 12.6491 7.96627C12.7202 8.13774 12.8564 8.27398 13.0279 8.34501C13.1565 8.39828 13.3195 8.39828 13.6456 8.39828C13.9717 8.39828 14.1347 8.39828 14.2633 8.34501C14.4348 8.27398 14.571 8.13774 14.642 7.96627C14.6953 7.83766 14.6953 7.67463 14.6953 7.34855Z" fill="#32CCCC"/>
<path d="M8.39844 7.34855C8.39844 7.02248 8.39844 6.85944 8.34517 6.73084C8.27414 6.55936 8.1379 6.42313 7.96643 6.3521C7.83782 6.29883 7.67479 6.29883 7.34871 6.29883C7.02264 6.29883 6.8596 6.29883 6.731 6.3521C6.55952 6.42313 6.42329 6.55936 6.35226 6.73084C6.29899 6.85944 6.29899 7.02248 6.29899 7.34855C6.29899 7.67463 6.29899 7.83766 6.35226 7.96627C6.42329 8.13774 6.55952 8.27398 6.731 8.34501C6.8596 8.39828 7.02264 8.39828 7.34871 8.39828C7.67479 8.39828 7.83782 8.39828 7.96643 8.34501C8.1379 8.27398 8.27414 8.13774 8.34517 7.96627C8.39844 7.83766 8.39844 7.67463 8.39844 7.34855Z" fill="#32CCCC"/>
<path d="M2.09944 7.34855C2.09944 7.02248 2.09944 6.85944 2.04617 6.73084C1.97514 6.55936 1.83891 6.42313 1.66743 6.3521C1.53883 6.29883 1.37579 6.29883 1.04972 6.29883C0.723644 6.29883 0.560608 6.29883 0.432002 6.3521C0.260527 6.42313 0.124291 6.55936 0.0532644 6.73084C-5.96046e-06 6.85944 -5.96046e-06 7.02248 -5.96046e-06 7.34855C-5.96046e-06 7.67463 -5.96046e-06 7.83766 0.0532644 7.96627C0.124291 8.13774 0.260527 8.27398 0.432002 8.34501C0.560608 8.39828 0.723644 8.39828 1.04972 8.39828C1.37579 8.39828 1.53883 8.39828 1.66743 8.34501C1.83891 8.27398 1.97514 8.13774 2.04617 7.96627C2.09944 7.83766 2.09944 7.67463 2.09944 7.34855Z" fill="#32CCCC"/>
<path d="M39.8887 13.6464C39.8887 13.3203 39.8887 13.1573 39.8354 13.0287C39.7644 12.8572 39.6281 12.721 39.4567 12.6499C39.3281 12.5967 39.165 12.5967 38.8389 12.5967C38.5129 12.5967 38.3498 12.5967 38.2212 12.6499C38.0498 12.721 37.9135 12.8572 37.8425 13.0287C37.7892 13.1573 37.7892 13.3203 37.7892 13.6464C37.7892 13.9725 37.7892 14.1355 37.8425 14.2641C37.9135 14.4356 38.0498 14.5718 38.2212 14.6429C38.3498 14.6961 38.5129 14.6961 38.8389 14.6961C39.165 14.6961 39.3281 14.6961 39.4567 14.6429C39.6281 14.5718 39.7644 14.4356 39.8354 14.2641C39.8887 14.1355 39.8887 13.9725 39.8887 13.6464Z" fill="#32CCCC"/>
<path d="M33.5898 13.6464C33.5898 13.3203 33.5898 13.1573 33.5366 13.0287C33.4655 12.8572 33.3293 12.721 33.1578 12.6499C33.0292 12.5967 32.8662 12.5967 32.5401 12.5967C32.214 12.5967 32.051 12.5967 31.9224 12.6499C31.7509 12.721 31.6147 12.8572 31.5437 13.0287C31.4904 13.1573 31.4904 13.3203 31.4904 13.6464C31.4904 13.9725 31.4904 14.1355 31.5437 14.2641C31.6147 14.4356 31.7509 14.5718 31.9224 14.6429C32.051 14.6961 32.214 14.6961 32.5401 14.6961C32.8662 14.6961 33.0292 14.6961 33.1578 14.6429C33.3293 14.5718 33.4655 14.4356 33.5366 14.2641C33.5898 14.1355 33.5898 13.9725 33.5898 13.6464Z" fill="#32CCCC"/>
<path d="M27.2928 13.6464C27.2928 13.3203 27.2928 13.1573 27.2395 13.0287C27.1685 12.8572 27.0323 12.721 26.8608 12.6499C26.7322 12.5967 26.5692 12.5967 26.2431 12.5967C25.917 12.5967 25.754 12.5967 25.6254 12.6499C25.4539 12.721 25.3177 12.8572 25.2466 13.0287C25.1934 13.1573 25.1934 13.3203 25.1934 13.6464C25.1934 13.9725 25.1934 14.1355 25.2466 14.2641C25.3177 14.4356 25.4539 14.5718 25.6254 14.6429C25.754 14.6961 25.917 14.6961 26.2431 14.6961C26.5692 14.6961 26.7322 14.6961 26.8608 14.6429C27.0323 14.5718 27.1685 14.4356 27.2395 14.2641C27.2928 14.1355 27.2928 13.9725 27.2928 13.6464Z" fill="#32CCCC"/>
<path d="M14.6953 13.6464C14.6953 13.3203 14.6953 13.1573 14.642 13.0287C14.571 12.8572 14.4348 12.721 14.2633 12.6499C14.1347 12.5967 13.9717 12.5967 13.6456 12.5967C13.3195 12.5967 13.1565 12.5967 13.0279 12.6499C12.8564 12.721 12.7202 12.8572 12.6491 13.0287C12.5959 13.1573 12.5959 13.3203 12.5959 13.6464C12.5959 13.9725 12.5959 14.1355 12.6491 14.2641C12.7202 14.4356 12.8564 14.5718 13.0279 14.6429C13.1565 14.6961 13.3195 14.6961 13.6456 14.6961C13.9717 14.6961 14.1347 14.6961 14.2633 14.6429C14.4348 14.5718 14.571 14.4356 14.642 14.2641C14.6953 14.1355 14.6953 13.9725 14.6953 13.6464Z" fill="#32CCCC"/>
<path d="M8.39844 13.6464C8.39844 13.3203 8.39844 13.1573 8.34517 13.0287C8.27414 12.8572 8.1379 12.721 7.96643 12.6499C7.83782 12.5967 7.67479 12.5967 7.34871 12.5967C7.02264 12.5967 6.8596 12.5967 6.731 12.6499C6.55952 12.721 6.42329 12.8572 6.35226 13.0287C6.29899 13.1573 6.29899 13.3203 6.29899 13.6464C6.29899 13.9725 6.29899 14.1355 6.35226 14.2641C6.42329 14.4356 6.55952 14.5718 6.731 14.6429C6.8596 14.6961 7.02264 14.6961 7.34871 14.6961C7.67479 14.6961 7.83782 14.6961 7.96643 14.6429C8.1379 14.5718 8.27414 14.4356 8.34517 14.2641C8.39844 14.1355 8.39844 13.9725 8.39844 13.6464Z" fill="#32CCCC"/>
<path d="M2.09944 13.6464C2.09944 13.3203 2.09944 13.1573 2.04617 13.0287C1.97514 12.8572 1.83891 12.721 1.66743 12.6499C1.53883 12.5967 1.37579 12.5967 1.04972 12.5967C0.723644 12.5967 0.560608 12.5967 0.432002 12.6499C0.260527 12.721 0.124291 12.8572 0.0532644 13.0287C-5.96046e-06 13.1573 -5.96046e-06 13.3203 -5.96046e-06 13.6464C-5.96046e-06 13.9725 -5.96046e-06 14.1355 0.0532644 14.2641C0.124291 14.4356 0.260527 14.5718 0.432002 14.6429C0.560608 14.6961 0.723644 14.6961 1.04972 14.6961C1.37579 14.6961 1.53883 14.6961 1.66743 14.6429C1.83891 14.5718 1.97514 14.4356 2.04617 14.2641C2.09944 14.1355 2.09944 13.9725 2.09944 13.6464Z" fill="#32CCCC"/>
<path d="M39.8887 19.9452C39.8887 19.6192 39.8887 19.4561 39.8354 19.3275C39.7644 19.156 39.6281 19.0198 39.4567 18.9488C39.3281 18.8955 39.165 18.8955 38.8389 18.8955C38.5129 18.8955 38.3498 18.8955 38.2212 18.9488C38.0498 19.0198 37.9135 19.156 37.8425 19.3275C37.7892 19.4561 37.7892 19.6192 37.7892 19.9452C37.7892 20.2713 37.7892 20.4343 37.8425 20.5629C37.9135 20.7344 38.0498 20.8707 38.2212 20.9417C38.3498 20.995 38.5129 20.995 38.8389 20.995C39.165 20.995 39.3281 20.995 39.4567 20.9417C39.6281 20.8707 39.7644 20.7344 39.8354 20.5629C39.8887 20.4343 39.8887 20.2713 39.8887 19.9452Z" fill="#32CCCC"/>
<path d="M33.5898 19.9452C33.5898 19.6192 33.5898 19.4561 33.5366 19.3275C33.4655 19.156 33.3293 19.0198 33.1578 18.9488C33.0292 18.8955 32.8662 18.8955 32.5401 18.8955C32.214 18.8955 32.051 18.8955 31.9224 18.9488C31.7509 19.0198 31.6147 19.156 31.5437 19.3275C31.4904 19.4561 31.4904 19.6192 31.4904 19.9452C31.4904 20.2713 31.4904 20.4343 31.5437 20.5629C31.6147 20.7344 31.7509 20.8707 31.9224 20.9417C32.051 20.995 32.214 20.995 32.5401 20.995C32.8662 20.995 33.0292 20.995 33.1578 20.9417C33.3293 20.8707 33.4655 20.7344 33.5366 20.5629C33.5898 20.4343 33.5898 20.2713 33.5898 19.9452Z" fill="#32CCCC"/>
<path d="M27.2928 19.9452C27.2928 19.6192 27.2928 19.4561 27.2395 19.3275C27.1685 19.156 27.0323 19.0198 26.8608 18.9488C26.7322 18.8955 26.5692 18.8955 26.2431 18.8955C25.917 18.8955 25.754 18.8955 25.6254 18.9488C25.4539 19.0198 25.3177 19.156 25.2466 19.3275C25.1934 19.4561 25.1934 19.6192 25.1934 19.9452C25.1934 20.2713 25.1934 20.4343 25.2466 20.5629C25.3177 20.7344 25.4539 20.8707 25.6254 20.9417C25.754 20.995 25.917 20.995 26.2431 20.995C26.5692 20.995 26.7322 20.995 26.8608 20.9417C27.0323 20.8707 27.1685 20.7344 27.2395 20.5629C27.2928 20.4343 27.2928 20.2713 27.2928 19.9452Z" fill="#32CCCC"/>
<path d="M20.9941 19.9452C20.9941 19.6192 20.9941 19.4561 20.9409 19.3275C20.8698 19.156 20.7336 19.0198 20.5621 18.9488C20.4335 18.8955 20.2705 18.8955 19.9444 18.8955C19.6183 18.8955 19.4553 18.8955 19.3267 18.9488C19.1552 19.0198 19.019 19.156 18.948 19.3275C18.8947 19.4561 18.8947 19.6192 18.8947 19.9452C18.8947 20.2713 18.8947 20.4343 18.948 20.5629C19.019 20.7344 19.1552 20.8707 19.3267 20.9417C19.4553 20.995 19.6183 20.995 19.9444 20.995C20.2705 20.995 20.4335 20.995 20.5621 20.9417C20.7336 20.8707 20.8698 20.7344 20.9409 20.5629C20.9941 20.4343 20.9941 20.2713 20.9941 19.9452Z" fill="#32CCCC"/>
<path d="M14.6953 19.9452C14.6953 19.6192 14.6953 19.4561 14.642 19.3275C14.571 19.156 14.4348 19.0198 14.2633 18.9488C14.1347 18.8955 13.9717 18.8955 13.6456 18.8955C13.3195 18.8955 13.1565 18.8955 13.0279 18.9488C12.8564 19.0198 12.7202 19.156 12.6491 19.3275C12.5959 19.4561 12.5959 19.6192 12.5959 19.9452C12.5959 20.2713 12.5959 20.4343 12.6491 20.5629C12.7202 20.7344 12.8564 20.8707 13.0279 20.9417C13.1565 20.995 13.3195 20.995 13.6456 20.995C13.9717 20.995 14.1347 20.995 14.2633 20.9417C14.4348 20.8707 14.571 20.7344 14.642 20.5629C14.6953 20.4343 14.6953 20.2713 14.6953 19.9452Z" fill="#32CCCC"/>
<path d="M8.39844 19.9452C8.39844 19.6192 8.39844 19.4561 8.34517 19.3275C8.27414 19.156 8.1379 19.0198 7.96643 18.9488C7.83782 18.8955 7.67479 18.8955 7.34871 18.8955C7.02264 18.8955 6.8596 18.8955 6.731 18.9488C6.55952 19.0198 6.42329 19.156 6.35226 19.3275C6.29899 19.4561 6.29899 19.6192 6.29899 19.9452C6.29899 20.2713 6.29899 20.4343 6.35226 20.5629C6.42329 20.7344 6.55952 20.8707 6.731 20.9417C6.8596 20.995 7.02264 20.995 7.34871 20.995C7.67479 20.995 7.83782 20.995 7.96643 20.9417C8.1379 20.8707 8.27414 20.7344 8.34517 20.5629C8.39844 20.4343 8.39844 20.2713 8.39844 19.9452Z" fill="#32CCCC"/>
<path d="M2.09944 19.9452C2.09944 19.6192 2.09944 19.4561 2.04617 19.3275C1.97514 19.156 1.83891 19.0198 1.66743 18.9488C1.53883 18.8955 1.37579 18.8955 1.04972 18.8955C0.723644 18.8955 0.560608 18.8955 0.432002 18.9488C0.260527 19.0198 0.124291 19.156 0.0532644 19.3275C-5.96046e-06 19.4561 -5.96046e-06 19.6192 -5.96046e-06 19.9452C-5.96046e-06 20.2713 -5.96046e-06 20.4343 0.0532644 20.5629C0.124291 20.7344 0.260527 20.8707 0.432002 20.9417C0.560608 20.995 0.723644 20.995 1.04972 20.995C1.37579 20.995 1.53883 20.995 1.66743 20.9417C1.83891 20.8707 1.97514 20.7344 2.04617 20.5629C2.09944 20.4343 2.09944 20.2713 2.09944 19.9452Z" fill="#32CCCC"/>
<path d="M33.5898 26.2431C33.5898 25.917 33.5898 25.754 33.5366 25.6254C33.4655 25.4539 33.3293 25.3177 33.1578 25.2466C33.0292 25.1934 32.8662 25.1934 32.5401 25.1934C32.214 25.1934 32.051 25.1934 31.9224 25.2466C31.7509 25.3177 31.6147 25.4539 31.5437 25.6254C31.4904 25.754 31.4904 25.917 31.4904 26.2431C31.4904 26.5692 31.4904 26.7322 31.5437 26.8608C31.6147 27.0323 31.7509 27.1685 31.9224 27.2395C32.051 27.2928 32.214 27.2928 32.5401 27.2928C32.8662 27.2928 33.0292 27.2928 33.1578 27.2395C33.3293 27.1685 33.4655 27.0323 33.5366 26.8608C33.5898 26.7322 33.5898 26.5692 33.5898 26.2431Z" fill="#32CCCC"/>
<path d="M27.2928 26.2431C27.2928 25.917 27.2928 25.754 27.2395 25.6254C27.1685 25.4539 27.0323 25.3177 26.8608 25.2466C26.7322 25.1934 26.5692 25.1934 26.2431 25.1934C25.917 25.1934 25.754 25.1934 25.6254 25.2466C25.4539 25.3177 25.3177 25.4539 25.2466 25.6254C25.1934 25.754 25.1934 25.917 25.1934 26.2431C25.1934 26.5692 25.1934 26.7322 25.2466 26.8608C25.3177 27.0323 25.4539 27.1685 25.6254 27.2395C25.754 27.2928 25.917 27.2928 26.2431 27.2928C26.5692 27.2928 26.7322 27.2928 26.8608 27.2395C27.0323 27.1685 27.1685 27.0323 27.2395 26.8608C27.2928 26.7322 27.2928 26.5692 27.2928 26.2431Z" fill="#32CCCC"/>
<path d="M20.9941 26.2431C20.9941 25.917 20.9941 25.754 20.9409 25.6254C20.8698 25.4539 20.7336 25.3177 20.5621 25.2466C20.4335 25.1934 20.2705 25.1934 19.9444 25.1934C19.6183 25.1934 19.4553 25.1934 19.3267 25.2466C19.1552 25.3177 19.019 25.4539 18.948 25.6254C18.8947 25.754 18.8947 25.917 18.8947 26.2431C18.8947 26.5692 18.8947 26.7322 18.948 26.8608C19.019 27.0323 19.1552 27.1685 19.3267 27.2395C19.4553 27.2928 19.6183 27.2928 19.9444 27.2928C20.2705 27.2928 20.4335 27.2928 20.5621 27.2395C20.7336 27.1685 20.8698 27.0323 20.9409 26.8608C20.9941 26.7322 20.9941 26.5692 20.9941 26.2431Z" fill="#32CCCC"/>
<path d="M14.6953 26.2431C14.6953 25.917 14.6953 25.754 14.642 25.6254C14.571 25.4539 14.4348 25.3177 14.2633 25.2466C14.1347 25.1934 13.9717 25.1934 13.6456 25.1934C13.3195 25.1934 13.1565 25.1934 13.0279 25.2466C12.8564 25.3177 12.7202 25.4539 12.6491 25.6254C12.5959 25.754 12.5959 25.917 12.5959 26.2431C12.5959 26.5692 12.5959 26.7322 12.6491 26.8608C12.7202 27.0323 12.8564 27.1685 13.0279 27.2395C13.1565 27.2928 13.3195 27.2928 13.6456 27.2928C13.9717 27.2928 14.1347 27.2928 14.2633 27.2395C14.4348 27.1685 14.571 27.0323 14.642 26.8608C14.6953 26.7322 14.6953 26.5692 14.6953 26.2431Z" fill="#32CCCC"/>
<path d="M8.39844 26.2431C8.39844 25.917 8.39844 25.754 8.34517 25.6254C8.27414 25.4539 8.1379 25.3177 7.96643 25.2466C7.83782 25.1934 7.67479 25.1934 7.34871 25.1934C7.02264 25.1934 6.8596 25.1934 6.731 25.2466C6.55952 25.3177 6.42329 25.4539 6.35226 25.6254C6.29899 25.754 6.29899 25.917 6.29899 26.2431C6.29899 26.5692 6.29899 26.7322 6.35226 26.8608C6.42329 27.0323 6.55952 27.1685 6.731 27.2395C6.8596 27.2928 7.02264 27.2928 7.34871 27.2928C7.67479 27.2928 7.83782 27.2928 7.96643 27.2395C8.1379 27.1685 8.27414 27.0323 8.34517 26.8608C8.39844 26.7322 8.39844 26.5692 8.39844 26.2431Z" fill="#32CCCC"/>
</svg>
