<svg width="129" height="28" viewBox="0 0 129 28" fill="none" xmlns="http://www.w3.org/2000/svg">
<path d="M128.066 1.04972C128.066 0.72365 128.066 0.560614 128.013 0.432008C127.942 0.260533 127.806 0.124297 127.634 0.0532703C127.506 0 127.343 0 127.016 0C126.69 0 126.527 0 126.399 0.0532703C126.227 0.124297 126.091 0.260533 126.02 0.432008C125.967 0.560614 125.967 0.72365 125.967 1.04972C125.967 1.3758 125.967 1.53883 126.02 1.66744C126.091 1.83891 126.227 1.97515 126.399 2.04618C126.527 2.09945 126.69 2.09945 127.016 2.09945C127.343 2.09945 127.506 2.09945 127.634 2.04618C127.806 1.97515 127.942 1.83891 128.013 1.66744C128.066 1.53883 128.066 1.3758 128.066 1.04972Z" fill="#32CCCC"/>
<path d="M121.768 1.04972C121.768 0.72365 121.768 0.560614 121.714 0.432008C121.643 0.260533 121.507 0.124297 121.336 0.0532703C121.207 0 121.044 0 120.718 0C120.392 0 120.229 0 120.1 0.0532703C119.929 0.124297 119.792 0.260533 119.721 0.432008C119.668 0.560614 119.668 0.72365 119.668 1.04972C119.668 1.3758 119.668 1.53883 119.721 1.66744C119.792 1.83891 119.929 1.97515 120.1 2.04618C120.229 2.09945 120.392 2.09945 120.718 2.09945C121.044 2.09945 121.207 2.09945 121.336 2.04618C121.507 1.97515 121.643 1.83891 121.714 1.66744C121.768 1.53883 121.768 1.3758 121.768 1.04972Z" fill="#32CCCC"/>
<path d="M115.469 1.04972C115.469 0.72365 115.469 0.560614 115.415 0.432008C115.344 0.260533 115.208 0.124297 115.037 0.0532703C114.908 0 114.745 0 114.419 0C114.093 0 113.93 0 113.801 0.0532703C113.63 0.124297 113.494 0.260533 113.423 0.432008C113.369 0.560614 113.369 0.72365 113.369 1.04972C113.369 1.3758 113.369 1.53883 113.423 1.66744C113.494 1.83891 113.63 1.97515 113.801 2.04618C113.93 2.09945 114.093 2.09945 114.419 2.09945C114.745 2.09945 114.908 2.09945 115.037 2.04618C115.208 1.97515 115.344 1.83891 115.415 1.66744C115.469 1.53883 115.469 1.3758 115.469 1.04972Z" fill="#32CCCC"/>
<path d="M109.172 1.04972C109.172 0.72365 109.172 0.560614 109.119 0.432008C109.048 0.260533 108.911 0.124297 108.74 0.0532703C108.611 0 108.448 0 108.122 0C107.796 0 107.633 0 107.504 0.0532703C107.333 0.124297 107.197 0.260533 107.126 0.432008C107.072 0.560614 107.072 0.72365 107.072 1.04972C107.072 1.3758 107.072 1.53883 107.126 1.66744C107.197 1.83891 107.333 1.97515 107.504 2.04618C107.633 2.09945 107.796 2.09945 108.122 2.09945C108.448 2.09945 108.611 2.09945 108.74 2.04618C108.911 1.97515 109.048 1.83891 109.119 1.66744C109.172 1.53883 109.172 1.3758 109.172 1.04972Z" fill="#32CCCC"/>
<path d="M96.5742 1.04972C96.5742 0.72365 96.5742 0.560614 96.5209 0.432008C96.4499 0.260533 96.3137 0.124297 96.1422 0.0532703C96.0136 0 95.8506 0 95.5245 0C95.1984 0 95.0354 0 94.9068 0.0532703C94.7353 0.124297 94.5991 0.260533 94.528 0.432008C94.4748 0.560614 94.4748 0.72365 94.4748 1.04972C94.4748 1.3758 94.4748 1.53883 94.528 1.66744C94.5991 1.83891 94.7353 1.97515 94.9068 2.04618C95.0354 2.09945 95.1984 2.09945 95.5245 2.09945C95.8506 2.09945 96.0136 2.09945 96.1422 2.04618C96.3137 1.97515 96.4499 1.83891 96.5209 1.66744C96.5742 1.53883 96.5742 1.3758 96.5742 1.04972Z" fill="#32CCCC"/>
<path d="M90.2754 1.04972C90.2754 0.72365 90.2754 0.560614 90.2221 0.432008C90.1511 0.260533 90.0149 0.124297 89.8434 0.0532703C89.7148 0 89.5517 0 89.2257 0C88.8996 0 88.7366 0 88.608 0.0532703C88.4365 0.124297 88.3002 0.260533 88.2292 0.432008C88.1759 0.560614 88.1759 0.72365 88.1759 1.04972C88.1759 1.3758 88.1759 1.53883 88.2292 1.66744C88.3002 1.83891 88.4365 1.97515 88.608 2.04618C88.7366 2.09945 88.8996 2.09945 89.2257 2.09945C89.5517 2.09945 89.7148 2.09945 89.8434 2.04618C90.0149 1.97515 90.1511 1.83891 90.2221 1.66744C90.2754 1.53883 90.2754 1.3758 90.2754 1.04972Z" fill="#32CCCC"/>
<path d="M83.9766 1.04972C83.9766 0.72365 83.9766 0.560614 83.9233 0.432008C83.8523 0.260533 83.716 0.124297 83.5446 0.0532703C83.4159 0 83.2529 0 82.9268 0C82.6008 0 82.4377 0 82.3091 0.0532703C82.1376 0.124297 82.0014 0.260533 81.9304 0.432008C81.8771 0.560614 81.8771 0.72365 81.8771 1.04972C81.8771 1.3758 81.8771 1.53883 81.9304 1.66744C82.0014 1.83891 82.1376 1.97515 82.3091 2.04618C82.4377 2.09945 82.6008 2.09945 82.9268 2.09945C83.2529 2.09945 83.4159 2.09945 83.5446 2.04618C83.716 1.97515 83.8523 1.83891 83.9233 1.66744C83.9766 1.53883 83.9766 1.3758 83.9766 1.04972Z" fill="#32CCCC"/>
<path d="M77.6795 1.04972C77.6795 0.72365 77.6795 0.560614 77.6263 0.432008C77.5552 0.260533 77.419 0.124297 77.2475 0.0532703C77.1189 0 76.9559 0 76.6298 0C76.3037 0 76.1407 0 76.0121 0.0532703C75.8406 0.124297 75.7044 0.260533 75.6334 0.432008C75.5801 0.560614 75.5801 0.72365 75.5801 1.04972C75.5801 1.3758 75.5801 1.53883 75.6334 1.66744C75.7044 1.83891 75.8406 1.97515 76.0121 2.04618C76.1407 2.09945 76.3037 2.09945 76.6298 2.09945C76.9559 2.09945 77.1189 2.09945 77.2475 2.04618C77.419 1.97515 77.5552 1.83891 77.6263 1.66744C77.6795 1.53883 77.6795 1.3758 77.6795 1.04972Z" fill="#32CCCC"/>
<path d="M52.4862 1.04972C52.4862 0.72365 52.4862 0.560614 52.4329 0.432008C52.3619 0.260533 52.2256 0.124297 52.0542 0.0532703C51.9256 0 51.7625 0 51.4365 0C51.1104 0 50.9473 0 50.8187 0.0532703C50.6473 0.124297 50.511 0.260533 50.44 0.432008C50.3867 0.560614 50.3867 0.72365 50.3867 1.04972C50.3867 1.3758 50.3867 1.53883 50.44 1.66744C50.511 1.83891 50.6473 1.97515 50.8187 2.04618C50.9473 2.09945 51.1104 2.09945 51.4365 2.09945C51.7625 2.09945 51.9256 2.09945 52.0542 2.04618C52.2256 1.97515 52.3619 1.83891 52.4329 1.66744C52.4862 1.53883 52.4862 1.3758 52.4862 1.04972Z" fill="#32CCCC"/>
<path d="M46.1875 1.04972C46.1875 0.72365 46.1875 0.560614 46.1342 0.432008C46.0632 0.260533 45.927 0.124297 45.7555 0.0532703C45.6269 0 45.4638 0 45.1378 0C44.8117 0 44.6487 0 44.5201 0.0532703C44.3486 0.124297 44.2123 0.260533 44.1413 0.432008C44.0881 0.560614 44.0881 0.72365 44.0881 1.04972C44.0881 1.3758 44.0881 1.53883 44.1413 1.66744C44.2123 1.83891 44.3486 1.97515 44.5201 2.04618C44.6487 2.09945 44.8117 2.09945 45.1378 2.09945C45.4638 2.09945 45.6269 2.09945 45.7555 2.04618C45.927 1.97515 46.0632 1.83891 46.1342 1.66744C46.1875 1.53883 46.1875 1.3758 46.1875 1.04972Z" fill="#32CCCC"/>
<path d="M20.9941 1.04972C20.9941 0.72365 20.9941 0.560614 20.9409 0.432008C20.8698 0.260533 20.7336 0.124297 20.5621 0.0532703C20.4335 0 20.2705 0 19.9444 0C19.6183 0 19.4553 0 19.3267 0.0532703C19.1552 0.124297 19.019 0.260533 18.948 0.432008C18.8947 0.560614 18.8947 0.72365 18.8947 1.04972C18.8947 1.3758 18.8947 1.53883 18.948 1.66744C19.019 1.83891 19.1552 1.97515 19.3267 2.04618C19.4553 2.09945 19.6183 2.09945 19.9444 2.09945C20.2705 2.09945 20.4335 2.09945 20.5621 2.04618C20.7336 1.97515 20.8698 1.83891 20.9409 1.66744C20.9941 1.53883 20.9941 1.3758 20.9941 1.04972Z" fill="#32CCCC"/>
<path d="M14.6953 1.04972C14.6953 0.72365 14.6953 0.560614 14.642 0.432008C14.571 0.260533 14.4348 0.124297 14.2633 0.0532703C14.1347 0 13.9717 0 13.6456 0C13.3195 0 13.1565 0 13.0279 0.0532703C12.8564 0.124297 12.7202 0.260533 12.6491 0.432008C12.5959 0.560614 12.5959 0.72365 12.5959 1.04972C12.5959 1.3758 12.5959 1.53883 12.6491 1.66744C12.7202 1.83891 12.8564 1.97515 13.0279 2.04618C13.1565 2.09945 13.3195 2.09945 13.6456 2.09945C13.9717 2.09945 14.1347 2.09945 14.2633 2.04618C14.4348 1.97515 14.571 1.83891 14.642 1.66744C14.6953 1.53883 14.6953 1.3758 14.6953 1.04972Z" fill="#32CCCC"/>
<path d="M128.066 7.34855C128.066 7.02248 128.066 6.85944 128.013 6.73084C127.942 6.55936 127.806 6.42313 127.634 6.3521C127.506 6.29883 127.343 6.29883 127.016 6.29883C126.69 6.29883 126.527 6.29883 126.399 6.3521C126.227 6.42313 126.091 6.55936 126.02 6.73084C125.967 6.85944 125.967 7.02248 125.967 7.34855C125.967 7.67463 125.967 7.83766 126.02 7.96627C126.091 8.13774 126.227 8.27398 126.399 8.34501C126.527 8.39828 126.69 8.39828 127.016 8.39828C127.343 8.39828 127.506 8.39828 127.634 8.34501C127.806 8.27398 127.942 8.13774 128.013 7.96627C128.066 7.83766 128.066 7.67463 128.066 7.34855Z" fill="#32CCCC"/>
<path d="M121.768 7.34855C121.768 7.02248 121.768 6.85944 121.714 6.73084C121.643 6.55936 121.507 6.42313 121.336 6.3521C121.207 6.29883 121.044 6.29883 120.718 6.29883C120.392 6.29883 120.229 6.29883 120.1 6.3521C119.929 6.42313 119.792 6.55936 119.721 6.73084C119.668 6.85944 119.668 7.02248 119.668 7.34855C119.668 7.67463 119.668 7.83766 119.721 7.96627C119.792 8.13774 119.929 8.27398 120.1 8.34501C120.229 8.39828 120.392 8.39828 120.718 8.39828C121.044 8.39828 121.207 8.39828 121.336 8.34501C121.507 8.27398 121.643 8.13774 121.714 7.96627C121.768 7.83766 121.768 7.67463 121.768 7.34855Z" fill="#32CCCC"/>
<path d="M115.469 7.34855C115.469 7.02248 115.469 6.85944 115.415 6.73084C115.344 6.55936 115.208 6.42313 115.037 6.3521C114.908 6.29883 114.745 6.29883 114.419 6.29883C114.093 6.29883 113.93 6.29883 113.801 6.3521C113.63 6.42313 113.494 6.55936 113.423 6.73084C113.369 6.85944 113.369 7.02248 113.369 7.34855C113.369 7.67463 113.369 7.83766 113.423 7.96627C113.494 8.13774 113.63 8.27398 113.801 8.34501C113.93 8.39828 114.093 8.39828 114.419 8.39828C114.745 8.39828 114.908 8.39828 115.037 8.34501C115.208 8.27398 115.344 8.13774 115.415 7.96627C115.469 7.83766 115.469 7.67463 115.469 7.34855Z" fill="#32CCCC"/>
<path d="M109.172 7.34855C109.172 7.02248 109.172 6.85944 109.119 6.73084C109.048 6.55936 108.911 6.42313 108.74 6.3521C108.611 6.29883 108.448 6.29883 108.122 6.29883C107.796 6.29883 107.633 6.29883 107.504 6.3521C107.333 6.42313 107.197 6.55936 107.126 6.73084C107.072 6.85944 107.072 7.02248 107.072 7.34855C107.072 7.67463 107.072 7.83766 107.126 7.96627C107.197 8.13774 107.333 8.27398 107.504 8.34501C107.633 8.39828 107.796 8.39828 108.122 8.39828C108.448 8.39828 108.611 8.39828 108.74 8.34501C108.911 8.27398 109.048 8.13774 109.119 7.96627C109.172 7.83766 109.172 7.67463 109.172 7.34855Z" fill="#32CCCC"/>
<path d="M96.5742 7.34855C96.5742 7.02248 96.5742 6.85944 96.5209 6.73084C96.4499 6.55936 96.3137 6.42313 96.1422 6.3521C96.0136 6.29883 95.8506 6.29883 95.5245 6.29883C95.1984 6.29883 95.0354 6.29883 94.9068 6.3521C94.7353 6.42313 94.5991 6.55936 94.528 6.73084C94.4748 6.85944 94.4748 7.02248 94.4748 7.34855C94.4748 7.67463 94.4748 7.83766 94.528 7.96627C94.5991 8.13774 94.7353 8.27398 94.9068 8.34501C95.0354 8.39828 95.1984 8.39828 95.5245 8.39828C95.8506 8.39828 96.0136 8.39828 96.1422 8.34501C96.3137 8.27398 96.4499 8.13774 96.5209 7.96627C96.5742 7.83766 96.5742 7.67463 96.5742 7.34855Z" fill="#32CCCC"/>
<path d="M90.2754 7.34855C90.2754 7.02248 90.2754 6.85944 90.2221 6.73084C90.1511 6.55936 90.0149 6.42313 89.8434 6.3521C89.7148 6.29883 89.5517 6.29883 89.2257 6.29883C88.8996 6.29883 88.7366 6.29883 88.608 6.3521C88.4365 6.42313 88.3002 6.55936 88.2292 6.73084C88.1759 6.85944 88.1759 7.02248 88.1759 7.34855C88.1759 7.67463 88.1759 7.83766 88.2292 7.96627C88.3002 8.13774 88.4365 8.27398 88.608 8.34501C88.7366 8.39828 88.8996 8.39828 89.2257 8.39828C89.5517 8.39828 89.7148 8.39828 89.8434 8.34501C90.0149 8.27398 90.1511 8.13774 90.2221 7.96627C90.2754 7.83766 90.2754 7.67463 90.2754 7.34855Z" fill="#32CCCC"/>
<path d="M83.9766 7.34855C83.9766 7.02248 83.9766 6.85944 83.9233 6.73084C83.8523 6.55936 83.716 6.42313 83.5446 6.3521C83.4159 6.29883 83.2529 6.29883 82.9268 6.29883C82.6008 6.29883 82.4377 6.29883 82.3091 6.3521C82.1376 6.42313 82.0014 6.55936 81.9304 6.73084C81.8771 6.85944 81.8771 7.02248 81.8771 7.34855C81.8771 7.67463 81.8771 7.83766 81.9304 7.96627C82.0014 8.13774 82.1376 8.27398 82.3091 8.34501C82.4377 8.39828 82.6008 8.39828 82.9268 8.39828C83.2529 8.39828 83.4159 8.39828 83.5446 8.34501C83.716 8.27398 83.8523 8.13774 83.9233 7.96627C83.9766 7.83766 83.9766 7.67463 83.9766 7.34855Z" fill="#32CCCC"/>
<path d="M77.6795 7.34855C77.6795 7.02248 77.6795 6.85944 77.6263 6.73084C77.5552 6.55936 77.419 6.42313 77.2475 6.3521C77.1189 6.29883 76.9559 6.29883 76.6298 6.29883C76.3037 6.29883 76.1407 6.29883 76.0121 6.3521C75.8406 6.42313 75.7044 6.55936 75.6334 6.73084C75.5801 6.85944 75.5801 7.02248 75.5801 7.34855C75.5801 7.67463 75.5801 7.83766 75.6334 7.96627C75.7044 8.13774 75.8406 8.27398 76.0121 8.34501C76.1407 8.39828 76.3037 8.39828 76.6298 8.39828C76.9559 8.39828 77.1189 8.39828 77.2475 8.34501C77.419 8.27398 77.5552 8.13774 77.6263 7.96627C77.6795 7.83766 77.6795 7.67463 77.6795 7.34855Z" fill="#32CCCC"/>
<path d="M46.1875 7.34855C46.1875 7.02248 46.1875 6.85944 46.1342 6.73084C46.0632 6.55936 45.927 6.42313 45.7555 6.3521C45.6269 6.29883 45.4638 6.29883 45.1378 6.29883C44.8117 6.29883 44.6487 6.29883 44.5201 6.3521C44.3486 6.42313 44.2123 6.55936 44.1413 6.73084C44.0881 6.85944 44.0881 7.02248 44.0881 7.34855C44.0881 7.67463 44.0881 7.83766 44.1413 7.96627C44.2123 8.13774 44.3486 8.27398 44.5201 8.34501C44.6487 8.39828 44.8117 8.39828 45.1378 8.39828C45.4638 8.39828 45.6269 8.39828 45.7555 8.34501C45.927 8.27398 46.0632 8.13774 46.1342 7.96627C46.1875 7.83766 46.1875 7.67463 46.1875 7.34855Z" fill="#32CCCC"/>
<path d="M39.8887 7.34855C39.8887 7.02248 39.8887 6.85944 39.8354 6.73084C39.7644 6.55936 39.6281 6.42313 39.4567 6.3521C39.3281 6.29883 39.165 6.29883 38.8389 6.29883C38.5129 6.29883 38.3498 6.29883 38.2212 6.3521C38.0498 6.42313 37.9135 6.55936 37.8425 6.73084C37.7892 6.85944 37.7892 7.02248 37.7892 7.34855C37.7892 7.67463 37.7892 7.83766 37.8425 7.96627C37.9135 8.13774 38.0498 8.27398 38.2212 8.34501C38.3498 8.39828 38.5129 8.39828 38.8389 8.39828C39.165 8.39828 39.3281 8.39828 39.4567 8.34501C39.6281 8.27398 39.7644 8.13774 39.8354 7.96627C39.8887 7.83766 39.8887 7.67463 39.8887 7.34855Z" fill="#32CCCC"/>
<path d="M14.6953 7.34855C14.6953 7.02248 14.6953 6.85944 14.642 6.73084C14.571 6.55936 14.4348 6.42313 14.2633 6.3521C14.1347 6.29883 13.9717 6.29883 13.6456 6.29883C13.3195 6.29883 13.1565 6.29883 13.0279 6.3521C12.8564 6.42313 12.7202 6.55936 12.6491 6.73084C12.5959 6.85944 12.5959 7.02248 12.5959 7.34855C12.5959 7.67463 12.5959 7.83766 12.6491 7.96627C12.7202 8.13774 12.8564 8.27398 13.0279 8.34501C13.1565 8.39828 13.3195 8.39828 13.6456 8.39828C13.9717 8.39828 14.1347 8.39828 14.2633 8.34501C14.4348 8.27398 14.571 8.13774 14.642 7.96627C14.6953 7.83766 14.6953 7.67463 14.6953 7.34855Z" fill="#32CCCC"/>
<path d="M8.39844 7.34855C8.39844 7.02248 8.39844 6.85944 8.34517 6.73084C8.27414 6.55936 8.1379 6.42313 7.96643 6.3521C7.83782 6.29883 7.67479 6.29883 7.34871 6.29883C7.02264 6.29883 6.8596 6.29883 6.731 6.3521C6.55952 6.42313 6.42329 6.55936 6.35226 6.73084C6.29899 6.85944 6.29899 7.02248 6.29899 7.34855C6.29899 7.67463 6.29899 7.83766 6.35226 7.96627C6.42329 8.13774 6.55952 8.27398 6.731 8.34501C6.8596 8.39828 7.02264 8.39828 7.34871 8.39828C7.67479 8.39828 7.83782 8.39828 7.96643 8.34501C8.1379 8.27398 8.27414 8.13774 8.34517 7.96627C8.39844 7.83766 8.39844 7.67463 8.39844 7.34855Z" fill="#32CCCC"/>
<path d="M128.066 13.6464C128.066 13.3203 128.066 13.1573 128.013 13.0287C127.942 12.8572 127.806 12.721 127.634 12.6499C127.506 12.5967 127.343 12.5967 127.016 12.5967C126.69 12.5967 126.527 12.5967 126.399 12.6499C126.227 12.721 126.091 12.8572 126.02 13.0287C125.967 13.1573 125.967 13.3203 125.967 13.6464C125.967 13.9725 125.967 14.1355 126.02 14.2641C126.091 14.4356 126.227 14.5718 126.399 14.6429C126.527 14.6961 126.69 14.6961 127.016 14.6961C127.343 14.6961 127.506 14.6961 127.634 14.6429C127.806 14.5718 127.942 14.4356 128.013 14.2641C128.066 14.1355 128.066 13.9725 128.066 13.6464Z" fill="#32CCCC"/>
<path d="M121.768 13.6464C121.768 13.3203 121.768 13.1573 121.714 13.0287C121.643 12.8572 121.507 12.721 121.336 12.6499C121.207 12.5967 121.044 12.5967 120.718 12.5967C120.392 12.5967 120.229 12.5967 120.1 12.6499C119.929 12.721 119.792 12.8572 119.721 13.0287C119.668 13.1573 119.668 13.3203 119.668 13.6464C119.668 13.9725 119.668 14.1355 119.721 14.2641C119.792 14.4356 119.929 14.5718 120.1 14.6429C120.229 14.6961 120.392 14.6961 120.718 14.6961C121.044 14.6961 121.207 14.6961 121.336 14.6429C121.507 14.5718 121.643 14.4356 121.714 14.2641C121.768 14.1355 121.768 13.9725 121.768 13.6464Z" fill="#32CCCC"/>
<path d="M115.469 13.6464C115.469 13.3203 115.469 13.1573 115.415 13.0287C115.344 12.8572 115.208 12.721 115.037 12.6499C114.908 12.5967 114.745 12.5967 114.419 12.5967C114.093 12.5967 113.93 12.5967 113.801 12.6499C113.63 12.721 113.494 12.8572 113.423 13.0287C113.369 13.1573 113.369 13.3203 113.369 13.6464C113.369 13.9725 113.369 14.1355 113.423 14.2641C113.494 14.4356 113.63 14.5718 113.801 14.6429C113.93 14.6961 114.093 14.6961 114.419 14.6961C114.745 14.6961 114.908 14.6961 115.037 14.6429C115.208 14.5718 115.344 14.4356 115.415 14.2641C115.469 14.1355 115.469 13.9725 115.469 13.6464Z" fill="#32CCCC"/>
<path d="M109.172 13.6464C109.172 13.3203 109.172 13.1573 109.119 13.0287C109.048 12.8572 108.911 12.721 108.74 12.6499C108.611 12.5967 108.448 12.5967 108.122 12.5967C107.796 12.5967 107.633 12.5967 107.504 12.6499C107.333 12.721 107.197 12.8572 107.126 13.0287C107.072 13.1573 107.072 13.3203 107.072 13.6464C107.072 13.9725 107.072 14.1355 107.126 14.2641C107.197 14.4356 107.333 14.5718 107.504 14.6429C107.633 14.6961 107.796 14.6961 108.122 14.6961C108.448 14.6961 108.611 14.6961 108.74 14.6429C108.911 14.5718 109.048 14.4356 109.119 14.2641C109.172 14.1355 109.172 13.9725 109.172 13.6464Z" fill="#32CCCC"/>
<path d="M96.5742 13.6464C96.5742 13.3203 96.5742 13.1573 96.5209 13.0287C96.4499 12.8572 96.3137 12.721 96.1422 12.6499C96.0136 12.5967 95.8506 12.5967 95.5245 12.5967C95.1984 12.5967 95.0354 12.5967 94.9068 12.6499C94.7353 12.721 94.5991 12.8572 94.528 13.0287C94.4748 13.1573 94.4748 13.3203 94.4748 13.6464C94.4748 13.9725 94.4748 14.1355 94.528 14.2641C94.5991 14.4356 94.7353 14.5718 94.9068 14.6429C95.0354 14.6961 95.1984 14.6961 95.5245 14.6961C95.8506 14.6961 96.0136 14.6961 96.1422 14.6429C96.3137 14.5718 96.4499 14.4356 96.5209 14.2641C96.5742 14.1355 96.5742 13.9725 96.5742 13.6464Z" fill="#32CCCC"/>
<path d="M90.2754 13.6464C90.2754 13.3203 90.2754 13.1573 90.2221 13.0287C90.1511 12.8572 90.0149 12.721 89.8434 12.6499C89.7148 12.5967 89.5517 12.5967 89.2257 12.5967C88.8996 12.5967 88.7366 12.5967 88.608 12.6499C88.4365 12.721 88.3002 12.8572 88.2292 13.0287C88.1759 13.1573 88.1759 13.3203 88.1759 13.6464C88.1759 13.9725 88.1759 14.1355 88.2292 14.2641C88.3002 14.4356 88.4365 14.5718 88.608 14.6429C88.7366 14.6961 88.8996 14.6961 89.2257 14.6961C89.5517 14.6961 89.7148 14.6961 89.8434 14.6429C90.0149 14.5718 90.1511 14.4356 90.2221 14.2641C90.2754 14.1355 90.2754 13.9725 90.2754 13.6464Z" fill="#32CCCC"/>
<path d="M83.9766 13.6464C83.9766 13.3203 83.9766 13.1573 83.9233 13.0287C83.8523 12.8572 83.716 12.721 83.5446 12.6499C83.4159 12.5967 83.2529 12.5967 82.9268 12.5967C82.6008 12.5967 82.4377 12.5967 82.3091 12.6499C82.1376 12.721 82.0014 12.8572 81.9304 13.0287C81.8771 13.1573 81.8771 13.3203 81.8771 13.6464C81.8771 13.9725 81.8771 14.1355 81.9304 14.2641C82.0014 14.4356 82.1376 14.5718 82.3091 14.6429C82.4377 14.6961 82.6008 14.6961 82.9268 14.6961C83.2529 14.6961 83.4159 14.6961 83.5446 14.6429C83.716 14.5718 83.8523 14.4356 83.9233 14.2641C83.9766 14.1355 83.9766 13.9725 83.9766 13.6464Z" fill="#32CCCC"/>
<path d="M77.6795 13.6464C77.6795 13.3203 77.6795 13.1573 77.6263 13.0287C77.5552 12.8572 77.419 12.721 77.2475 12.6499C77.1189 12.5967 76.9559 12.5967 76.6298 12.5967C76.3037 12.5967 76.1407 12.5967 76.0121 12.6499C75.8406 12.721 75.7044 12.8572 75.6334 13.0287C75.5801 13.1573 75.5801 13.3203 75.5801 13.6464C75.5801 13.9725 75.5801 14.1355 75.6334 14.2641C75.7044 14.4356 75.8406 14.5718 76.0121 14.6429C76.1407 14.6961 76.3037 14.6961 76.6298 14.6961C76.9559 14.6961 77.1189 14.6961 77.2475 14.6429C77.419 14.5718 77.5552 14.4356 77.6263 14.2641C77.6795 14.1355 77.6795 13.9725 77.6795 13.6464Z" fill="#32CCCC"/>
<path d="M52.4862 13.6464C52.4862 13.3203 52.4862 13.1573 52.4329 13.0287C52.3619 12.8572 52.2256 12.721 52.0542 12.6499C51.9256 12.5967 51.7625 12.5967 51.4365 12.5967C51.1104 12.5967 50.9473 12.5967 50.8187 12.6499C50.6473 12.721 50.511 12.8572 50.44 13.0287C50.3867 13.1573 50.3867 13.3203 50.3867 13.6464C50.3867 13.9725 50.3867 14.1355 50.44 14.2641C50.511 14.4356 50.6473 14.5718 50.8187 14.6429C50.9473 14.6961 51.1104 14.6961 51.4365 14.6961C51.7625 14.6961 51.9256 14.6961 52.0542 14.6429C52.2256 14.5718 52.3619 14.4356 52.4329 14.2641C52.4862 14.1355 52.4862 13.9725 52.4862 13.6464Z" fill="#32CCCC"/>
<path d="M46.1875 13.6464C46.1875 13.3203 46.1875 13.1573 46.1342 13.0287C46.0632 12.8572 45.927 12.721 45.7555 12.6499C45.6269 12.5967 45.4638 12.5967 45.1378 12.5967C44.8117 12.5967 44.6487 12.5967 44.5201 12.6499C44.3486 12.721 44.2123 12.8572 44.1413 13.0287C44.0881 13.1573 44.0881 13.3203 44.0881 13.6464C44.0881 13.9725 44.0881 14.1355 44.1413 14.2641C44.2123 14.4356 44.3486 14.5718 44.5201 14.6429C44.6487 14.6961 44.8117 14.6961 45.1378 14.6961C45.4638 14.6961 45.6269 14.6961 45.7555 14.6429C45.927 14.5718 46.0632 14.4356 46.1342 14.2641C46.1875 14.1355 46.1875 13.9725 46.1875 13.6464Z" fill="#32CCCC"/>
<path d="M39.8887 13.6464C39.8887 13.3203 39.8887 13.1573 39.8354 13.0287C39.7644 12.8572 39.6281 12.721 39.4567 12.6499C39.3281 12.5967 39.165 12.5967 38.8389 12.5967C38.5129 12.5967 38.3498 12.5967 38.2212 12.6499C38.0498 12.721 37.9135 12.8572 37.8425 13.0287C37.7892 13.1573 37.7892 13.3203 37.7892 13.6464C37.7892 13.9725 37.7892 14.1355 37.8425 14.2641C37.9135 14.4356 38.0498 14.5718 38.2212 14.6429C38.3498 14.6961 38.5129 14.6961 38.8389 14.6961C39.165 14.6961 39.3281 14.6961 39.4567 14.6429C39.6281 14.5718 39.7644 14.4356 39.8354 14.2641C39.8887 14.1355 39.8887 13.9725 39.8887 13.6464Z" fill="#32CCCC"/>
<path d="M33.5898 13.6464C33.5898 13.3203 33.5898 13.1573 33.5366 13.0287C33.4655 12.8572 33.3293 12.721 33.1578 12.6499C33.0292 12.5967 32.8662 12.5967 32.5401 12.5967C32.214 12.5967 32.051 12.5967 31.9224 12.6499C31.7509 12.721 31.6147 12.8572 31.5437 13.0287C31.4904 13.1573 31.4904 13.3203 31.4904 13.6464C31.4904 13.9725 31.4904 14.1355 31.5437 14.2641C31.6147 14.4356 31.7509 14.5718 31.9224 14.6429C32.051 14.6961 32.214 14.6961 32.5401 14.6961C32.8662 14.6961 33.0292 14.6961 33.1578 14.6429C33.3293 14.5718 33.4655 14.4356 33.5366 14.2641C33.5898 14.1355 33.5898 13.9725 33.5898 13.6464Z" fill="#32CCCC"/>
<path d="M20.9941 13.6464C20.9941 13.3203 20.9941 13.1573 20.9409 13.0287C20.8698 12.8572 20.7336 12.721 20.5621 12.6499C20.4335 12.5967 20.2705 12.5967 19.9444 12.5967C19.6183 12.5967 19.4553 12.5967 19.3267 12.6499C19.1552 12.721 19.019 12.8572 18.948 13.0287C18.8947 13.1573 18.8947 13.3203 18.8947 13.6464C18.8947 13.9725 18.8947 14.1355 18.948 14.2641C19.019 14.4356 19.1552 14.5718 19.3267 14.6429C19.4553 14.6961 19.6183 14.6961 19.9444 14.6961C20.2705 14.6961 20.4335 14.6961 20.5621 14.6429C20.7336 14.5718 20.8698 14.4356 20.9409 14.2641C20.9941 14.1355 20.9941 13.9725 20.9941 13.6464Z" fill="#32CCCC"/>
<path d="M14.6953 13.6464C14.6953 13.3203 14.6953 13.1573 14.642 13.0287C14.571 12.8572 14.4348 12.721 14.2633 12.6499C14.1347 12.5967 13.9717 12.5967 13.6456 12.5967C13.3195 12.5967 13.1565 12.5967 13.0279 12.6499C12.8564 12.721 12.7202 12.8572 12.6491 13.0287C12.5959 13.1573 12.5959 13.3203 12.5959 13.6464C12.5959 13.9725 12.5959 14.1355 12.6491 14.2641C12.7202 14.4356 12.8564 14.5718 13.0279 14.6429C13.1565 14.6961 13.3195 14.6961 13.6456 14.6961C13.9717 14.6961 14.1347 14.6961 14.2633 14.6429C14.4348 14.5718 14.571 14.4356 14.642 14.2641C14.6953 14.1355 14.6953 13.9725 14.6953 13.6464Z" fill="#32CCCC"/>
<path d="M8.39844 13.6464C8.39844 13.3203 8.39844 13.1573 8.34517 13.0287C8.27414 12.8572 8.1379 12.721 7.96643 12.6499C7.83782 12.5967 7.67479 12.5967 7.34871 12.5967C7.02264 12.5967 6.8596 12.5967 6.731 12.6499C6.55952 12.721 6.42329 12.8572 6.35226 13.0287C6.29899 13.1573 6.29899 13.3203 6.29899 13.6464C6.29899 13.9725 6.29899 14.1355 6.35226 14.2641C6.42329 14.4356 6.55952 14.5718 6.731 14.6429C6.8596 14.6961 7.02264 14.6961 7.34871 14.6961C7.67479 14.6961 7.83782 14.6961 7.96643 14.6429C8.1379 14.5718 8.27414 14.4356 8.34517 14.2641C8.39844 14.1355 8.39844 13.9725 8.39844 13.6464Z" fill="#32CCCC"/>
<path d="M2.09944 13.6464C2.09944 13.3203 2.09944 13.1573 2.04617 13.0287C1.97514 12.8572 1.83891 12.721 1.66743 12.6499C1.53883 12.5967 1.37579 12.5967 1.04972 12.5967C0.723644 12.5967 0.560608 12.5967 0.432002 12.6499C0.260527 12.721 0.124291 12.8572 0.0532644 13.0287C-5.96046e-06 13.1573 -5.96046e-06 13.3203 -5.96046e-06 13.6464C-5.96046e-06 13.9725 -5.96046e-06 14.1355 0.0532644 14.2641C0.124291 14.4356 0.260527 14.5718 0.432002 14.6429C0.560608 14.6961 0.723644 14.6961 1.04972 14.6961C1.37579 14.6961 1.53883 14.6961 1.66743 14.6429C1.83891 14.5718 1.97514 14.4356 2.04617 14.2641C2.09944 14.1355 2.09944 13.9725 2.09944 13.6464Z" fill="#32CCCC"/>
<path d="M121.768 19.9452C121.768 19.6192 121.768 19.4561 121.714 19.3275C121.643 19.156 121.507 19.0198 121.336 18.9488C121.207 18.8955 121.044 18.8955 120.718 18.8955C120.392 18.8955 120.229 18.8955 120.1 18.9488C119.929 19.0198 119.792 19.156 119.721 19.3275C119.668 19.4561 119.668 19.6192 119.668 19.9452C119.668 20.2713 119.668 20.4343 119.721 20.5629C119.792 20.7344 119.929 20.8707 120.1 20.9417C120.229 20.995 120.392 20.995 120.718 20.995C121.044 20.995 121.207 20.995 121.336 20.9417C121.507 20.8707 121.643 20.7344 121.714 20.5629C121.768 20.4343 121.768 20.2713 121.768 19.9452Z" fill="#32CCCC"/>
<path d="M115.469 19.9452C115.469 19.6192 115.469 19.4561 115.415 19.3275C115.344 19.156 115.208 19.0198 115.037 18.9488C114.908 18.8955 114.745 18.8955 114.419 18.8955C114.093 18.8955 113.93 18.8955 113.801 18.9488C113.63 19.0198 113.494 19.156 113.423 19.3275C113.369 19.4561 113.369 19.6192 113.369 19.9452C113.369 20.2713 113.369 20.4343 113.423 20.5629C113.494 20.7344 113.63 20.8707 113.801 20.9417C113.93 20.995 114.093 20.995 114.419 20.995C114.745 20.995 114.908 20.995 115.037 20.9417C115.208 20.8707 115.344 20.7344 115.415 20.5629C115.469 20.4343 115.469 20.2713 115.469 19.9452Z" fill="#32CCCC"/>
<path d="M90.2754 19.9452C90.2754 19.6192 90.2754 19.4561 90.2221 19.3275C90.1511 19.156 90.0149 19.0198 89.8434 18.9488C89.7148 18.8955 89.5517 18.8955 89.2257 18.8955C88.8996 18.8955 88.7366 18.8955 88.608 18.9488C88.4365 19.0198 88.3002 19.156 88.2292 19.3275C88.1759 19.4561 88.1759 19.6192 88.1759 19.9452C88.1759 20.2713 88.1759 20.4343 88.2292 20.5629C88.3002 20.7344 88.4365 20.8707 88.608 20.9417C88.7366 20.995 88.8996 20.995 89.2257 20.995C89.5517 20.995 89.7148 20.995 89.8434 20.9417C90.0149 20.8707 90.1511 20.7344 90.2221 20.5629C90.2754 20.4343 90.2754 20.2713 90.2754 19.9452Z" fill="#32CCCC"/>
<path d="M83.9766 19.9452C83.9766 19.6192 83.9766 19.4561 83.9233 19.3275C83.8523 19.156 83.716 19.0198 83.5446 18.9488C83.4159 18.8955 83.2529 18.8955 82.9268 18.8955C82.6008 18.8955 82.4377 18.8955 82.3091 18.9488C82.1376 19.0198 82.0014 19.156 81.9304 19.3275C81.8771 19.4561 81.8771 19.6192 81.8771 19.9452C81.8771 20.2713 81.8771 20.4343 81.9304 20.5629C82.0014 20.7344 82.1376 20.8707 82.3091 20.9417C82.4377 20.995 82.6008 20.995 82.9268 20.995C83.2529 20.995 83.4159 20.995 83.5446 20.9417C83.716 20.8707 83.8523 20.7344 83.9233 20.5629C83.9766 20.4343 83.9766 20.2713 83.9766 19.9452Z" fill="#32CCCC"/>
<path d="M52.4862 19.9452C52.4862 19.6192 52.4862 19.4561 52.4329 19.3275C52.3619 19.156 52.2256 19.0198 52.0542 18.9488C51.9256 18.8955 51.7625 18.8955 51.4365 18.8955C51.1104 18.8955 50.9473 18.8955 50.8187 18.9488C50.6473 19.0198 50.511 19.156 50.44 19.3275C50.3867 19.4561 50.3867 19.6192 50.3867 19.9452C50.3867 20.2713 50.3867 20.4343 50.44 20.5629C50.511 20.7344 50.6473 20.8707 50.8187 20.9417C50.9473 20.995 51.1104 20.995 51.4365 20.995C51.7625 20.995 51.9256 20.995 52.0542 20.9417C52.2256 20.8707 52.3619 20.7344 52.4329 20.5629C52.4862 20.4343 52.4862 20.2713 52.4862 19.9452Z" fill="#32CCCC"/>
<path d="M46.1875 19.9452C46.1875 19.6192 46.1875 19.4561 46.1342 19.3275C46.0632 19.156 45.927 19.0198 45.7555 18.9488C45.6269 18.8955 45.4638 18.8955 45.1378 18.8955C44.8117 18.8955 44.6487 18.8955 44.5201 18.9488C44.3486 19.0198 44.2123 19.156 44.1413 19.3275C44.0881 19.4561 44.0881 19.6192 44.0881 19.9452C44.0881 20.2713 44.0881 20.4343 44.1413 20.5629C44.2123 20.7344 44.3486 20.8707 44.5201 20.9417C44.6487 20.995 44.8117 20.995 45.1378 20.995C45.4638 20.995 45.6269 20.995 45.7555 20.9417C45.927 20.8707 46.0632 20.7344 46.1342 20.5629C46.1875 20.4343 46.1875 20.2713 46.1875 19.9452Z" fill="#32CCCC"/>
<path d="M39.8887 19.9452C39.8887 19.6192 39.8887 19.4561 39.8354 19.3275C39.7644 19.156 39.6281 19.0198 39.4567 18.9488C39.3281 18.8955 39.165 18.8955 38.8389 18.8955C38.5129 18.8955 38.3498 18.8955 38.2212 18.9488C38.0498 19.0198 37.9135 19.156 37.8425 19.3275C37.7892 19.4561 37.7892 19.6192 37.7892 19.9452C37.7892 20.2713 37.7892 20.4343 37.8425 20.5629C37.9135 20.7344 38.0498 20.8707 38.2212 20.9417C38.3498 20.995 38.5129 20.995 38.8389 20.995C39.165 20.995 39.3281 20.995 39.4567 20.9417C39.6281 20.8707 39.7644 20.7344 39.8354 20.5629C39.8887 20.4343 39.8887 20.2713 39.8887 19.9452Z" fill="#32CCCC"/>
<path d="M33.5898 19.9452C33.5898 19.6192 33.5898 19.4561 33.5366 19.3275C33.4655 19.156 33.3293 19.0198 33.1578 18.9488C33.0292 18.8955 32.8662 18.8955 32.5401 18.8955C32.214 18.8955 32.051 18.8955 31.9224 18.9488C31.7509 19.0198 31.6147 19.156 31.5437 19.3275C31.4904 19.4561 31.4904 19.6192 31.4904 19.9452C31.4904 20.2713 31.4904 20.4343 31.5437 20.5629C31.6147 20.7344 31.7509 20.8707 31.9224 20.9417C32.051 20.995 32.214 20.995 32.5401 20.995C32.8662 20.995 33.0292 20.995 33.1578 20.9417C33.3293 20.8707 33.4655 20.7344 33.5366 20.5629C33.5898 20.4343 33.5898 20.2713 33.5898 19.9452Z" fill="#32CCCC"/>
<path d="M20.9941 19.9452C20.9941 19.6192 20.9941 19.4561 20.9409 19.3275C20.8698 19.156 20.7336 19.0198 20.5621 18.9488C20.4335 18.8955 20.2705 18.8955 19.9444 18.8955C19.6183 18.8955 19.4553 18.8955 19.3267 18.9488C19.1552 19.0198 19.019 19.156 18.948 19.3275C18.8947 19.4561 18.8947 19.6192 18.8947 19.9452C18.8947 20.2713 18.8947 20.4343 18.948 20.5629C19.019 20.7344 19.1552 20.8707 19.3267 20.9417C19.4553 20.995 19.6183 20.995 19.9444 20.995C20.2705 20.995 20.4335 20.995 20.5621 20.9417C20.7336 20.8707 20.8698 20.7344 20.9409 20.5629C20.9941 20.4343 20.9941 20.2713 20.9941 19.9452Z" fill="#32CCCC"/>
<path d="M14.6953 19.9452C14.6953 19.6192 14.6953 19.4561 14.642 19.3275C14.571 19.156 14.4348 19.0198 14.2633 18.9488C14.1347 18.8955 13.9717 18.8955 13.6456 18.8955C13.3195 18.8955 13.1565 18.8955 13.0279 18.9488C12.8564 19.0198 12.7202 19.156 12.6491 19.3275C12.5959 19.4561 12.5959 19.6192 12.5959 19.9452C12.5959 20.2713 12.5959 20.4343 12.6491 20.5629C12.7202 20.7344 12.8564 20.8707 13.0279 20.9417C13.1565 20.995 13.3195 20.995 13.6456 20.995C13.9717 20.995 14.1347 20.995 14.2633 20.9417C14.4348 20.8707 14.571 20.7344 14.642 20.5629C14.6953 20.4343 14.6953 20.2713 14.6953 19.9452Z" fill="#32CCCC"/>
<path d="M8.39844 19.9452C8.39844 19.6192 8.39844 19.4561 8.34517 19.3275C8.27414 19.156 8.1379 19.0198 7.96643 18.9488C7.83782 18.8955 7.67479 18.8955 7.34871 18.8955C7.02264 18.8955 6.8596 18.8955 6.731 18.9488C6.55952 19.0198 6.42329 19.156 6.35226 19.3275C6.29899 19.4561 6.29899 19.6192 6.29899 19.9452C6.29899 20.2713 6.29899 20.4343 6.35226 20.5629C6.42329 20.7344 6.55952 20.8707 6.731 20.9417C6.8596 20.995 7.02264 20.995 7.34871 20.995C7.67479 20.995 7.83782 20.995 7.96643 20.9417C8.1379 20.8707 8.27414 20.7344 8.34517 20.5629C8.39844 20.4343 8.39844 20.2713 8.39844 19.9452Z" fill="#32CCCC"/>
<path d="M2.09944 19.9452C2.09944 19.6192 2.09944 19.4561 2.04617 19.3275C1.97514 19.156 1.83891 19.0198 1.66743 18.9488C1.53883 18.8955 1.37579 18.8955 1.04972 18.8955C0.723644 18.8955 0.560608 18.8955 0.432002 18.9488C0.260527 19.0198 0.124291 19.156 0.0532644 19.3275C-5.96046e-06 19.4561 -5.96046e-06 19.6192 -5.96046e-06 19.9452C-5.96046e-06 20.2713 -5.96046e-06 20.4343 0.0532644 20.5629C0.124291 20.7344 0.260527 20.8707 0.432002 20.9417C0.560608 20.995 0.723644 20.995 1.04972 20.995C1.37579 20.995 1.53883 20.995 1.66743 20.9417C1.83891 20.8707 1.97514 20.7344 2.04617 20.5629C2.09944 20.4343 2.09944 20.2713 2.09944 19.9452Z" fill="#32CCCC"/>
<path d="M115.469 26.2431C115.469 25.917 115.469 25.754 115.415 25.6254C115.344 25.4539 115.208 25.3177 115.037 25.2466C114.908 25.1934 114.745 25.1934 114.419 25.1934C114.093 25.1934 113.93 25.1934 113.801 25.2466C113.63 25.3177 113.494 25.4539 113.423 25.6254C113.369 25.754 113.369 25.917 113.369 26.2431C113.369 26.5692 113.369 26.7322 113.423 26.8608C113.494 27.0323 113.63 27.1685 113.801 27.2395C113.93 27.2928 114.093 27.2928 114.419 27.2928C114.745 27.2928 114.908 27.2928 115.037 27.2395C115.208 27.1685 115.344 27.0323 115.415 26.8608C115.469 26.7322 115.469 26.5692 115.469 26.2431Z" fill="#32CCCC"/>
<path d="M109.172 26.2431C109.172 25.917 109.172 25.754 109.119 25.6254C109.048 25.4539 108.911 25.3177 108.74 25.2466C108.611 25.1934 108.448 25.1934 108.122 25.1934C107.796 25.1934 107.633 25.1934 107.504 25.2466C107.333 25.3177 107.197 25.4539 107.126 25.6254C107.072 25.754 107.072 25.917 107.072 26.2431C107.072 26.5692 107.072 26.7322 107.126 26.8608C107.197 27.0323 107.333 27.1685 107.504 27.2395C107.633 27.2928 107.796 27.2928 108.122 27.2928C108.448 27.2928 108.611 27.2928 108.74 27.2395C108.911 27.1685 109.048 27.0323 109.119 26.8608C109.172 26.7322 109.172 26.5692 109.172 26.2431Z" fill="#32CCCC"/>
<path d="M83.9766 26.2431C83.9766 25.917 83.9766 25.754 83.9233 25.6254C83.8523 25.4539 83.716 25.3177 83.5446 25.2466C83.4159 25.1934 83.2529 25.1934 82.9268 25.1934C82.6008 25.1934 82.4377 25.1934 82.3091 25.2466C82.1376 25.3177 82.0014 25.4539 81.9304 25.6254C81.8771 25.754 81.8771 25.917 81.8771 26.2431C81.8771 26.5692 81.8771 26.7322 81.9304 26.8608C82.0014 27.0323 82.1376 27.1685 82.3091 27.2395C82.4377 27.2928 82.6008 27.2928 82.9268 27.2928C83.2529 27.2928 83.4159 27.2928 83.5446 27.2395C83.716 27.1685 83.8523 27.0323 83.9233 26.8608C83.9766 26.7322 83.9766 26.5692 83.9766 26.2431Z" fill="#32CCCC"/>
<path d="M77.6795 26.2431C77.6795 25.917 77.6795 25.754 77.6263 25.6254C77.5552 25.4539 77.419 25.3177 77.2475 25.2466C77.1189 25.1934 76.9559 25.1934 76.6298 25.1934C76.3037 25.1934 76.1407 25.1934 76.0121 25.2466C75.8406 25.3177 75.7044 25.4539 75.6334 25.6254C75.5801 25.754 75.5801 25.917 75.5801 26.2431C75.5801 26.5692 75.5801 26.7322 75.6334 26.8608C75.7044 27.0323 75.8406 27.1685 76.0121 27.2395C76.1407 27.2928 76.3037 27.2928 76.6298 27.2928C76.9559 27.2928 77.1189 27.2928 77.2475 27.2395C77.419 27.1685 77.5552 27.0323 77.6263 26.8608C77.6795 26.7322 77.6795 26.5692 77.6795 26.2431Z" fill="#32CCCC"/>
<path d="M52.4862 26.2431C52.4862 25.917 52.4862 25.754 52.4329 25.6254C52.3619 25.4539 52.2256 25.3177 52.0542 25.2466C51.9256 25.1934 51.7625 25.1934 51.4365 25.1934C51.1104 25.1934 50.9473 25.1934 50.8187 25.2466C50.6473 25.3177 50.511 25.4539 50.44 25.6254C50.3867 25.754 50.3867 25.917 50.3867 26.2431C50.3867 26.5692 50.3867 26.7322 50.44 26.8608C50.511 27.0323 50.6473 27.1685 50.8187 27.2395C50.9473 27.2928 51.1104 27.2928 51.4365 27.2928C51.7625 27.2928 51.9256 27.2928 52.0542 27.2395C52.2256 27.1685 52.3619 27.0323 52.4329 26.8608C52.4862 26.7322 52.4862 26.5692 52.4862 26.2431Z" fill="#32CCCC"/>
<path d="M46.1875 26.2431C46.1875 25.917 46.1875 25.754 46.1342 25.6254C46.0632 25.4539 45.927 25.3177 45.7555 25.2466C45.6269 25.1934 45.4638 25.1934 45.1378 25.1934C44.8117 25.1934 44.6487 25.1934 44.5201 25.2466C44.3486 25.3177 44.2123 25.4539 44.1413 25.6254C44.0881 25.754 44.0881 25.917 44.0881 26.2431C44.0881 26.5692 44.0881 26.7322 44.1413 26.8608C44.2123 27.0323 44.3486 27.1685 44.5201 27.2395C44.6487 27.2928 44.8117 27.2928 45.1378 27.2928C45.4638 27.2928 45.6269 27.2928 45.7555 27.2395C45.927 27.1685 46.0632 27.0323 46.1342 26.8608C46.1875 26.7322 46.1875 26.5692 46.1875 26.2431Z" fill="#32CCCC"/>
<path d="M39.8887 26.2431C39.8887 25.917 39.8887 25.754 39.8354 25.6254C39.7644 25.4539 39.6281 25.3177 39.4567 25.2466C39.3281 25.1934 39.165 25.1934 38.8389 25.1934C38.5129 25.1934 38.3498 25.1934 38.2212 25.2466C38.0498 25.3177 37.9135 25.4539 37.8425 25.6254C37.7892 25.754 37.7892 25.917 37.7892 26.2431C37.7892 26.5692 37.7892 26.7322 37.8425 26.8608C37.9135 27.0323 38.0498 27.1685 38.2212 27.2395C38.3498 27.2928 38.5129 27.2928 38.8389 27.2928C39.165 27.2928 39.3281 27.2928 39.4567 27.2395C39.6281 27.1685 39.7644 27.0323 39.8354 26.8608C39.8887 26.7322 39.8887 26.5692 39.8887 26.2431Z" fill="#32CCCC"/>
<path d="M33.5898 26.2431C33.5898 25.917 33.5898 25.754 33.5366 25.6254C33.4655 25.4539 33.3293 25.3177 33.1578 25.2466C33.0292 25.1934 32.8662 25.1934 32.5401 25.1934C32.214 25.1934 32.051 25.1934 31.9224 25.2466C31.7509 25.3177 31.6147 25.4539 31.5437 25.6254C31.4904 25.754 31.4904 25.917 31.4904 26.2431C31.4904 26.5692 31.4904 26.7322 31.5437 26.8608C31.6147 27.0323 31.7509 27.1685 31.9224 27.2395C32.051 27.2928 32.214 27.2928 32.5401 27.2928C32.8662 27.2928 33.0292 27.2928 33.1578 27.2395C33.3293 27.1685 33.4655 27.0323 33.5366 26.8608C33.5898 26.7322 33.5898 26.5692 33.5898 26.2431Z" fill="#32CCCC"/>
<path d="M20.9941 26.2431C20.9941 25.917 20.9941 25.754 20.9409 25.6254C20.8698 25.4539 20.7336 25.3177 20.5621 25.2466C20.4335 25.1934 20.2705 25.1934 19.9444 25.1934C19.6183 25.1934 19.4553 25.1934 19.3267 25.2466C19.1552 25.3177 19.019 25.4539 18.948 25.6254C18.8947 25.754 18.8947 25.917 18.8947 26.2431C18.8947 26.5692 18.8947 26.7322 18.948 26.8608C19.019 27.0323 19.1552 27.1685 19.3267 27.2395C19.4553 27.2928 19.6183 27.2928 19.9444 27.2928C20.2705 27.2928 20.4335 27.2928 20.5621 27.2395C20.7336 27.1685 20.8698 27.0323 20.9409 26.8608C20.9941 26.7322 20.9941 26.5692 20.9941 26.2431Z" fill="#32CCCC"/>
<path d="M14.6953 26.2431C14.6953 25.917 14.6953 25.754 14.642 25.6254C14.571 25.4539 14.4348 25.3177 14.2633 25.2466C14.1347 25.1934 13.9717 25.1934 13.6456 25.1934C13.3195 25.1934 13.1565 25.1934 13.0279 25.2466C12.8564 25.3177 12.7202 25.4539 12.6491 25.6254C12.5959 25.754 12.5959 25.917 12.5959 26.2431C12.5959 26.5692 12.5959 26.7322 12.6491 26.8608C12.7202 27.0323 12.8564 27.1685 13.0279 27.2395C13.1565 27.2928 13.3195 27.2928 13.6456 27.2928C13.9717 27.2928 14.1347 27.2928 14.2633 27.2395C14.4348 27.1685 14.571 27.0323 14.642 26.8608C14.6953 26.7322 14.6953 26.5692 14.6953 26.2431Z" fill="#32CCCC"/>
<path d="M8.39844 26.2431C8.39844 25.917 8.39844 25.754 8.34517 25.6254C8.27414 25.4539 8.1379 25.3177 7.96643 25.2466C7.83782 25.1934 7.67479 25.1934 7.34871 25.1934C7.02264 25.1934 6.8596 25.1934 6.731 25.2466C6.55952 25.3177 6.42329 25.4539 6.35226 25.6254C6.29899 25.754 6.29899 25.917 6.29899 26.2431C6.29899 26.5692 6.29899 26.7322 6.35226 26.8608C6.42329 27.0323 6.55952 27.1685 6.731 27.2395C6.8596 27.2928 7.02264 27.2928 7.34871 27.2928C7.67479 27.2928 7.83782 27.2928 7.96643 27.2395C8.1379 27.1685 8.27414 27.0323 8.34517 26.8608C8.39844 26.7322 8.39844 26.5692 8.39844 26.2431Z" fill="#32CCCC"/>
<path d="M2.09944 26.2431C2.09944 25.917 2.09944 25.754 2.04617 25.6254C1.97514 25.4539 1.83891 25.3177 1.66743 25.2466C1.53883 25.1934 1.37579 25.1934 1.04972 25.1934C0.723644 25.1934 0.560608 25.1934 0.432002 25.2466C0.260527 25.3177 0.124291 25.4539 0.0532644 25.6254C-5.96046e-06 25.754 -5.96046e-06 25.917 -5.96046e-06 26.2431C-5.96046e-06 26.5692 -5.96046e-06 26.7322 0.0532644 26.8608C0.124291 27.0323 0.260527 27.1685 0.432002 27.2395C0.560608 27.2928 0.723644 27.2928 1.04972 27.2928C1.37579 27.2928 1.53883 27.2928 1.66743 27.2395C1.83891 27.1685 1.97514 27.0323 2.04617 26.8608C2.09944 26.7322 2.09944 26.5692 2.09944 26.2431Z" fill="#32CCCC"/>
</svg>
