<svg width="191" height="28" viewBox="0 0 191 28" fill="none" xmlns="http://www.w3.org/2000/svg">
<path d="M109.17 1.04972C109.17 0.72365 109.17 0.560614 109.117 0.432008C109.046 0.260533 108.909 0.124297 108.738 0.0532703C108.609 0 108.446 0 108.12 0C107.794 0 107.631 0 107.502 0.0532703C107.331 0.124297 107.195 0.260533 107.124 0.432008C107.07 0.560614 107.07 0.72365 107.07 1.04972C107.07 1.3758 107.07 1.53883 107.124 1.66744C107.195 1.83891 107.331 1.97515 107.502 2.04618C107.631 2.09945 107.794 2.09945 108.12 2.09945C108.446 2.09945 108.609 2.09945 108.738 2.04618C108.909 1.97515 109.046 1.83891 109.117 1.66744C109.17 1.53883 109.17 1.3758 109.17 1.04972Z" fill="white"/>
<path d="M102.871 1.04972C102.871 0.72365 102.871 0.560614 102.818 0.432008C102.747 0.260533 102.611 0.124297 102.439 0.0532703C102.31 0 102.147 0 101.821 0C101.495 0 101.332 0 101.204 0.0532703C101.032 0.124297 100.896 0.260533 100.825 0.432008C100.772 0.560614 100.772 0.72365 100.772 1.04972C100.772 1.3758 100.772 1.53883 100.825 1.66744C100.896 1.83891 101.032 1.97515 101.204 2.04618C101.332 2.09945 101.495 2.09945 101.821 2.09945C102.147 2.09945 102.31 2.09945 102.439 2.04618C102.611 1.97515 102.747 1.83891 102.818 1.66744C102.871 1.53883 102.871 1.3758 102.871 1.04972Z" fill="white"/>
<path d="M96.5742 1.04972C96.5742 0.72365 96.5742 0.560614 96.5209 0.432008C96.4499 0.260533 96.3137 0.124297 96.1422 0.0532703C96.0136 0 95.8506 0 95.5245 0C95.1984 0 95.0354 0 94.9068 0.0532703C94.7353 0.124297 94.5991 0.260533 94.528 0.432008C94.4748 0.560614 94.4748 0.72365 94.4748 1.04972C94.4748 1.3758 94.4748 1.53883 94.528 1.66744C94.5991 1.83891 94.7353 1.97515 94.9068 2.04618C95.0354 2.09945 95.1984 2.09945 95.5245 2.09945C95.8506 2.09945 96.0136 2.09945 96.1422 2.04618C96.3137 1.97515 96.4499 1.83891 96.5209 1.66744C96.5742 1.53883 96.5742 1.3758 96.5742 1.04972Z" fill="white"/>
<path d="M90.2752 1.04972C90.2752 0.72365 90.2752 0.560614 90.222 0.432008C90.1509 0.260533 90.0147 0.124297 89.8432 0.0532703C89.7146 0 89.5516 0 89.2255 0C88.8994 0 88.7364 0 88.6078 0.0532703C88.4363 0.124297 88.3001 0.260533 88.229 0.432008C88.1758 0.560614 88.1758 0.72365 88.1758 1.04972C88.1758 1.3758 88.1758 1.53883 88.229 1.66744C88.3001 1.83891 88.4363 1.97515 88.6078 2.04618C88.7364 2.09945 88.8994 2.09945 89.2255 2.09945C89.5516 2.09945 89.7146 2.09945 89.8432 2.04618C90.0147 1.97515 90.1509 1.83891 90.222 1.66744C90.2752 1.53883 90.2752 1.3758 90.2752 1.04972Z" fill="white"/>
<path d="M115.469 7.34855C115.469 7.02248 115.469 6.85944 115.415 6.73084C115.344 6.55936 115.208 6.42313 115.037 6.3521C114.908 6.29883 114.745 6.29883 114.419 6.29883C114.093 6.29883 113.93 6.29883 113.801 6.3521C113.63 6.42313 113.493 6.55936 113.422 6.73084C113.369 6.85944 113.369 7.02248 113.369 7.34855C113.369 7.67463 113.369 7.83766 113.422 7.96627C113.493 8.13774 113.63 8.27398 113.801 8.34501C113.93 8.39828 114.093 8.39828 114.419 8.39828C114.745 8.39828 114.908 8.39828 115.037 8.34501C115.208 8.27398 115.344 8.13774 115.415 7.96627C115.469 7.83766 115.469 7.67463 115.469 7.34855Z" fill="white"/>
<path d="M109.17 7.34855C109.17 7.02248 109.17 6.85944 109.117 6.73084C109.046 6.55936 108.909 6.42313 108.738 6.3521C108.609 6.29883 108.446 6.29883 108.12 6.29883C107.794 6.29883 107.631 6.29883 107.502 6.3521C107.331 6.42313 107.195 6.55936 107.124 6.73084C107.07 6.85944 107.07 7.02248 107.07 7.34855C107.07 7.67463 107.07 7.83766 107.124 7.96627C107.195 8.13774 107.331 8.27398 107.502 8.34501C107.631 8.39828 107.794 8.39828 108.12 8.39828C108.446 8.39828 108.609 8.39828 108.738 8.34501C108.909 8.27398 109.046 8.13774 109.117 7.96627C109.17 7.83766 109.17 7.67463 109.17 7.34855Z" fill="white"/>
<path d="M102.871 7.34855C102.871 7.02248 102.871 6.85944 102.818 6.73084C102.747 6.55936 102.611 6.42313 102.439 6.3521C102.31 6.29883 102.147 6.29883 101.821 6.29883C101.495 6.29883 101.332 6.29883 101.204 6.3521C101.032 6.42313 100.896 6.55936 100.825 6.73084C100.772 6.85944 100.772 7.02248 100.772 7.34855C100.772 7.67463 100.772 7.83766 100.825 7.96627C100.896 8.13774 101.032 8.27398 101.204 8.34501C101.332 8.39828 101.495 8.39828 101.821 8.39828C102.147 8.39828 102.31 8.39828 102.439 8.34501C102.611 8.27398 102.747 8.13774 102.818 7.96627C102.871 7.83766 102.871 7.67463 102.871 7.34855Z" fill="white"/>
<path d="M96.5742 7.34855C96.5742 7.02248 96.5742 6.85944 96.5209 6.73084C96.4499 6.55936 96.3137 6.42313 96.1422 6.3521C96.0136 6.29883 95.8506 6.29883 95.5245 6.29883C95.1984 6.29883 95.0354 6.29883 94.9068 6.3521C94.7353 6.42313 94.5991 6.55936 94.528 6.73084C94.4748 6.85944 94.4748 7.02248 94.4748 7.34855C94.4748 7.67463 94.4748 7.83766 94.528 7.96627C94.5991 8.13774 94.7353 8.27398 94.9068 8.34501C95.0354 8.39828 95.1984 8.39828 95.5245 8.39828C95.8506 8.39828 96.0136 8.39828 96.1422 8.34501C96.3137 8.27398 96.4499 8.13774 96.5209 7.96627C96.5742 7.83766 96.5742 7.67463 96.5742 7.34855Z" fill="white"/>
<path d="M121.766 13.6464C121.766 13.3203 121.766 13.1573 121.712 13.0287C121.641 12.8572 121.505 12.721 121.334 12.6499C121.205 12.5967 121.042 12.5967 120.716 12.5967C120.39 12.5967 120.227 12.5967 120.098 12.6499C119.927 12.721 119.79 12.8572 119.719 13.0287C119.666 13.1573 119.666 13.3203 119.666 13.6464C119.666 13.9725 119.666 14.1355 119.719 14.2641C119.79 14.4356 119.927 14.5718 120.098 14.6429C120.227 14.6961 120.39 14.6961 120.716 14.6961C121.042 14.6961 121.205 14.6961 121.334 14.6429C121.505 14.5718 121.641 14.4356 121.712 14.2641C121.766 14.1355 121.766 13.9725 121.766 13.6464Z" fill="white"/>
<path d="M115.469 13.6464C115.469 13.3203 115.469 13.1573 115.415 13.0287C115.344 12.8572 115.208 12.721 115.037 12.6499C114.908 12.5967 114.745 12.5967 114.419 12.5967C114.093 12.5967 113.93 12.5967 113.801 12.6499C113.63 12.721 113.493 12.8572 113.422 13.0287C113.369 13.1573 113.369 13.3203 113.369 13.6464C113.369 13.9725 113.369 14.1355 113.422 14.2641C113.493 14.4356 113.63 14.5718 113.801 14.6429C113.93 14.6961 114.093 14.6961 114.419 14.6961C114.745 14.6961 114.908 14.6961 115.037 14.6429C115.208 14.5718 115.344 14.4356 115.415 14.2641C115.469 14.1355 115.469 13.9725 115.469 13.6464Z" fill="white"/>
<path d="M109.17 13.6464C109.17 13.3203 109.17 13.1573 109.117 13.0287C109.046 12.8572 108.909 12.721 108.738 12.6499C108.609 12.5967 108.446 12.5967 108.12 12.5967C107.794 12.5967 107.631 12.5967 107.502 12.6499C107.331 12.721 107.195 12.8572 107.124 13.0287C107.07 13.1573 107.07 13.3203 107.07 13.6464C107.07 13.9725 107.07 14.1355 107.124 14.2641C107.195 14.4356 107.331 14.5718 107.502 14.6429C107.631 14.6961 107.794 14.6961 108.12 14.6961C108.446 14.6961 108.609 14.6961 108.738 14.6429C108.909 14.5718 109.046 14.4356 109.117 14.2641C109.17 14.1355 109.17 13.9725 109.17 13.6464Z" fill="white"/>
<path d="M102.871 13.6464C102.871 13.3203 102.871 13.1573 102.818 13.0287C102.747 12.8572 102.611 12.721 102.439 12.6499C102.31 12.5967 102.147 12.5967 101.821 12.5967C101.495 12.5967 101.332 12.5967 101.204 12.6499C101.032 12.721 100.896 12.8572 100.825 13.0287C100.772 13.1573 100.772 13.3203 100.772 13.6464C100.772 13.9725 100.772 14.1355 100.825 14.2641C100.896 14.4356 101.032 14.5718 101.204 14.6429C101.332 14.6961 101.495 14.6961 101.821 14.6961C102.147 14.6961 102.31 14.6961 102.439 14.6429C102.611 14.5718 102.747 14.4356 102.818 14.2641C102.871 14.1355 102.871 13.9725 102.871 13.6464Z" fill="white"/>
<path d="M128.064 19.9452C128.064 19.6192 128.064 19.4561 128.011 19.3275C127.94 19.156 127.804 19.0198 127.632 18.9488C127.504 18.8955 127.341 18.8955 127.015 18.8955C126.689 18.8955 126.526 18.8955 126.397 18.9488C126.226 19.0198 126.089 19.156 126.018 19.3275C125.965 19.4561 125.965 19.6192 125.965 19.9452C125.965 20.2713 125.965 20.4343 126.018 20.5629C126.089 20.7344 126.226 20.8707 126.397 20.9417C126.526 20.995 126.689 20.995 127.015 20.995C127.341 20.995 127.504 20.995 127.632 20.9417C127.804 20.8707 127.94 20.7344 128.011 20.5629C128.064 20.4343 128.064 20.2713 128.064 19.9452Z" fill="white"/>
<path d="M121.766 19.9452C121.766 19.6192 121.766 19.4561 121.712 19.3275C121.641 19.156 121.505 19.0198 121.334 18.9488C121.205 18.8955 121.042 18.8955 120.716 18.8955C120.39 18.8955 120.227 18.8955 120.098 18.9488C119.927 19.0198 119.79 19.156 119.719 19.3275C119.666 19.4561 119.666 19.6192 119.666 19.9452C119.666 20.2713 119.666 20.4343 119.719 20.5629C119.79 20.7344 119.927 20.8707 120.098 20.9417C120.227 20.995 120.39 20.995 120.716 20.995C121.042 20.995 121.205 20.995 121.334 20.9417C121.505 20.8707 121.641 20.7344 121.712 20.5629C121.766 20.4343 121.766 20.2713 121.766 19.9452Z" fill="white"/>
<path d="M115.469 19.9452C115.469 19.6192 115.469 19.4561 115.415 19.3275C115.344 19.156 115.208 19.0198 115.037 18.9488C114.908 18.8955 114.745 18.8955 114.419 18.8955C114.093 18.8955 113.93 18.8955 113.801 18.9488C113.63 19.0198 113.493 19.156 113.422 19.3275C113.369 19.4561 113.369 19.6192 113.369 19.9452C113.369 20.2713 113.369 20.4343 113.422 20.5629C113.493 20.7344 113.63 20.8707 113.801 20.9417C113.93 20.995 114.093 20.995 114.419 20.995C114.745 20.995 114.908 20.995 115.037 20.9417C115.208 20.8707 115.344 20.7344 115.415 20.5629C115.469 20.4343 115.469 20.2713 115.469 19.9452Z" fill="white"/>
<path d="M109.17 19.9452C109.17 19.6192 109.17 19.4561 109.117 19.3275C109.046 19.156 108.909 19.0198 108.738 18.9488C108.609 18.8955 108.446 18.8955 108.12 18.8955C107.794 18.8955 107.631 18.8955 107.502 18.9488C107.331 19.0198 107.195 19.156 107.124 19.3275C107.07 19.4561 107.07 19.6192 107.07 19.9452C107.07 20.2713 107.07 20.4343 107.124 20.5629C107.195 20.7344 107.331 20.8707 107.502 20.9417C107.631 20.995 107.794 20.995 108.12 20.995C108.446 20.995 108.609 20.995 108.738 20.9417C108.909 20.8707 109.046 20.7344 109.117 20.5629C109.17 20.4343 109.17 20.2713 109.17 19.9452Z" fill="white"/>
<path d="M134.363 26.2431C134.363 25.917 134.363 25.754 134.31 25.6254C134.239 25.4539 134.103 25.3177 133.931 25.2466C133.803 25.1934 133.64 25.1934 133.314 25.1934C132.987 25.1934 132.824 25.1934 132.696 25.2466C132.524 25.3177 132.388 25.4539 132.317 25.6254C132.264 25.754 132.264 25.917 132.264 26.2431C132.264 26.5692 132.264 26.7322 132.317 26.8608C132.388 27.0323 132.524 27.1685 132.696 27.2395C132.824 27.2928 132.987 27.2928 133.314 27.2928C133.64 27.2928 133.803 27.2928 133.931 27.2395C134.103 27.1685 134.239 27.0323 134.31 26.8608C134.363 26.7322 134.363 26.5692 134.363 26.2431Z" fill="white"/>
<path d="M128.064 26.2431C128.064 25.917 128.064 25.754 128.011 25.6254C127.94 25.4539 127.804 25.3177 127.632 25.2466C127.504 25.1934 127.341 25.1934 127.015 25.1934C126.689 25.1934 126.526 25.1934 126.397 25.2466C126.226 25.3177 126.089 25.4539 126.018 25.6254C125.965 25.754 125.965 25.917 125.965 26.2431C125.965 26.5692 125.965 26.7322 126.018 26.8608C126.089 27.0323 126.226 27.1685 126.397 27.2395C126.526 27.2928 126.689 27.2928 127.015 27.2928C127.341 27.2928 127.504 27.2928 127.632 27.2395C127.804 27.1685 127.94 27.0323 128.011 26.8608C128.064 26.7322 128.064 26.5692 128.064 26.2431Z" fill="white"/>
<path d="M121.766 26.2431C121.766 25.917 121.766 25.754 121.712 25.6254C121.641 25.4539 121.505 25.3177 121.334 25.2466C121.205 25.1934 121.042 25.1934 120.716 25.1934C120.39 25.1934 120.227 25.1934 120.098 25.2466C119.927 25.3177 119.79 25.4539 119.719 25.6254C119.666 25.754 119.666 25.917 119.666 26.2431C119.666 26.5692 119.666 26.7322 119.719 26.8608C119.79 27.0323 119.927 27.1685 120.098 27.2395C120.227 27.2928 120.39 27.2928 120.716 27.2928C121.042 27.2928 121.205 27.2928 121.334 27.2395C121.505 27.1685 121.641 27.0323 121.712 26.8608C121.766 26.7322 121.766 26.5692 121.766 26.2431Z" fill="white"/>
<path d="M115.469 26.2431C115.469 25.917 115.469 25.754 115.415 25.6254C115.344 25.4539 115.208 25.3177 115.037 25.2466C114.908 25.1934 114.745 25.1934 114.419 25.1934C114.093 25.1934 113.93 25.1934 113.801 25.2466C113.63 25.3177 113.493 25.4539 113.422 25.6254C113.369 25.754 113.369 25.917 113.369 26.2431C113.369 26.5692 113.369 26.7322 113.422 26.8608C113.493 27.0323 113.63 27.1685 113.801 27.2395C113.93 27.2928 114.093 27.2928 114.419 27.2928C114.745 27.2928 114.908 27.2928 115.037 27.2395C115.208 27.1685 115.344 27.0323 115.415 26.8608C115.469 26.7322 115.469 26.5692 115.469 26.2431Z" fill="white"/>
<path d="M33.5898 1.04972C33.5898 0.72365 33.5898 0.560614 33.5366 0.432008C33.4655 0.260533 33.3293 0.124297 33.1578 0.0532703C33.0292 0 32.8662 0 32.5401 0C32.214 0 32.051 0 31.9224 0.0532703C31.7509 0.124297 31.6147 0.260533 31.5437 0.432008C31.4904 0.560614 31.4904 0.72365 31.4904 1.04972C31.4904 1.3758 31.4904 1.53883 31.5437 1.66744C31.6147 1.83891 31.7509 1.97515 31.9224 2.04618C32.051 2.09945 32.214 2.09945 32.5401 2.09945C32.8662 2.09945 33.0292 2.09945 33.1578 2.04618C33.3293 1.97515 33.4655 1.83891 33.5366 1.66744C33.5898 1.53883 33.5898 1.3758 33.5898 1.04972Z" fill="white"/>
<path d="M27.2928 1.04972C27.2928 0.72365 27.2928 0.560614 27.2395 0.432008C27.1685 0.260533 27.0323 0.124297 26.8608 0.0532703C26.7322 0 26.5692 0 26.2431 0C25.917 0 25.754 0 25.6254 0.0532703C25.4539 0.124297 25.3177 0.260533 25.2466 0.432008C25.1934 0.560614 25.1934 0.72365 25.1934 1.04972C25.1934 1.3758 25.1934 1.53883 25.2466 1.66744C25.3177 1.83891 25.4539 1.97515 25.6254 2.04618C25.754 2.09945 25.917 2.09945 26.2431 2.09945C26.5692 2.09945 26.7322 2.09945 26.8608 2.04618C27.0323 1.97515 27.1685 1.83891 27.2395 1.66744C27.2928 1.53883 27.2928 1.3758 27.2928 1.04972Z" fill="white"/>
<path d="M20.9941 1.04972C20.9941 0.72365 20.9941 0.560614 20.9409 0.432008C20.8698 0.260533 20.7336 0.124297 20.5621 0.0532703C20.4335 0 20.2705 0 19.9444 0C19.6183 0 19.4553 0 19.3267 0.0532703C19.1552 0.124297 19.019 0.260533 18.948 0.432008C18.8947 0.560614 18.8947 0.72365 18.8947 1.04972C18.8947 1.3758 18.8947 1.53883 18.948 1.66744C19.019 1.83891 19.1552 1.97515 19.3267 2.04618C19.4553 2.09945 19.6183 2.09945 19.9444 2.09945C20.2705 2.09945 20.4335 2.09945 20.5621 2.04618C20.7336 1.97515 20.8698 1.83891 20.9409 1.66744C20.9941 1.53883 20.9941 1.3758 20.9941 1.04972Z" fill="white"/>
<path d="M14.6953 1.04972C14.6953 0.72365 14.6953 0.560614 14.642 0.432008C14.571 0.260533 14.4348 0.124297 14.2633 0.0532703C14.1347 0 13.9717 0 13.6456 0C13.3195 0 13.1565 0 13.0279 0.0532703C12.8564 0.124297 12.7202 0.260533 12.6491 0.432008C12.5959 0.560614 12.5959 0.72365 12.5959 1.04972C12.5959 1.3758 12.5959 1.53883 12.6491 1.66744C12.7202 1.83891 12.8564 1.97515 13.0279 2.04618C13.1565 2.09945 13.3195 2.09945 13.6456 2.09945C13.9717 2.09945 14.1347 2.09945 14.2633 2.04618C14.4348 1.97515 14.571 1.83891 14.642 1.66744C14.6953 1.53883 14.6953 1.3758 14.6953 1.04972Z" fill="white"/>
<path d="M8.39844 1.04972C8.39844 0.72365 8.39844 0.560614 8.34517 0.432008C8.27414 0.260533 8.1379 0.124297 7.96643 0.0532703C7.83782 0 7.67479 0 7.34871 0C7.02264 0 6.8596 0 6.731 0.0532703C6.55952 0.124297 6.42329 0.260533 6.35226 0.432008C6.29899 0.560614 6.29899 0.72365 6.29899 1.04972C6.29899 1.3758 6.29899 1.53883 6.35226 1.66744C6.42329 1.83891 6.55952 1.97515 6.731 2.04618C6.8596 2.09945 7.02264 2.09945 7.34871 2.09945C7.67479 2.09945 7.83782 2.09945 7.96643 2.04618C8.1379 1.97515 8.27414 1.83891 8.34517 1.66744C8.39844 1.53883 8.39844 1.3758 8.39844 1.04972Z" fill="white"/>
<path d="M39.8887 7.34855C39.8887 7.02248 39.8887 6.85944 39.8354 6.73084C39.7644 6.55936 39.6281 6.42313 39.4567 6.3521C39.3281 6.29883 39.165 6.29883 38.8389 6.29883C38.5129 6.29883 38.3498 6.29883 38.2212 6.3521C38.0498 6.42313 37.9135 6.55936 37.8425 6.73084C37.7892 6.85944 37.7892 7.02248 37.7892 7.34855C37.7892 7.67463 37.7892 7.83766 37.8425 7.96627C37.9135 8.13774 38.0498 8.27398 38.2212 8.34501C38.3498 8.39828 38.5129 8.39828 38.8389 8.39828C39.165 8.39828 39.3281 8.39828 39.4567 8.34501C39.6281 8.27398 39.7644 8.13774 39.8354 7.96627C39.8887 7.83766 39.8887 7.67463 39.8887 7.34855Z" fill="white"/>
<path d="M33.5898 7.34855C33.5898 7.02248 33.5898 6.85944 33.5366 6.73084C33.4655 6.55936 33.3293 6.42313 33.1578 6.3521C33.0292 6.29883 32.8662 6.29883 32.5401 6.29883C32.214 6.29883 32.051 6.29883 31.9224 6.3521C31.7509 6.42313 31.6147 6.55936 31.5437 6.73084C31.4904 6.85944 31.4904 7.02248 31.4904 7.34855C31.4904 7.67463 31.4904 7.83766 31.5437 7.96627C31.6147 8.13774 31.7509 8.27398 31.9224 8.34501C32.051 8.39828 32.214 8.39828 32.5401 8.39828C32.8662 8.39828 33.0292 8.39828 33.1578 8.34501C33.3293 8.27398 33.4655 8.13774 33.5366 7.96627C33.5898 7.83766 33.5898 7.67463 33.5898 7.34855Z" fill="white"/>
<path d="M27.2928 7.34855C27.2928 7.02248 27.2928 6.85944 27.2395 6.73084C27.1685 6.55936 27.0323 6.42313 26.8608 6.3521C26.7322 6.29883 26.5692 6.29883 26.2431 6.29883C25.917 6.29883 25.754 6.29883 25.6254 6.3521C25.4539 6.42313 25.3177 6.55936 25.2466 6.73084C25.1934 6.85944 25.1934 7.02248 25.1934 7.34855C25.1934 7.67463 25.1934 7.83766 25.2466 7.96627C25.3177 8.13774 25.4539 8.27398 25.6254 8.34501C25.754 8.39828 25.917 8.39828 26.2431 8.39828C26.5692 8.39828 26.7322 8.39828 26.8608 8.34501C27.0323 8.27398 27.1685 8.13774 27.2395 7.96627C27.2928 7.83766 27.2928 7.67463 27.2928 7.34855Z" fill="white"/>
<path d="M20.9941 7.34855C20.9941 7.02248 20.9941 6.85944 20.9409 6.73084C20.8698 6.55936 20.7336 6.42313 20.5621 6.3521C20.4335 6.29883 20.2705 6.29883 19.9444 6.29883C19.6183 6.29883 19.4553 6.29883 19.3267 6.3521C19.1552 6.42313 19.019 6.55936 18.948 6.73084C18.8947 6.85944 18.8947 7.02248 18.8947 7.34855C18.8947 7.67463 18.8947 7.83766 18.948 7.96627C19.019 8.13774 19.1552 8.27398 19.3267 8.34501C19.4553 8.39828 19.6183 8.39828 19.9444 8.39828C20.2705 8.39828 20.4335 8.39828 20.5621 8.34501C20.7336 8.27398 20.8698 8.13774 20.9409 7.96627C20.9941 7.83766 20.9941 7.67463 20.9941 7.34855Z" fill="white"/>
<path d="M14.6953 7.34855C14.6953 7.02248 14.6953 6.85944 14.642 6.73084C14.571 6.55936 14.4348 6.42313 14.2633 6.3521C14.1347 6.29883 13.9717 6.29883 13.6456 6.29883C13.3195 6.29883 13.1565 6.29883 13.0279 6.3521C12.8564 6.42313 12.7202 6.55936 12.6491 6.73084C12.5959 6.85944 12.5959 7.02248 12.5959 7.34855C12.5959 7.67463 12.5959 7.83766 12.6491 7.96627C12.7202 8.13774 12.8564 8.27398 13.0279 8.34501C13.1565 8.39828 13.3195 8.39828 13.6456 8.39828C13.9717 8.39828 14.1347 8.39828 14.2633 8.34501C14.4348 8.27398 14.571 8.13774 14.642 7.96627C14.6953 7.83766 14.6953 7.67463 14.6953 7.34855Z" fill="white"/>
<path d="M8.39844 7.34855C8.39844 7.02248 8.39844 6.85944 8.34517 6.73084C8.27414 6.55936 8.1379 6.42313 7.96643 6.3521C7.83782 6.29883 7.67479 6.29883 7.34871 6.29883C7.02264 6.29883 6.8596 6.29883 6.731 6.3521C6.55952 6.42313 6.42329 6.55936 6.35226 6.73084C6.29899 6.85944 6.29899 7.02248 6.29899 7.34855C6.29899 7.67463 6.29899 7.83766 6.35226 7.96627C6.42329 8.13774 6.55952 8.27398 6.731 8.34501C6.8596 8.39828 7.02264 8.39828 7.34871 8.39828C7.67479 8.39828 7.83782 8.39828 7.96643 8.34501C8.1379 8.27398 8.27414 8.13774 8.34517 7.96627C8.39844 7.83766 8.39844 7.67463 8.39844 7.34855Z" fill="white"/>
<path d="M2.09944 7.34855C2.09944 7.02248 2.09944 6.85944 2.04617 6.73084C1.97514 6.55936 1.83891 6.42313 1.66743 6.3521C1.53883 6.29883 1.37579 6.29883 1.04972 6.29883C0.723644 6.29883 0.560608 6.29883 0.432002 6.3521C0.260527 6.42313 0.124291 6.55936 0.0532644 6.73084C-5.96046e-06 6.85944 -5.96046e-06 7.02248 -5.96046e-06 7.34855C-5.96046e-06 7.67463 -5.96046e-06 7.83766 0.0532644 7.96627C0.124291 8.13774 0.260527 8.27398 0.432002 8.34501C0.560608 8.39828 0.723644 8.39828 1.04972 8.39828C1.37579 8.39828 1.53883 8.39828 1.66743 8.34501C1.83891 8.27398 1.97514 8.13774 2.04617 7.96627C2.09944 7.83766 2.09944 7.67463 2.09944 7.34855Z" fill="white"/>
<path d="M39.8887 13.6464C39.8887 13.3203 39.8887 13.1573 39.8354 13.0287C39.7644 12.8572 39.6281 12.721 39.4567 12.6499C39.3281 12.5967 39.165 12.5967 38.8389 12.5967C38.5129 12.5967 38.3498 12.5967 38.2212 12.6499C38.0498 12.721 37.9135 12.8572 37.8425 13.0287C37.7892 13.1573 37.7892 13.3203 37.7892 13.6464C37.7892 13.9725 37.7892 14.1355 37.8425 14.2641C37.9135 14.4356 38.0498 14.5718 38.2212 14.6429C38.3498 14.6961 38.5129 14.6961 38.8389 14.6961C39.165 14.6961 39.3281 14.6961 39.4567 14.6429C39.6281 14.5718 39.7644 14.4356 39.8354 14.2641C39.8887 14.1355 39.8887 13.9725 39.8887 13.6464Z" fill="white"/>
<path d="M33.5898 13.6464C33.5898 13.3203 33.5898 13.1573 33.5366 13.0287C33.4655 12.8572 33.3293 12.721 33.1578 12.6499C33.0292 12.5967 32.8662 12.5967 32.5401 12.5967C32.214 12.5967 32.051 12.5967 31.9224 12.6499C31.7509 12.721 31.6147 12.8572 31.5437 13.0287C31.4904 13.1573 31.4904 13.3203 31.4904 13.6464C31.4904 13.9725 31.4904 14.1355 31.5437 14.2641C31.6147 14.4356 31.7509 14.5718 31.9224 14.6429C32.051 14.6961 32.214 14.6961 32.5401 14.6961C32.8662 14.6961 33.0292 14.6961 33.1578 14.6429C33.3293 14.5718 33.4655 14.4356 33.5366 14.2641C33.5898 14.1355 33.5898 13.9725 33.5898 13.6464Z" fill="white"/>
<path d="M27.2928 13.6464C27.2928 13.3203 27.2928 13.1573 27.2395 13.0287C27.1685 12.8572 27.0323 12.721 26.8608 12.6499C26.7322 12.5967 26.5692 12.5967 26.2431 12.5967C25.917 12.5967 25.754 12.5967 25.6254 12.6499C25.4539 12.721 25.3177 12.8572 25.2466 13.0287C25.1934 13.1573 25.1934 13.3203 25.1934 13.6464C25.1934 13.9725 25.1934 14.1355 25.2466 14.2641C25.3177 14.4356 25.4539 14.5718 25.6254 14.6429C25.754 14.6961 25.917 14.6961 26.2431 14.6961C26.5692 14.6961 26.7322 14.6961 26.8608 14.6429C27.0323 14.5718 27.1685 14.4356 27.2395 14.2641C27.2928 14.1355 27.2928 13.9725 27.2928 13.6464Z" fill="white"/>
<path d="M14.6953 13.6464C14.6953 13.3203 14.6953 13.1573 14.642 13.0287C14.571 12.8572 14.4348 12.721 14.2633 12.6499C14.1347 12.5967 13.9717 12.5967 13.6456 12.5967C13.3195 12.5967 13.1565 12.5967 13.0279 12.6499C12.8564 12.721 12.7202 12.8572 12.6491 13.0287C12.5959 13.1573 12.5959 13.3203 12.5959 13.6464C12.5959 13.9725 12.5959 14.1355 12.6491 14.2641C12.7202 14.4356 12.8564 14.5718 13.0279 14.6429C13.1565 14.6961 13.3195 14.6961 13.6456 14.6961C13.9717 14.6961 14.1347 14.6961 14.2633 14.6429C14.4348 14.5718 14.571 14.4356 14.642 14.2641C14.6953 14.1355 14.6953 13.9725 14.6953 13.6464Z" fill="white"/>
<path d="M8.39844 13.6464C8.39844 13.3203 8.39844 13.1573 8.34517 13.0287C8.27414 12.8572 8.1379 12.721 7.96643 12.6499C7.83782 12.5967 7.67479 12.5967 7.34871 12.5967C7.02264 12.5967 6.8596 12.5967 6.731 12.6499C6.55952 12.721 6.42329 12.8572 6.35226 13.0287C6.29899 13.1573 6.29899 13.3203 6.29899 13.6464C6.29899 13.9725 6.29899 14.1355 6.35226 14.2641C6.42329 14.4356 6.55952 14.5718 6.731 14.6429C6.8596 14.6961 7.02264 14.6961 7.34871 14.6961C7.67479 14.6961 7.83782 14.6961 7.96643 14.6429C8.1379 14.5718 8.27414 14.4356 8.34517 14.2641C8.39844 14.1355 8.39844 13.9725 8.39844 13.6464Z" fill="white"/>
<path d="M2.09944 13.6464C2.09944 13.3203 2.09944 13.1573 2.04617 13.0287C1.97514 12.8572 1.83891 12.721 1.66743 12.6499C1.53883 12.5967 1.37579 12.5967 1.04972 12.5967C0.723644 12.5967 0.560608 12.5967 0.432002 12.6499C0.260527 12.721 0.124291 12.8572 0.0532644 13.0287C-5.96046e-06 13.1573 -5.96046e-06 13.3203 -5.96046e-06 13.6464C-5.96046e-06 13.9725 -5.96046e-06 14.1355 0.0532644 14.2641C0.124291 14.4356 0.260527 14.5718 0.432002 14.6429C0.560608 14.6961 0.723644 14.6961 1.04972 14.6961C1.37579 14.6961 1.53883 14.6961 1.66743 14.6429C1.83891 14.5718 1.97514 14.4356 2.04617 14.2641C2.09944 14.1355 2.09944 13.9725 2.09944 13.6464Z" fill="white"/>
<path d="M39.8887 19.9452C39.8887 19.6192 39.8887 19.4561 39.8354 19.3275C39.7644 19.156 39.6281 19.0198 39.4567 18.9488C39.3281 18.8955 39.165 18.8955 38.8389 18.8955C38.5129 18.8955 38.3498 18.8955 38.2212 18.9488C38.0498 19.0198 37.9135 19.156 37.8425 19.3275C37.7892 19.4561 37.7892 19.6192 37.7892 19.9452C37.7892 20.2713 37.7892 20.4343 37.8425 20.5629C37.9135 20.7344 38.0498 20.8707 38.2212 20.9417C38.3498 20.995 38.5129 20.995 38.8389 20.995C39.165 20.995 39.3281 20.995 39.4567 20.9417C39.6281 20.8707 39.7644 20.7344 39.8354 20.5629C39.8887 20.4343 39.8887 20.2713 39.8887 19.9452Z" fill="white"/>
<path d="M33.5898 19.9452C33.5898 19.6192 33.5898 19.4561 33.5366 19.3275C33.4655 19.156 33.3293 19.0198 33.1578 18.9488C33.0292 18.8955 32.8662 18.8955 32.5401 18.8955C32.214 18.8955 32.051 18.8955 31.9224 18.9488C31.7509 19.0198 31.6147 19.156 31.5437 19.3275C31.4904 19.4561 31.4904 19.6192 31.4904 19.9452C31.4904 20.2713 31.4904 20.4343 31.5437 20.5629C31.6147 20.7344 31.7509 20.8707 31.9224 20.9417C32.051 20.995 32.214 20.995 32.5401 20.995C32.8662 20.995 33.0292 20.995 33.1578 20.9417C33.3293 20.8707 33.4655 20.7344 33.5366 20.5629C33.5898 20.4343 33.5898 20.2713 33.5898 19.9452Z" fill="white"/>
<path d="M27.2928 19.9452C27.2928 19.6192 27.2928 19.4561 27.2395 19.3275C27.1685 19.156 27.0323 19.0198 26.8608 18.9488C26.7322 18.8955 26.5692 18.8955 26.2431 18.8955C25.917 18.8955 25.754 18.8955 25.6254 18.9488C25.4539 19.0198 25.3177 19.156 25.2466 19.3275C25.1934 19.4561 25.1934 19.6192 25.1934 19.9452C25.1934 20.2713 25.1934 20.4343 25.2466 20.5629C25.3177 20.7344 25.4539 20.8707 25.6254 20.9417C25.754 20.995 25.917 20.995 26.2431 20.995C26.5692 20.995 26.7322 20.995 26.8608 20.9417C27.0323 20.8707 27.1685 20.7344 27.2395 20.5629C27.2928 20.4343 27.2928 20.2713 27.2928 19.9452Z" fill="white"/>
<path d="M20.9941 19.9452C20.9941 19.6192 20.9941 19.4561 20.9409 19.3275C20.8698 19.156 20.7336 19.0198 20.5621 18.9488C20.4335 18.8955 20.2705 18.8955 19.9444 18.8955C19.6183 18.8955 19.4553 18.8955 19.3267 18.9488C19.1552 19.0198 19.019 19.156 18.948 19.3275C18.8947 19.4561 18.8947 19.6192 18.8947 19.9452C18.8947 20.2713 18.8947 20.4343 18.948 20.5629C19.019 20.7344 19.1552 20.8707 19.3267 20.9417C19.4553 20.995 19.6183 20.995 19.9444 20.995C20.2705 20.995 20.4335 20.995 20.5621 20.9417C20.7336 20.8707 20.8698 20.7344 20.9409 20.5629C20.9941 20.4343 20.9941 20.2713 20.9941 19.9452Z" fill="white"/>
<path d="M14.6953 19.9452C14.6953 19.6192 14.6953 19.4561 14.642 19.3275C14.571 19.156 14.4348 19.0198 14.2633 18.9488C14.1347 18.8955 13.9717 18.8955 13.6456 18.8955C13.3195 18.8955 13.1565 18.8955 13.0279 18.9488C12.8564 19.0198 12.7202 19.156 12.6491 19.3275C12.5959 19.4561 12.5959 19.6192 12.5959 19.9452C12.5959 20.2713 12.5959 20.4343 12.6491 20.5629C12.7202 20.7344 12.8564 20.8707 13.0279 20.9417C13.1565 20.995 13.3195 20.995 13.6456 20.995C13.9717 20.995 14.1347 20.995 14.2633 20.9417C14.4348 20.8707 14.571 20.7344 14.642 20.5629C14.6953 20.4343 14.6953 20.2713 14.6953 19.9452Z" fill="white"/>
<path d="M8.39844 19.9452C8.39844 19.6192 8.39844 19.4561 8.34517 19.3275C8.27414 19.156 8.1379 19.0198 7.96643 18.9488C7.83782 18.8955 7.67479 18.8955 7.34871 18.8955C7.02264 18.8955 6.8596 18.8955 6.731 18.9488C6.55952 19.0198 6.42329 19.156 6.35226 19.3275C6.29899 19.4561 6.29899 19.6192 6.29899 19.9452C6.29899 20.2713 6.29899 20.4343 6.35226 20.5629C6.42329 20.7344 6.55952 20.8707 6.731 20.9417C6.8596 20.995 7.02264 20.995 7.34871 20.995C7.67479 20.995 7.83782 20.995 7.96643 20.9417C8.1379 20.8707 8.27414 20.7344 8.34517 20.5629C8.39844 20.4343 8.39844 20.2713 8.39844 19.9452Z" fill="white"/>
<path d="M2.09944 19.9452C2.09944 19.6192 2.09944 19.4561 2.04617 19.3275C1.97514 19.156 1.83891 19.0198 1.66743 18.9488C1.53883 18.8955 1.37579 18.8955 1.04972 18.8955C0.723644 18.8955 0.560608 18.8955 0.432002 18.9488C0.260527 19.0198 0.124291 19.156 0.0532644 19.3275C-5.96046e-06 19.4561 -5.96046e-06 19.6192 -5.96046e-06 19.9452C-5.96046e-06 20.2713 -5.96046e-06 20.4343 0.0532644 20.5629C0.124291 20.7344 0.260527 20.8707 0.432002 20.9417C0.560608 20.995 0.723644 20.995 1.04972 20.995C1.37579 20.995 1.53883 20.995 1.66743 20.9417C1.83891 20.8707 1.97514 20.7344 2.04617 20.5629C2.09944 20.4343 2.09944 20.2713 2.09944 19.9452Z" fill="white"/>
<path d="M33.5898 26.2431C33.5898 25.917 33.5898 25.754 33.5366 25.6254C33.4655 25.4539 33.3293 25.3177 33.1578 25.2466C33.0292 25.1934 32.8662 25.1934 32.5401 25.1934C32.214 25.1934 32.051 25.1934 31.9224 25.2466C31.7509 25.3177 31.6147 25.4539 31.5437 25.6254C31.4904 25.754 31.4904 25.917 31.4904 26.2431C31.4904 26.5692 31.4904 26.7322 31.5437 26.8608C31.6147 27.0323 31.7509 27.1685 31.9224 27.2395C32.051 27.2928 32.214 27.2928 32.5401 27.2928C32.8662 27.2928 33.0292 27.2928 33.1578 27.2395C33.3293 27.1685 33.4655 27.0323 33.5366 26.8608C33.5898 26.7322 33.5898 26.5692 33.5898 26.2431Z" fill="white"/>
<path d="M27.2928 26.2431C27.2928 25.917 27.2928 25.754 27.2395 25.6254C27.1685 25.4539 27.0323 25.3177 26.8608 25.2466C26.7322 25.1934 26.5692 25.1934 26.2431 25.1934C25.917 25.1934 25.754 25.1934 25.6254 25.2466C25.4539 25.3177 25.3177 25.4539 25.2466 25.6254C25.1934 25.754 25.1934 25.917 25.1934 26.2431C25.1934 26.5692 25.1934 26.7322 25.2466 26.8608C25.3177 27.0323 25.4539 27.1685 25.6254 27.2395C25.754 27.2928 25.917 27.2928 26.2431 27.2928C26.5692 27.2928 26.7322 27.2928 26.8608 27.2395C27.0323 27.1685 27.1685 27.0323 27.2395 26.8608C27.2928 26.7322 27.2928 26.5692 27.2928 26.2431Z" fill="white"/>
<path d="M20.9941 26.2431C20.9941 25.917 20.9941 25.754 20.9409 25.6254C20.8698 25.4539 20.7336 25.3177 20.5621 25.2466C20.4335 25.1934 20.2705 25.1934 19.9444 25.1934C19.6183 25.1934 19.4553 25.1934 19.3267 25.2466C19.1552 25.3177 19.019 25.4539 18.948 25.6254C18.8947 25.754 18.8947 25.917 18.8947 26.2431C18.8947 26.5692 18.8947 26.7322 18.948 26.8608C19.019 27.0323 19.1552 27.1685 19.3267 27.2395C19.4553 27.2928 19.6183 27.2928 19.9444 27.2928C20.2705 27.2928 20.4335 27.2928 20.5621 27.2395C20.7336 27.1685 20.8698 27.0323 20.9409 26.8608C20.9941 26.7322 20.9941 26.5692 20.9941 26.2431Z" fill="white"/>
<path d="M14.6953 26.2431C14.6953 25.917 14.6953 25.754 14.642 25.6254C14.571 25.4539 14.4348 25.3177 14.2633 25.2466C14.1347 25.1934 13.9717 25.1934 13.6456 25.1934C13.3195 25.1934 13.1565 25.1934 13.0279 25.2466C12.8564 25.3177 12.7202 25.4539 12.6491 25.6254C12.5959 25.754 12.5959 25.917 12.5959 26.2431C12.5959 26.5692 12.5959 26.7322 12.6491 26.8608C12.7202 27.0323 12.8564 27.1685 13.0279 27.2395C13.1565 27.2928 13.3195 27.2928 13.6456 27.2928C13.9717 27.2928 14.1347 27.2928 14.2633 27.2395C14.4348 27.1685 14.571 27.0323 14.642 26.8608C14.6953 26.7322 14.6953 26.5692 14.6953 26.2431Z" fill="white"/>
<path d="M8.39844 26.2431C8.39844 25.917 8.39844 25.754 8.34517 25.6254C8.27414 25.4539 8.1379 25.3177 7.96643 25.2466C7.83782 25.1934 7.67479 25.1934 7.34871 25.1934C7.02264 25.1934 6.8596 25.1934 6.731 25.2466C6.55952 25.3177 6.42329 25.4539 6.35226 25.6254C6.29899 25.754 6.29899 25.917 6.29899 26.2431C6.29899 26.5692 6.29899 26.7322 6.35226 26.8608C6.42329 27.0323 6.55952 27.1685 6.731 27.2395C6.8596 27.2928 7.02264 27.2928 7.34871 27.2928C7.67479 27.2928 7.83782 27.2928 7.96643 27.2395C8.1379 27.1685 8.27414 27.0323 8.34517 26.8608C8.39844 26.7322 8.39844 26.5692 8.39844 26.2431Z" fill="white"/>
<path d="M70.8848 1.04972C70.8848 0.72365 70.8848 0.560614 70.8315 0.432008C70.7605 0.260533 70.6242 0.124297 70.4528 0.0532703C70.3242 0 70.1611 0 69.835 0C69.509 0 69.3459 0 69.2173 0.0532703C69.0459 0.124297 68.9096 0.260533 68.8386 0.432008C68.7853 0.560614 68.7853 0.72365 68.7853 1.04972C68.7853 1.3758 68.7853 1.53883 68.8386 1.66744C68.9096 1.83891 69.0459 1.97515 69.2173 2.04618C69.3459 2.09945 69.509 2.09945 69.835 2.09945C70.1611 2.09945 70.3242 2.09945 70.4528 2.04618C70.6242 1.97515 70.7605 1.83891 70.8315 1.66744C70.8848 1.53883 70.8848 1.3758 70.8848 1.04972Z" fill="white"/>
<path d="M64.5859 1.04972C64.5859 0.72365 64.5859 0.560614 64.5327 0.432008C64.4616 0.260533 64.3254 0.124297 64.1539 0.0532703C64.0253 0 63.8623 0 63.5362 0C63.2101 0 63.0471 0 62.9185 0.0532703C62.747 0.124297 62.6108 0.260533 62.5398 0.432008C62.4865 0.560614 62.4865 0.72365 62.4865 1.04972C62.4865 1.3758 62.4865 1.53883 62.5398 1.66744C62.6108 1.83891 62.747 1.97515 62.9185 2.04618C63.0471 2.09945 63.2101 2.09945 63.5362 2.09945C63.8623 2.09945 64.0253 2.09945 64.1539 2.04618C64.3254 1.97515 64.4616 1.83891 64.5327 1.66744C64.5859 1.53883 64.5859 1.3758 64.5859 1.04972Z" fill="white"/>
<path d="M70.8848 7.34855C70.8848 7.02248 70.8848 6.85944 70.8315 6.73084C70.7605 6.55936 70.6242 6.42313 70.4528 6.3521C70.3242 6.29883 70.1611 6.29883 69.835 6.29883C69.509 6.29883 69.3459 6.29883 69.2173 6.3521C69.0459 6.42313 68.9096 6.55936 68.8386 6.73084C68.7853 6.85944 68.7853 7.02248 68.7853 7.34855C68.7853 7.67463 68.7853 7.83766 68.8386 7.96627C68.9096 8.13774 69.0459 8.27398 69.2173 8.34501C69.3459 8.39828 69.509 8.39828 69.835 8.39828C70.1611 8.39828 70.3242 8.39828 70.4528 8.34501C70.6242 8.27398 70.7605 8.13774 70.8315 7.96627C70.8848 7.83766 70.8848 7.67463 70.8848 7.34855Z" fill="white"/>
<path d="M64.5859 7.34855C64.5859 7.02248 64.5859 6.85944 64.5327 6.73084C64.4616 6.55936 64.3254 6.42313 64.1539 6.3521C64.0253 6.29883 63.8623 6.29883 63.5362 6.29883C63.2101 6.29883 63.0471 6.29883 62.9185 6.3521C62.747 6.42313 62.6108 6.55936 62.5398 6.73084C62.4865 6.85944 62.4865 7.02248 62.4865 7.34855C62.4865 7.67463 62.4865 7.83766 62.5398 7.96627C62.6108 8.13774 62.747 8.27398 62.9185 8.34501C63.0471 8.39828 63.2101 8.39828 63.5362 8.39828C63.8623 8.39828 64.0253 8.39828 64.1539 8.34501C64.3254 8.27398 64.4616 8.13774 64.5327 7.96627C64.5859 7.83766 64.5859 7.67463 64.5859 7.34855Z" fill="white"/>
<path d="M58.2891 7.34855C58.2891 7.02248 58.2891 6.85944 58.2358 6.73084C58.1648 6.55936 58.0285 6.42313 57.8571 6.3521C57.7284 6.29883 57.5654 6.29883 57.2393 6.29883C56.9133 6.29883 56.7502 6.29883 56.6216 6.3521C56.4501 6.42313 56.3139 6.55936 56.2429 6.73084C56.1896 6.85944 56.1896 7.02248 56.1896 7.34855C56.1896 7.67463 56.1896 7.83766 56.2429 7.96627C56.3139 8.13774 56.4501 8.27398 56.6216 8.34501C56.7502 8.39828 56.9133 8.39828 57.2393 8.39828C57.5654 8.39828 57.7284 8.39828 57.8571 8.34501C58.0285 8.27398 58.1648 8.13774 58.2358 7.96627C58.2891 7.83766 58.2891 7.67463 58.2891 7.34855Z" fill="white"/>
<path d="M51.9901 7.34855C51.9901 7.02248 51.9901 6.85944 51.9368 6.73084C51.8658 6.55936 51.7295 6.42313 51.5581 6.3521C51.4295 6.29883 51.2664 6.29883 50.9403 6.29883C50.6143 6.29883 50.4512 6.29883 50.3226 6.3521C50.1512 6.42313 50.0149 6.55936 49.9439 6.73084C49.8906 6.85944 49.8906 7.02248 49.8906 7.34855C49.8906 7.67463 49.8906 7.83766 49.9439 7.96627C50.0149 8.13774 50.1512 8.27398 50.3226 8.34501C50.4512 8.39828 50.6143 8.39828 50.9403 8.39828C51.2664 8.39828 51.4295 8.39828 51.5581 8.34501C51.7295 8.27398 51.8658 8.13774 51.9368 7.96627C51.9901 7.83766 51.9901 7.67463 51.9901 7.34855Z" fill="white"/>
<path d="M70.8848 13.6464C70.8848 13.3203 70.8848 13.1573 70.8315 13.0287C70.7605 12.8572 70.6242 12.721 70.4528 12.6499C70.3242 12.5967 70.1611 12.5967 69.835 12.5967C69.509 12.5967 69.3459 12.5967 69.2173 12.6499C69.0459 12.721 68.9096 12.8572 68.8386 13.0287C68.7853 13.1573 68.7853 13.3203 68.7853 13.6464C68.7853 13.9725 68.7853 14.1355 68.8386 14.2641C68.9096 14.4356 69.0459 14.5718 69.2173 14.6429C69.3459 14.6961 69.509 14.6961 69.835 14.6961C70.1611 14.6961 70.3242 14.6961 70.4528 14.6429C70.6242 14.5718 70.7605 14.4356 70.8315 14.2641C70.8848 14.1355 70.8848 13.9725 70.8848 13.6464Z" fill="white"/>
<path d="M64.5859 13.6464C64.5859 13.3203 64.5859 13.1573 64.5327 13.0287C64.4616 12.8572 64.3254 12.721 64.1539 12.6499C64.0253 12.5967 63.8623 12.5967 63.5362 12.5967C63.2101 12.5967 63.0471 12.5967 62.9185 12.6499C62.747 12.721 62.6108 12.8572 62.5398 13.0287C62.4865 13.1573 62.4865 13.3203 62.4865 13.6464C62.4865 13.9725 62.4865 14.1355 62.5398 14.2641C62.6108 14.4356 62.747 14.5718 62.9185 14.6429C63.0471 14.6961 63.2101 14.6961 63.5362 14.6961C63.8623 14.6961 64.0253 14.6961 64.1539 14.6429C64.3254 14.5718 64.4616 14.4356 64.5327 14.2641C64.5859 14.1355 64.5859 13.9725 64.5859 13.6464Z" fill="white"/>
<path d="M58.2891 13.6464C58.2891 13.3203 58.2891 13.1573 58.2358 13.0287C58.1648 12.8572 58.0285 12.721 57.8571 12.6499C57.7284 12.5967 57.5654 12.5967 57.2393 12.5967C56.9133 12.5967 56.7502 12.5967 56.6216 12.6499C56.4501 12.721 56.3139 12.8572 56.2429 13.0287C56.1896 13.1573 56.1896 13.3203 56.1896 13.6464C56.1896 13.9725 56.1896 14.1355 56.2429 14.2641C56.3139 14.4356 56.4501 14.5718 56.6216 14.6429C56.7502 14.6961 56.9133 14.6961 57.2393 14.6961C57.5654 14.6961 57.7284 14.6961 57.8571 14.6429C58.0285 14.5718 58.1648 14.4356 58.2358 14.2641C58.2891 14.1355 58.2891 13.9725 58.2891 13.6464Z" fill="white"/>
<path d="M70.8848 19.9452C70.8848 19.6192 70.8848 19.4561 70.8315 19.3275C70.7605 19.156 70.6242 19.0198 70.4528 18.9488C70.3242 18.8955 70.1611 18.8955 69.835 18.8955C69.509 18.8955 69.3459 18.8955 69.2173 18.9488C69.0459 19.0198 68.9096 19.156 68.8386 19.3275C68.7853 19.4561 68.7853 19.6192 68.7853 19.9452C68.7853 20.2713 68.7853 20.4343 68.8386 20.5629C68.9096 20.7344 69.0459 20.8707 69.2173 20.9417C69.3459 20.995 69.509 20.995 69.835 20.995C70.1611 20.995 70.3242 20.995 70.4528 20.9417C70.6242 20.8707 70.7605 20.7344 70.8315 20.5629C70.8848 20.4343 70.8848 20.2713 70.8848 19.9452Z" fill="white"/>
<path d="M64.5859 19.9452C64.5859 19.6192 64.5859 19.4561 64.5327 19.3275C64.4616 19.156 64.3254 19.0198 64.1539 18.9488C64.0253 18.8955 63.8623 18.8955 63.5362 18.8955C63.2101 18.8955 63.0471 18.8955 62.9185 18.9488C62.747 19.0198 62.6108 19.156 62.5398 19.3275C62.4865 19.4561 62.4865 19.6192 62.4865 19.9452C62.4865 20.2713 62.4865 20.4343 62.5398 20.5629C62.6108 20.7344 62.747 20.8707 62.9185 20.9417C63.0471 20.995 63.2101 20.995 63.5362 20.995C63.8623 20.995 64.0253 20.995 64.1539 20.9417C64.3254 20.8707 64.4616 20.7344 64.5327 20.5629C64.5859 20.4343 64.5859 20.2713 64.5859 19.9452Z" fill="white"/>
<path d="M58.2891 19.9452C58.2891 19.6192 58.2891 19.4561 58.2358 19.3275C58.1648 19.156 58.0285 19.0198 57.8571 18.9488C57.7284 18.8955 57.5654 18.8955 57.2393 18.8955C56.9133 18.8955 56.7502 18.8955 56.6216 18.9488C56.4501 19.0198 56.3139 19.156 56.2429 19.3275C56.1896 19.4561 56.1896 19.6192 56.1896 19.9452C56.1896 20.2713 56.1896 20.4343 56.2429 20.5629C56.3139 20.7344 56.4501 20.8707 56.6216 20.9417C56.7502 20.995 56.9133 20.995 57.2393 20.995C57.5654 20.995 57.7284 20.995 57.8571 20.9417C58.0285 20.8707 58.1648 20.7344 58.2358 20.5629C58.2891 20.4343 58.2891 20.2713 58.2891 19.9452Z" fill="white"/>
<path d="M70.8848 26.2431C70.8848 25.917 70.8848 25.754 70.8315 25.6254C70.7605 25.4539 70.6242 25.3177 70.4528 25.2466C70.3242 25.1934 70.1611 25.1934 69.835 25.1934C69.509 25.1934 69.3459 25.1934 69.2173 25.2466C69.0459 25.3177 68.9096 25.4539 68.8386 25.6254C68.7853 25.754 68.7853 25.917 68.7853 26.2431C68.7853 26.5692 68.7853 26.7322 68.8386 26.8608C68.9096 27.0323 69.0459 27.1685 69.2173 27.2395C69.3459 27.2928 69.509 27.2928 69.835 27.2928C70.1611 27.2928 70.3242 27.2928 70.4528 27.2395C70.6242 27.1685 70.7605 27.0323 70.8315 26.8608C70.8848 26.7322 70.8848 26.5692 70.8848 26.2431Z" fill="white"/>
<path d="M64.5859 26.2431C64.5859 25.917 64.5859 25.754 64.5327 25.6254C64.4616 25.4539 64.3254 25.3177 64.1539 25.2466C64.0253 25.1934 63.8623 25.1934 63.5362 25.1934C63.2101 25.1934 63.0471 25.1934 62.9185 25.2466C62.747 25.3177 62.6108 25.4539 62.5398 25.6254C62.4865 25.754 62.4865 25.917 62.4865 26.2431C62.4865 26.5692 62.4865 26.7322 62.5398 26.8608C62.6108 27.0323 62.747 27.1685 62.9185 27.2395C63.0471 27.2928 63.2101 27.2928 63.5362 27.2928C63.8623 27.2928 64.0253 27.2928 64.1539 27.2395C64.3254 27.1685 64.4616 27.0323 64.5327 26.8608C64.5859 26.7322 64.5859 26.5692 64.5859 26.2431Z" fill="white"/>
<path d="M58.2891 26.2431C58.2891 25.917 58.2891 25.754 58.2358 25.6254C58.1648 25.4539 58.0285 25.3177 57.8571 25.2466C57.7284 25.1934 57.5654 25.1934 57.2393 25.1934C56.9133 25.1934 56.7502 25.1934 56.6216 25.2466C56.4501 25.3177 56.3139 25.4539 56.2429 25.6254C56.1896 25.754 56.1896 25.917 56.1896 26.2431C56.1896 26.5692 56.1896 26.7322 56.2429 26.8608C56.3139 27.0323 56.4501 27.1685 56.6216 27.2395C56.7502 27.2928 56.9133 27.2928 57.2393 27.2928C57.5654 27.2928 57.7284 27.2928 57.8571 27.2395C58.0285 27.1685 58.1648 27.0323 58.2358 26.8608C58.2891 26.7322 58.2891 26.5692 58.2891 26.2431Z" fill="white"/>
<path d="M169.896 1.04972C169.896 0.72365 169.896 0.560614 169.95 0.432008C170.021 0.260533 170.157 0.124297 170.328 0.0532703C170.457 0 170.62 0 170.946 0C171.272 0 171.435 0 171.564 0.0532703C171.735 0.124297 171.872 0.260533 171.943 0.432008C171.996 0.560614 171.996 0.72365 171.996 1.04972C171.996 1.3758 171.996 1.53883 171.943 1.66744C171.872 1.83891 171.735 1.97515 171.564 2.04618C171.435 2.09945 171.272 2.09945 170.946 2.09945C170.62 2.09945 170.457 2.09945 170.328 2.04618C170.157 1.97515 170.021 1.83891 169.95 1.66744C169.896 1.53883 169.896 1.3758 169.896 1.04972Z" fill="white"/>
<path d="M151.002 7.34855C151.002 7.02248 151.002 6.85944 151.055 6.73084C151.126 6.55936 151.262 6.42313 151.434 6.3521C151.563 6.29883 151.726 6.29883 152.052 6.29883C152.378 6.29883 152.541 6.29883 152.669 6.3521C152.841 6.42313 152.977 6.55936 153.048 6.73084C153.101 6.85944 153.101 7.02248 153.101 7.34855C153.101 7.67463 153.101 7.83766 153.048 7.96627C152.977 8.13774 152.841 8.27398 152.669 8.34501C152.541 8.39828 152.378 8.39828 152.052 8.39828C151.726 8.39828 151.563 8.39828 151.434 8.34501C151.262 8.27398 151.126 8.13774 151.055 7.96627C151.002 7.83766 151.002 7.67463 151.002 7.34855Z" fill="white"/>
<path d="M157.301 7.34855C157.301 7.02248 157.301 6.85944 157.354 6.73084C157.425 6.55936 157.561 6.42313 157.733 6.3521C157.861 6.29883 158.024 6.29883 158.351 6.29883C158.677 6.29883 158.84 6.29883 158.968 6.3521C159.14 6.42313 159.276 6.55936 159.347 6.73084C159.4 6.85944 159.4 7.02248 159.4 7.34855C159.4 7.67463 159.4 7.83766 159.347 7.96627C159.276 8.13774 159.14 8.27398 158.968 8.34501C158.84 8.39828 158.677 8.39828 158.351 8.39828C158.024 8.39828 157.861 8.39828 157.733 8.34501C157.561 8.27398 157.425 8.13774 157.354 7.96627C157.301 7.83766 157.301 7.67463 157.301 7.34855Z" fill="white"/>
<path d="M163.598 7.34855C163.598 7.02248 163.598 6.85944 163.651 6.73084C163.722 6.55936 163.858 6.42313 164.03 6.3521C164.158 6.29883 164.321 6.29883 164.648 6.29883C164.974 6.29883 165.137 6.29883 165.265 6.3521C165.437 6.42313 165.573 6.55936 165.644 6.73084C165.697 6.85944 165.697 7.02248 165.697 7.34855C165.697 7.67463 165.697 7.83766 165.644 7.96627C165.573 8.13774 165.437 8.27398 165.265 8.34501C165.137 8.39828 164.974 8.39828 164.648 8.39828C164.321 8.39828 164.158 8.39828 164.03 8.34501C163.858 8.27398 163.722 8.13774 163.651 7.96627C163.598 7.83766 163.598 7.67463 163.598 7.34855Z" fill="white"/>
<path d="M169.896 7.34855C169.896 7.02248 169.896 6.85944 169.95 6.73084C170.021 6.55936 170.157 6.42313 170.328 6.3521C170.457 6.29883 170.62 6.29883 170.946 6.29883C171.272 6.29883 171.435 6.29883 171.564 6.3521C171.735 6.42313 171.872 6.55936 171.943 6.73084C171.996 6.85944 171.996 7.02248 171.996 7.34855C171.996 7.67463 171.996 7.83766 171.943 7.96627C171.872 8.13774 171.735 8.27398 171.564 8.34501C171.435 8.39828 171.272 8.39828 170.946 8.39828C170.62 8.39828 170.457 8.39828 170.328 8.34501C170.157 8.27398 170.021 8.13774 169.95 7.96627C169.896 7.83766 169.896 7.67463 169.896 7.34855Z" fill="white"/>
<path d="M176.195 7.34855C176.195 7.02248 176.195 6.85944 176.249 6.73084C176.32 6.55936 176.456 6.42313 176.627 6.3521C176.756 6.29883 176.919 6.29883 177.245 6.29883C177.571 6.29883 177.734 6.29883 177.863 6.3521C178.034 6.42313 178.17 6.55936 178.241 6.73084C178.295 6.85944 178.295 7.02248 178.295 7.34855C178.295 7.67463 178.295 7.83766 178.241 7.96627C178.17 8.13774 178.034 8.27398 177.863 8.34501C177.734 8.39828 177.571 8.39828 177.245 8.39828C176.919 8.39828 176.756 8.39828 176.627 8.34501C176.456 8.27398 176.32 8.13774 176.249 7.96627C176.195 7.83766 176.195 7.67463 176.195 7.34855Z" fill="white"/>
<path d="M157.301 13.6464C157.301 13.3203 157.301 13.1573 157.354 13.0287C157.425 12.8572 157.561 12.721 157.733 12.6499C157.861 12.5967 158.024 12.5967 158.351 12.5967C158.677 12.5967 158.84 12.5967 158.968 12.6499C159.14 12.721 159.276 12.8572 159.347 13.0287C159.4 13.1573 159.4 13.3203 159.4 13.6464C159.4 13.9725 159.4 14.1355 159.347 14.2641C159.276 14.4356 159.14 14.5718 158.968 14.6429C158.84 14.6961 158.677 14.6961 158.351 14.6961C158.024 14.6961 157.861 14.6961 157.733 14.6429C157.561 14.5718 157.425 14.4356 157.354 14.2641C157.301 14.1355 157.301 13.9725 157.301 13.6464Z" fill="white"/>
<path d="M163.598 13.6464C163.598 13.3203 163.598 13.1573 163.651 13.0287C163.722 12.8572 163.858 12.721 164.03 12.6499C164.158 12.5967 164.321 12.5967 164.648 12.5967C164.974 12.5967 165.137 12.5967 165.265 12.6499C165.437 12.721 165.573 12.8572 165.644 13.0287C165.697 13.1573 165.697 13.3203 165.697 13.6464C165.697 13.9725 165.697 14.1355 165.644 14.2641C165.573 14.4356 165.437 14.5718 165.265 14.6429C165.137 14.6961 164.974 14.6961 164.648 14.6961C164.321 14.6961 164.158 14.6961 164.03 14.6429C163.858 14.5718 163.722 14.4356 163.651 14.2641C163.598 14.1355 163.598 13.9725 163.598 13.6464Z" fill="white"/>
<path d="M169.896 13.6464C169.896 13.3203 169.896 13.1573 169.95 13.0287C170.021 12.8572 170.157 12.721 170.328 12.6499C170.457 12.5967 170.62 12.5967 170.946 12.5967C171.272 12.5967 171.435 12.5967 171.564 12.6499C171.735 12.721 171.872 12.8572 171.943 13.0287C171.996 13.1573 171.996 13.3203 171.996 13.6464C171.996 13.9725 171.996 14.1355 171.943 14.2641C171.872 14.4356 171.735 14.5718 171.564 14.6429C171.435 14.6961 171.272 14.6961 170.946 14.6961C170.62 14.6961 170.457 14.6961 170.328 14.6429C170.157 14.5718 170.021 14.4356 169.95 14.2641C169.896 14.1355 169.896 13.9725 169.896 13.6464Z" fill="white"/>
<path d="M176.195 13.6464C176.195 13.3203 176.195 13.1573 176.249 13.0287C176.32 12.8572 176.456 12.721 176.627 12.6499C176.756 12.5967 176.919 12.5967 177.245 12.5967C177.571 12.5967 177.734 12.5967 177.863 12.6499C178.034 12.721 178.17 12.8572 178.241 13.0287C178.295 13.1573 178.295 13.3203 178.295 13.6464C178.295 13.9725 178.295 14.1355 178.241 14.2641C178.17 14.4356 178.034 14.5718 177.863 14.6429C177.734 14.6961 177.571 14.6961 177.245 14.6961C176.919 14.6961 176.756 14.6961 176.627 14.6429C176.456 14.5718 176.32 14.4356 176.249 14.2641C176.195 14.1355 176.195 13.9725 176.195 13.6464Z" fill="white"/>
<path d="M182.492 13.6464C182.492 13.3203 182.492 13.1573 182.545 13.0287C182.616 12.8572 182.753 12.721 182.924 12.6499C183.053 12.5967 183.216 12.5967 183.542 12.5967C183.868 12.5967 184.031 12.5967 184.16 12.6499C184.331 12.721 184.467 12.8572 184.538 13.0287C184.592 13.1573 184.592 13.3203 184.592 13.6464C184.592 13.9725 184.592 14.1355 184.538 14.2641C184.467 14.4356 184.331 14.5718 184.16 14.6429C184.031 14.6961 183.868 14.6961 183.542 14.6961C183.216 14.6961 183.053 14.6961 182.924 14.6429C182.753 14.5718 182.616 14.4356 182.545 14.2641C182.492 14.1355 182.492 13.9725 182.492 13.6464Z" fill="white"/>
<path d="M163.598 19.9452C163.598 19.6192 163.598 19.4561 163.651 19.3275C163.722 19.156 163.858 19.0198 164.03 18.9488C164.158 18.8955 164.321 18.8955 164.648 18.8955C164.974 18.8955 165.137 18.8955 165.265 18.9488C165.437 19.0198 165.573 19.156 165.644 19.3275C165.697 19.4561 165.697 19.6192 165.697 19.9452C165.697 20.2713 165.697 20.4343 165.644 20.5629C165.573 20.7344 165.437 20.8707 165.265 20.9417C165.137 20.995 164.974 20.995 164.648 20.995C164.321 20.995 164.158 20.995 164.03 20.9417C163.858 20.8707 163.722 20.7344 163.651 20.5629C163.598 20.4343 163.598 20.2713 163.598 19.9452Z" fill="white"/>
<path d="M169.896 19.9452C169.896 19.6192 169.896 19.4561 169.95 19.3275C170.021 19.156 170.157 19.0198 170.328 18.9488C170.457 18.8955 170.62 18.8955 170.946 18.8955C171.272 18.8955 171.435 18.8955 171.564 18.9488C171.735 19.0198 171.872 19.156 171.943 19.3275C171.996 19.4561 171.996 19.6192 171.996 19.9452C171.996 20.2713 171.996 20.4343 171.943 20.5629C171.872 20.7344 171.735 20.8707 171.564 20.9417C171.435 20.995 171.272 20.995 170.946 20.995C170.62 20.995 170.457 20.995 170.328 20.9417C170.157 20.8707 170.021 20.7344 169.95 20.5629C169.896 20.4343 169.896 20.2713 169.896 19.9452Z" fill="white"/>
<path d="M176.195 19.9452C176.195 19.6192 176.195 19.4561 176.249 19.3275C176.32 19.156 176.456 19.0198 176.627 18.9488C176.756 18.8955 176.919 18.8955 177.245 18.8955C177.571 18.8955 177.734 18.8955 177.863 18.9488C178.034 19.0198 178.17 19.156 178.241 19.3275C178.295 19.4561 178.295 19.6192 178.295 19.9452C178.295 20.2713 178.295 20.4343 178.241 20.5629C178.17 20.7344 178.034 20.8707 177.863 20.9417C177.734 20.995 177.571 20.995 177.245 20.995C176.919 20.995 176.756 20.995 176.627 20.9417C176.456 20.8707 176.32 20.7344 176.249 20.5629C176.195 20.4343 176.195 20.2713 176.195 19.9452Z" fill="white"/>
<path d="M182.492 19.9452C182.492 19.6192 182.492 19.4561 182.545 19.3275C182.616 19.156 182.753 19.0198 182.924 18.9488C183.053 18.8955 183.216 18.8955 183.542 18.8955C183.868 18.8955 184.031 18.8955 184.16 18.9488C184.331 19.0198 184.467 19.156 184.538 19.3275C184.592 19.4561 184.592 19.6192 184.592 19.9452C184.592 20.2713 184.592 20.4343 184.538 20.5629C184.467 20.7344 184.331 20.8707 184.16 20.9417C184.031 20.995 183.868 20.995 183.542 20.995C183.216 20.995 183.053 20.995 182.924 20.9417C182.753 20.8707 182.616 20.7344 182.545 20.5629C182.492 20.4343 182.492 20.2713 182.492 19.9452Z" fill="white"/>
<path d="M188.791 19.9452C188.791 19.6192 188.791 19.4561 188.844 19.3275C188.915 19.156 189.052 19.0198 189.223 18.9488C189.352 18.8955 189.515 18.8955 189.841 18.8955C190.167 18.8955 190.33 18.8955 190.459 18.9488C190.63 19.0198 190.766 19.156 190.837 19.3275C190.891 19.4561 190.891 19.6192 190.891 19.9452C190.891 20.2713 190.891 20.4343 190.837 20.5629C190.766 20.7344 190.63 20.8707 190.459 20.9417C190.33 20.995 190.167 20.995 189.841 20.995C189.515 20.995 189.352 20.995 189.223 20.9417C189.052 20.8707 188.915 20.7344 188.844 20.5629C188.791 20.4343 188.791 20.2713 188.791 19.9452Z" fill="white"/>
<path d="M169.896 26.2431C169.896 25.917 169.896 25.754 169.95 25.6254C170.021 25.4539 170.157 25.3177 170.328 25.2466C170.457 25.1934 170.62 25.1934 170.946 25.1934C171.272 25.1934 171.435 25.1934 171.564 25.2466C171.735 25.3177 171.872 25.4539 171.943 25.6254C171.996 25.754 171.996 25.917 171.996 26.2431C171.996 26.5692 171.996 26.7322 171.943 26.8608C171.872 27.0323 171.735 27.1685 171.564 27.2395C171.435 27.2928 171.272 27.2928 170.946 27.2928C170.62 27.2928 170.457 27.2928 170.328 27.2395C170.157 27.1685 170.021 27.0323 169.95 26.8608C169.896 26.7322 169.896 26.5692 169.896 26.2431Z" fill="white"/>
</svg>
